<?xml version="1.0" standalone="no"?>
<!DOCTYPE svg PUBLIC "-//W3C//DTD SVG 1.1//EN" "http://www.w3.org/Graphics/SVG/1.1/DTD/svg11.dtd" >
<svg xmlns="http://www.w3.org/2000/svg" xmlns:xlink="http://www.w3.org/1999/xlink" version="1.1">
<metadata>
Created by FontForge 20200511 at Fri Nov 23 15:58:06 2018
 By convertio
Copyright (c) 2018 by Billy Argel. All rights reserved.
</metadata>
<defs>
<font id="MusicMagicPersonalUse-Regular" horiz-adv-x="833" >
  <font-face 
    font-family="Music Magic Personal Use"
    font-weight="400"
    font-stretch="normal"
    units-per-em="1000"
    panose-1="0 0 0 0 0 0 0 0 0 0"
    ascent="800"
    descent="-200"
    x-height="472"
    cap-height="942"
    bbox="-326.442 -996.2 1916.12 1217.23"
    underline-thickness="50"
    underline-position="-100"
    unicode-range="U+000D-FB02"
  />
<missing-glyph horiz-adv-x="260" 
 />
    <glyph glyph-name="t_t" unicode="tt" horiz-adv-x="564" 
d="M-41 445q-10 -1 -15.5 4.5t-6 13.5t2.5 17t9 15q22 9 43.5 15.5t43.5 11.5l19 61q11 35 6 72.5t-17 65.5q-4 9 8 7.5t28 -6.5q10 -3 26 -11.5t32.5 -20t30 -23t18.5 -19.5q11 -21 11.5 -47.5t-6.5 -58.5q35 3 69.5 6t68.5 10l7 25q11 35 6 72.5t-17 65.5q-4 9 8 7.5
t28 -6.5q10 -3 26 -11.5t32.5 -20t30 -23t18.5 -19.5q6 -14 9 -28q30 20 55 47q9 -11 17.5 -28.5t11 -37t-3 -40.5t-24.5 -39q-36 -28 -74 -40q-8 -33 -18.5 -77t-21 -90.5t-18.5 -91.5t-12 -80.5t-2 -57.5t13 -22q24 1 47.5 29t44 67t38 81t30.5 72q4 9 13 8.5t18 -6.5
t14.5 -15t1.5 -18q-9 -21 -21.5 -51t-27.5 -62.5t-33.5 -64.5t-40 -57.5t-46.5 -41t-54 -15.5q-62 -1 -92.5 35t-38.5 96q-15 -26 -31.5 -50t-35 -42t-39.5 -28.5t-45 -10.5q-45 -1 -73 18t-42.5 52.5t-17.5 79t2.5 98t17.5 109t27 112.5q-14 -2 -28.5 -5.5t-29.5 -7.5z
M119 63q20 1 39 20t36.5 47.5t33 62.5t29.5 66q7 50 18.5 102.5t26.5 104.5q-30 1 -61.5 2.5t-65.5 2.5q-9 -34 -19 -77.5t-20 -88.5t-18 -88.5t-11.5 -77.5t-1 -55t13.5 -21z" />
    <glyph glyph-name="l_l" unicode="ll" horiz-adv-x="645" 
d="M461 278q-31 -72 -29 -147t48 -151q19 -32 50 -55t66.5 -38t73 -21.5t70.5 -3.5q27 2 50 11t40.5 22.5t27.5 31.5t10 39q0 8 5 9.5t13 -4t17 -16t17 -26.5q25 -53 18.5 -85t-28 -49.5t-49.5 -24.5t-47 -8q-78 -6 -147 13t-126.5 56.5t-102.5 92t-76 119.5q-26 53 -36 100
q-13 -24 -27.5 -46t-32.5 -38.5t-39.5 -26.5t-46.5 -10q-68 0 -112 32t-65 85.5t-21.5 122t18.5 141.5q9 38 21.5 85t28 95.5t35.5 95t45.5 83t56.5 58.5t69 23q27 0 46.5 -10.5t33 -26t19.5 -34t6 -34.5q-1 -29 -11.5 -70t-28 -88t-41.5 -94.5t-50.5 -89.5t-55 -73.5
t-56.5 -44.5q-9 -43 -4 -77t16 -57t25.5 -35.5t23.5 -12.5q25 0 45.5 14t36.5 36t29 49.5t24 55.5q1 38 6.5 74t16.5 74q9 37 21.5 80t28.5 85t35 80.5t42 67.5t49.5 46.5t57.5 17.5q27 0 47.5 -10.5t33.5 -26.5t19 -34t6 -34q-2 -43 -20 -102t-48 -117t-68 -106t-80 -68z
M295 786q-6 0 -18 -22t-26.5 -58t-30.5 -81.5t-31.5 -92.5t-28.5 -91t-21 -76q23 19 47.5 57.5t46.5 85.5t40 96t27.5 89.5t9 66.5t-14.5 26zM610 719q-6 0 -15.5 -17t-21 -45.5t-24.5 -65.5t-25 -76.5t-23 -78.5t-19 -71q23 19 45.5 53t41.5 73t33 79.5t21 73.5t4 54
t-17 21z" />
    <glyph glyph-name=".notdef" horiz-adv-x="260" 
 />
    <glyph glyph-name="i" unicode="i" horiz-adv-x="289" 
d="M110 -12q-34 -1 -58.5 13.5t-40.5 39t-24.5 56.5t-11 67.5t0.5 71t9 66.5q4 18 8.5 42.5t7.5 50t4 47.5t-2 36q-2 9 10 5.5t27 -10.5q10 -4 25 -14.5t30.5 -23.5t27.5 -26t16 -21q4 -11 4 -30.5t-1.5 -42t-5 -44.5t-7.5 -38q-6 -27 -10 -57t-4.5 -55t2.5 -41.5t10 -16.5
q22 1 45 29t44 67t38.5 81t30.5 72q4 9 13 8.5t18 -6.5t14.5 -15t1.5 -18q-10 -22 -22.5 -52.5t-27.5 -63t-33 -64t-39.5 -56.5t-46 -40.5t-53.5 -16.5zM19 619q7 27 32.5 36.5t54.5 -6.5q30 -16 46 -46.5t9 -58.5q-7 -29 -33.5 -37.5t-55.5 6.5q-29 16 -44.5 46.5
t-8.5 59.5z" />
    <glyph glyph-name="t" unicode="t" horiz-adv-x="282" 
d="M192 542q-2 -13 -12.5 -53.5t-23 -94t-25 -111.5t-19.5 -107t-6.5 -81t13.5 -32q24 1 47.5 29t44 67t38 81t30.5 72q4 9 13 8.5t18 -6.5t14.5 -15t1.5 -18q-9 -21 -21.5 -51t-27.5 -62.5t-33.5 -64.5t-40 -57.5t-46.5 -41t-54 -15.5q-50 -1 -79 22.5t-42 64t-12.5 94.5
t9.5 114.5t25 124t34 122.5q-48 -6 -83 -12t-46 -10q-9 -4 -16 4.5t-9.5 20.5t2 24.5t18.5 17.5q42 8 79.5 13.5t75.5 8.5q6 32 1 65t-16 58q-4 9 8 7.5t28 -6.5q10 -3 26 -11.5t32.5 -20t30 -23t18.5 -19.5q5 -10 7.5 -21.5t3.5 -23.5q79 -1 139 -9q12 -3 20 -9.5t9.5 -13
t-2.5 -11t-16 -3.5q-18 1 -60 -1.5t-94 -7.5l-2 -6v0z" />
    <glyph glyph-name="l" unicode="l" horiz-adv-x="343" 
d="M224 722q-6 0 -14.5 -17t-18.5 -45.5t-20.5 -65.5t-20.5 -76.5t-18.5 -78.5t-14.5 -71q22 19 42.5 53t37 73t28.5 79.5t16.5 73.5t0.5 54t-18 21zM166 -11q-68 0 -113 37t-68 96.5t-26 133t12 146.5q7 37 17 80t23 85t30 80.5t38 67.5t46.5 46.5t56.5 17.5
q27 0 47.5 -10.5t35 -26.5t21.5 -34t7 -34q1 -43 -13.5 -102t-41 -117t-62 -106t-75.5 -68q-7 -43 -1 -82.5t17 -69.5t25 -48t23 -18q33 0 59.5 27.5t47.5 67t37.5 82t29.5 72.5q4 9 13 8.5t18 -6.5t14.5 -15t1.5 -18q-15 -34 -34.5 -83.5t-46 -96t-61 -79.5t-78.5 -33z" />
    <glyph glyph-name="u" unicode="u" horiz-adv-x="565" 
d="M404 63q15 1 30 14.5t29.5 34.5t28.5 48t26.5 54t23.5 53t19 45q4 9 13 8.5t17.5 -6t14 -15t2.5 -18.5q-9 -22 -21 -52.5t-27.5 -63.5t-34 -64.5t-40.5 -56.5t-48 -40.5t-55 -15.5q-29 1 -50.5 10.5t-37.5 25t-26 36.5t-16 45q-30 -51 -70 -83.5t-75 -32.5
q-48 0 -78 24.5t-45.5 62.5t-18.5 84.5t5 90.5q7 39 15.5 84t13.5 80q1 7 2 24.5t-2 26.5q-4 9 7.5 7.5t26.5 -6.5q10 -3 28.5 -12.5t38 -22t35.5 -25.5t19 -21q1 -2 -2 -18t-8.5 -38.5t-11.5 -49t-11.5 -51t-9.5 -43t-5 -25.5q-2 -17 -2 -34.5t1.5 -32t5.5 -23t12 -8.5
q12 0 29.5 12t35 32.5t32.5 47t23 55.5q2 24 5 47t7 45q4 18 10.5 40.5t12 45t8.5 42.5t0 34q-3 9 9.5 5.5t27.5 -10.5q10 -4 25 -14.5t30.5 -23.5t27.5 -26t16 -21q4 -11 2.5 -28t-6 -37t-9.5 -40l-9 -36q-7 -28 -11 -58t-4 -55.5t4.5 -41.5t14.5 -15z" />
    <glyph glyph-name="b" unicode="b" horiz-adv-x="574" 
d="M267 721q-6 0 -16 -17.5t-21.5 -46t-24 -65.5t-25 -76.5t-24 -78.5t-19.5 -71q24 21 47 55t42 73.5t33.5 79.5t21 72.5t3.5 53.5t-17 21zM390 200q-12 -41 -27 -78.5t-35.5 -66.5t-47.5 -47t-62 -18q-77 -1 -128 34.5t-78 92t-31.5 127.5t12.5 141q9 40 21 84t27 87
t34 82.5t42 70t50.5 49t60.5 19.5q27 1 46.5 -9t32 -25.5t19.5 -34.5t8 -35q1 -27 -8 -65.5t-25 -80t-38 -83t-46 -76.5t-49.5 -60t-47.5 -32q-9 -43 -4.5 -83.5t18.5 -72t34.5 -50.5t44.5 -18t42 20t32.5 49.5t25.5 70t22 81.5q3 11 -4 27.5t-15.5 36.5t-15 41.5t-3.5 41.5
q3 16 7 30t13 24.5t24 16.5t39 5q23 -1 35.5 -14t17.5 -33t3.5 -44.5t-5.5 -47.5t-9 -42t-8 -28q1 -8 7.5 -19.5t15.5 -22.5t20 -19.5t22 -8.5q18 0 32 8t25.5 22.5t21 32.5t18.5 38q4 9 12.5 10t17 -3.5t13.5 -13.5t2 -20q-8 -29 -20 -56t-28 -47.5t-36 -32.5t-43 -11
q-29 1 -52 12t-52 44z" />
    <glyph glyph-name="space" unicode=" " horiz-adv-x="260" 
 />
    <glyph glyph-name="v" unicode="v" horiz-adv-x="521" 
d="M326 202q-2 -26 -18 -62.5t-43.5 -69.5t-66.5 -56.5t-88 -24.5q-47 -1 -77.5 23.5t-46 62.5t-18.5 85t5 91q7 39 15.5 84t12.5 80q2 7 3 24.5t-3 26.5q-3 9 8.5 7.5t26.5 -6.5q10 -3 28.5 -12.5t38 -22t35.5 -25.5t19 -21q1 -2 -2 -18t-8.5 -38.5t-11.5 -49t-11.5 -51
t-9.5 -43t-5 -25.5q-2 -17 -2.5 -34t1 -31.5t6 -23.5t12.5 -9q24 -2 47 18t42.5 52t35.5 71t25 75q-17 26 -28.5 63t-5.5 78q3 16 8 31.5t14.5 27t25 18t39.5 5.5q28 -2 42.5 -15.5t20.5 -34.5t4.5 -46t-6 -48.5t-10 -42.5t-8.5 -28q1 -8 5.5 -19.5t11 -22.5t15.5 -19.5
t20 -8.5q18 0 32 8t25.5 22.5t21 32.5t18.5 38q4 9 12.5 10t17 -3.5t13.5 -13.5t2 -20q-8 -29 -20 -56t-28 -47.5t-36 -32.5t-43 -11q-29 1 -58.5 13.5t-54.5 44.5z" />
    <glyph glyph-name="w" unicode="w" horiz-adv-x="791" 
d="M400 63q24 -2 47 20.5t42 55.5t33 71t22 69q-17 26 -28.5 63t-5.5 78q3 16 8 31.5t14.5 27t25 18t39.5 5.5q28 -2 42.5 -15.5t20.5 -34.5t4.5 -46t-6 -48.5t-10 -42.5t-8.5 -28q1 -8 5.5 -19.5t11 -22.5t15.5 -19.5t20 -8.5q18 0 32 8t25.5 22.5t21 32.5t18.5 38
q4 9 12.5 10t17 -3.5t13.5 -13.5t2 -20q-8 -29 -20 -56t-28 -47.5t-36 -32.5t-43 -11q-29 1 -58.5 13.5t-54.5 44.5q-3 -22 -17 -58.5t-39.5 -72t-64 -60t-89.5 -22.5q-54 3 -85.5 31.5t-45.5 71.5q-30 -45 -68 -74t-70 -29q-48 0 -78 24.5t-45.5 62.5t-18.5 84.5t5 90.5
q7 39 15 84t13 80q2 7 3 24.5t-3 26.5t8 7.5t27 -6.5q10 -3 28.5 -12.5t38 -22t35.5 -25.5t19 -21q1 -2 -2 -18t-8.5 -38.5t-11.5 -49t-11.5 -51t-9.5 -43t-5 -25.5q-2 -17 -2 -34.5t1.5 -32t5.5 -23t12 -8.5q11 0 25.5 9t29.5 24t29.5 35.5t24.5 44.5q-1 19 1 37.5t5 37.5
q7 39 15.5 84t13.5 80q2 7 3 24.5t-3 26.5t8 7.5t27 -6.5q10 -3 28.5 -12.5t38 -22t35.5 -25.5t19 -21q1 -2 -2 -18t-8.5 -38.5t-11.5 -49t-11.5 -51t-9.5 -43t-5 -25.5q-2 -17 -2.5 -34t1 -31.5t6 -23.5t12.5 -9z" />
    <glyph glyph-name="c" unicode="c" horiz-adv-x="419" 
d="M222 75q34 5 63 29.5t53 59t43 74t34 74.5q4 9 13 8.5t18 -6.5t14.5 -15t1.5 -18q-20 -45 -42 -96t-53.5 -94t-77.5 -71.5t-113 -28.5q-68 0 -116.5 38t-72 95t-20.5 122.5t38 121.5q36 57 80.5 80t83.5 22q31 0 55.5 -8.5t42 -20.5t29 -27t16.5 -28q3 -9 6.5 -23.5
t2 -33.5t-12 -40t-35.5 -43q-7 -6 -16 -4.5t-16 7.5t-10 14t3 15q16 18 21.5 35t3 30t-12 21t-22.5 8q-14 0 -38 -15.5t-51 -61.5q-17 -29 -21.5 -67t5 -72.5t34.5 -58t69 -22.5z" />
    <glyph glyph-name="e" unicode="e" horiz-adv-x="430" 
d="M211 73q42 0 76 26t60.5 63.5t46.5 78.5t33 71q4 9 13 8.5t18 -6.5t14.5 -15t1.5 -18q-21 -47 -42.5 -97.5t-53.5 -93.5t-78.5 -70.5t-116.5 -27.5q-84 0 -134 35t-71 88t-15.5 114.5t31 115t69 89.5t99.5 38q28 1 52 -5.5t42.5 -18t31.5 -26.5t21 -31q13 -29 11 -58.5
t-15 -56.5t-34.5 -50.5t-47.5 -42t-54.5 -30t-54.5 -14.5q11 -29 35 -48t62 -18zM109 195q25 6 53 23.5t50.5 41t35 48t5.5 44.5q-2 7 -10 13t-20 6q-30 0 -52.5 -16t-37.5 -41t-21 -56.5t-3 -62.5z" />
    <glyph glyph-name="d" unicode="d" horiz-adv-x="536" 
d="M447 542q-2 -13 -12.5 -53.5t-23 -94t-25 -111.5t-19.5 -107t-6.5 -81t13.5 -32q24 1 47.5 29t44 67t38 81t30.5 72q4 9 13 8.5t18 -6.5t14.5 -15t1.5 -18q-9 -21 -21.5 -51t-27.5 -62.5t-33.5 -64.5t-40 -57.5t-46.5 -41t-54 -15.5q-35 0 -59 11t-40 31.5t-24.5 49
t-10.5 63.5q-16 -29 -34.5 -56t-39.5 -48t-43 -33t-46 -11q-32 2 -53.5 24t-33.5 57t-14 79t5 89.5t24 87.5t43 74t61.5 49.5t80.5 13.5q31 -3 53.5 -10.5t39.5 -18.5q11 37 21.5 72.5t21.5 69.5q11 35 6 72.5t-17 65.5q-4 9 8 7.5t28 -6.5q10 -3 26 -11.5t32.5 -20t30 -23
t18.5 -19.5q11 -21 11.5 -47.5t-6.5 -58.5zM107 93q6 0 22 22.5t35.5 54t39 65t31.5 56.5q3 20 6.5 39.5t8.5 39.5q-2 0 -2.5 0.5t-2.5 0.5q-25 2 -51 -14t-54 -62q-11 -19 -21 -53t-16 -67t-5.5 -57.5t9.5 -24.5z" />
    <glyph glyph-name="g" unicode="g" horiz-adv-x="469" 
d="M513 282q-8 -19 -22.5 -52.5t-35.5 -75t-49 -87t-63 -88.5q5 -40 7 -82.5t-1 -88.5t-16 -74.5t-32 -44.5t-42 -21.5t-45 -5.5q-24 0 -44 9.5t-34.5 23.5t-24.5 29.5t-15 28.5q-10 28 -2.5 51.5t26.5 45t46.5 43t57.5 46.5q-4 48 -10.5 93.5t-11.5 87.5
q-16 -26 -33.5 -48.5t-36 -40t-39 -27t-41.5 -8.5q-32 2 -53.5 24t-33.5 57t-14 79t5 89.5t24 87.5t43 74t61.5 49.5t80.5 13.5q66 -7 98.5 -32t44.5 -52q4 -11 0.5 -27t-11 -26.5t-15.5 -10.5t-12 21q-6 27 -34 28q-25 2 -51 -14t-54 -62q-11 -19 -21 -53t-16 -67
t-5.5 -57.5t9.5 -24.5q4 0 15 14t25 35.5t29.5 47.5t29.5 51q3 25 12 41.5t26 22.5q3 3 9 3q3 0 5 0.5t5 0.5q9 0 23 -11t27.5 -25.5t22.5 -29.5t8 -22q-8 -38 -6.5 -78.5t6.5 -86.5q26 37 46.5 75t37 72.5t28.5 63.5t20 48q3 8 12.5 7.5t18 -6.5t14 -15t1.5 -19zM190 -288
q19 -1 28 11t12 32.5t2.5 47t-1.5 53.5l-2 18q-21 -17 -38.5 -32t-29.5 -30t-16.5 -30t0.5 -31q6 -18 18 -28t27 -11z" />
    <glyph glyph-name="s" unicode="s" horiz-adv-x="376" 
d="M77 -6q-29 1 -55.5 13.5t-48 33.5t-35.5 47.5t-17 56.5q-6 38 6 69t44 37q10 21 19.5 46.5t18 51t16 47.5t13.5 35q-7 48 -3 80.5t16 51.5t30 27t39 8t35.5 -10.5t22 -25t8 -29.5t-5.5 -25q-5 -8 -12.5 -21.5t-24.5 -33.5q-8 -12 -12.5 -17.5t-9.5 -12.5q10 -27 26 -59.5
t33.5 -67.5t32 -71t21.5 -70q6 -30 1 -56q21 13 41 38t38 55.5t33 62t26 57.5q4 9 13 8.5t18 -6.5t14.5 -15t1.5 -18q-10 -23 -20.5 -53t-26 -62.5t-38 -64t-57 -56t-83.5 -39t-117 -13.5zM69 350q-11 -21 -21 -51.5t-23 -60.5q31 -19 39 -44q6 -17 5 -27.5t-8 -21.5
q-6 -6 -13.5 -7.5t-9.5 6.5q-5 16 -13 22.5t-15.5 3.5t-11 -14t1.5 -30q4 -17 12.5 -28.5t18 -19.5t18.5 -12t15 -4q24 -2 34.5 12.5t12 38.5t-3.5 55t-12.5 63.5t-15 63.5t-10.5 55z" />
    <glyph glyph-name="j" unicode="j" horiz-adv-x="282" 
d="M326 280q-20 -36 -33.5 -72.5t-32.5 -73t-48.5 -73.5t-81.5 -74q-6 -5 -12.5 -8.5t-12.5 -8.5q-6 -83 -15 -170q-5 -45 -21 -71t-37.5 -39.5t-44.5 -17t-42 -2.5t-38 8.5t-35.5 19.5t-29.5 27.5t-20 33.5q-12 30 -5 55.5t26.5 47t49 41t62.5 39.5q2 84 8.5 161t11.5 130
q1 22 4.5 55t6.5 68.5t3 68.5t-6 56q-2 9 10 5.5t26 -10.5q10 -4 25.5 -14.5t31 -23.5t27.5 -26t16 -21q3 -11 5 -31t2.5 -44t0 -47.5t-2.5 -39.5q-5 -45 -7.5 -89.5t-5.5 -92.5q32 30 55 59t41.5 61t35 67.5t35.5 78.5q4 9 13.5 8t18.5 -7t14.5 -15.5t1.5 -18.5zM0 619
q6 27 31.5 36.5t54.5 -6.5q30 -16 46 -46.5t9 -58.5q-7 -29 -33.5 -37.5t-55.5 6.5q-29 16 -44 46.5t-8 59.5zM-44 -144v9t-1 9q-42 -29 -66.5 -53.5t-16.5 -49.5q5 -18 19 -27.5t28 -8.5t22 9.5t11.5 24.5t4 38t-0.5 49z" />
    <glyph glyph-name="o" unicode="o" horiz-adv-x="484" 
d="M285 398q-36 0 -68.5 -25.5t-59 -63.5t-45.5 -82t-27 -82t-3 -63t26 -25q20 0 49 17.5t61 59.5q-16 20 -23 40t-8.5 39.5t1.5 38.5t9 36q3 11 12 25.5t22 26.5t29.5 17.5t34.5 -1.5q32 -12 47.5 -32t18 -45.5t-6 -55t-24.5 -60.5q26 3 48 16t40.5 32.5t34 44.5t27.5 52
q4 9 13 9t18 -5t15 -13.5t2 -17.5q-21 -55 -43.5 -92.5t-50.5 -59.5t-63 -29.5t-81 -2.5l-16 -21q-25 -32 -67.5 -58.5t-95.5 -29.5q-31 -2 -57.5 10t-47 32.5t-34 47.5t-19.5 56q-11 54 -0.5 113t38 109t71 82.5t99.5 33.5q9 0 26 -2.5t36.5 -7.5t38.5 -14.5t33 -22.5
q14 -14 15 -20.5t-25 -6.5z" />
    <glyph glyph-name="q" unicode="q" horiz-adv-x="478" 
d="M41 -74q26 9 50 18.5t49 20.5l20 87q-23 -26 -48 -42t-52 -14q-32 2 -53.5 24t-33.5 57t-14 79t5 89.5t24 87.5t43 74t61.5 49.5t80.5 13.5q66 -7 98.5 -32t44.5 -52q4 -11 0.5 -27t-11 -26.5t-15.5 -10.5t-12 21q-6 27 -34 28q-25 2 -51 -14t-54 -62q-11 -19 -21 -53
t-16 -67t-5.5 -57.5t9.5 -24.5q5 0 20 21t34 51t38 62.5t32 56.5q5 11 9 19t9 13q7 8 24 -1.5t33.5 -27t28 -36.5t9.5 -30q-10 -45 -18.5 -82.5t-16.5 -71.5q50 43 92 102.5t74 144.5q4 8 13.5 7t18 -7t13.5 -15t1 -18q-33 -81 -76.5 -151t-108.5 -128q-12 -11 -25.5 -21
t-27.5 -19q-8 -35 -15.5 -68.5t-14.5 -69.5t-13 -76t-11 -86q-3 -5 -14 0.5t-25.5 16.5t-30.5 25.5t-29.5 29t-21.5 26t-7 17.5l21 101l-70 -27q-12 -4 -21.5 3.5t-12.5 20.5t2 27.5t22 23.5z" />
    <glyph glyph-name="y" unicode="y" horiz-adv-x="558" 
d="M604 280q-15 -30 -28 -65.5t-33 -73.5t-51.5 -77.5t-83.5 -76.5q-6 -5 -12.5 -8.5t-12.5 -8.5q-6 -83 -15 -170q-5 -45 -21.5 -71t-38 -39.5t-44.5 -17t-42 -2.5t-38 8.5t-35.5 19.5t-29.5 27.5t-20 33.5q-12 30 -5 55.5t26.5 47t49 41t62.5 39.5q0 35 2 69t5 66
q-29 -40 -63 -64t-64 -24q-48 0 -78 24.5t-45.5 62.5t-18.5 84.5t5 90.5q7 39 15.5 84t12.5 80q2 7 3 24.5t-3 26.5q-3 9 8.5 7.5t26.5 -6.5q10 -3 28.5 -12.5t38 -22t35.5 -25.5t19 -21q1 -2 -2 -18t-8.5 -38.5t-11.5 -49t-11.5 -51t-9.5 -43t-5 -25.5q-2 -17 -2 -34.5
t1.5 -32t5.5 -23t12 -8.5q13 0 30.5 12.5t35.5 33.5t33 48.5t23 57.5q2 29 7 63.5t9 69t5.5 66t-4.5 54.5q-2 9 10 5.5t27 -10.5q10 -4 25.5 -14.5t30.5 -23.5t27.5 -26t15.5 -21q7 -21 6.5 -62.5t-4 -89.5t-9 -96t-7.5 -83q32 30 55 59t41.5 61t35 67.5t35.5 78.5q4 9 13 8
t18 -7t15 -15.5t2 -18.5zM233 -144q-1 5 -1 9v9q-43 -29 -67 -53.5t-16 -49.5q5 -18 19 -27.5t28 -8.5t22 9.5t11.5 24.5t4 38t-0.5 49z" />
    <glyph glyph-name="n" unicode="n" horiz-adv-x="512" 
d="M363 202q-8 -24 -12.5 -49t-6 -45t0.5 -32.5t8 -12.5q13 0 27 13t28.5 34.5t28.5 48t27 54.5t24 53.5t20 45.5q4 9 13 8.5t18 -6.5t14.5 -15t1.5 -18q-14 -32 -35 -81.5t-49 -96.5t-63 -80.5t-75 -33.5q-46 0 -75 22t-42.5 57.5t-13 80.5t14.5 91q9 30 16.5 58t11 49
t3 34t-6.5 13q-10 0 -24 -7.5t-29.5 -22t-31 -33.5t-27.5 -41q-4 -21 -9.5 -40t-10.5 -37q-18 -61 -27.5 -98.5t-11.5 -55.5q-1 -7 -1.5 -24t1.5 -26q2 -13 -23 -16t-58 8q-26 8 -44.5 28t-19.5 44q-1 17 6 46t17.5 64t22 74t19 77.5t9.5 74t-7 63.5q-3 10 16 6t44 -16.5
t48 -29.5t27 -33q2 -9 3 -17t3 -16l1 11q35 40 71 65t67 25q57 0 83.5 -25t32.5 -64t-2.5 -86t-22.5 -90z" />
    <glyph glyph-name="p" unicode="p" horiz-adv-x="491" 
d="M535 284q-11 -28 -24.5 -61t-31 -65t-39.5 -61t-50.5 -49.5t-64 -31t-79.5 -4.5q-4 0 -12 2q-31 -19 -60 -20t-51.5 5.5t-39.5 17.5q-8 -66 -14 -128.5t-11 -113.5t-7.5 -86.5t-2.5 -48.5q-4 -7 -24.5 7t-43 35t-41 42.5t-18.5 30.5q3 83 11.5 160.5t19 158t21.5 167.5
t20 189q1 8 11 5t25 -10q7 -3 17.5 -9.5t21.5 -15.5t22 -18.5t20 -18.5q14 32 43.5 52.5t88.5 22.5q52 -1 80.5 -24t42.5 -57q11 -29 10.5 -65.5t-10 -75t-27.5 -75.5t-41 -67q31 9 56.5 29t48 50.5t43.5 70.5t42 90q3 8 12 7t18 -6.5t15 -14t3 -16.5zM115 252
q-5 -26 -8.5 -52.5t-6.5 -53.5l10 -2q26 -6 39 -17t31 -27q21 29 36 67t19.5 74t-4.5 65t-36 41q-13 5 -24.5 -1t-22 -19.5t-19 -33t-14.5 -41.5z" />
    <glyph glyph-name="f" unicode="f" horiz-adv-x="383" 
d="M431 287q-14 -30 -31.5 -74t-42 -86t-57.5 -74.5t-77 -40.5q0 -57 -10.5 -118t-30 -111.5t-47.5 -82.5t-61 -32q-58 0 -89.5 37t-44.5 96.5t-10.5 134.5t12.5 149.5t24 142.5t25 114q8 38 21.5 85.5t31 96.5t39.5 96t47 83.5t53 59.5t58 24q29 2 53.5 -12.5t38.5 -53.5
q14 -40 13.5 -88.5t-12 -99t-32.5 -100t-48 -92t-58.5 -75t-63.5 -47.5q-2 -5 -2.5 -9.5t-2.5 -9.5q37 -1 59 -32.5t31 -81.5q23 10 46 33.5t44.5 54.5t40.5 67t34 73q3 8 12 8t18 -5t15 -13t4 -17zM158 14q-43 8 -68 34q-13 -54 -24 -108.5t-15.5 -98t-1 -71t19.5 -27.5
q19 0 34.5 27t27 67.5t18.5 87.5t9 89zM279 715q-7 1 -16.5 -20t-21 -55.5t-23.5 -79t-24 -90t-23 -89t-19 -75.5q12 13 26 32t28.5 43.5t28.5 53t26 60.5q15 38 22.5 77t9 70.5t-2.5 51.5t-11 21z" />
    <glyph glyph-name="m" unicode="m" horiz-adv-x="757" 
d="M168 73q-1 14 6.5 42.5t17.5 64t21.5 73t19.5 68.5t10 51t-6 21q-12 0 -27 -8t-30.5 -22t-31 -33.5t-27.5 -42.5q-4 -20 -9.5 -38.5t-10.5 -35.5q-18 -61 -27.5 -98.5t-11.5 -55.5q-1 -7 -1.5 -24t1.5 -26q2 -13 -23 -16t-58 8q-26 8 -44.5 28t-19.5 44q-1 17 6 46
t17.5 64t22 74t19 77.5t9.5 74t-7 63.5q-3 10 16 6t44 -16.5t48 -29.5t27 -33l4 -23q35 41 74 65.5t71 24.5q56 0 83 -23.5t34 -60.5q33 38 68 61.5t65 23.5q57 0 83.5 -25t32.5 -64t-2.5 -86t-22.5 -90q-8 -24 -12.5 -49t-6 -45t0.5 -32.5t8 -12.5q13 0 27 13t28.5 34.5
t28.5 48t27 54.5t24 53.5t20 45.5q4 9 13 8.5t18 -6.5t14.5 -15t1.5 -18q-14 -32 -35 -81.5t-49 -96.5t-63 -80.5t-75 -33.5q-46 0 -75 22t-42.5 57.5t-13 80.5t14.5 91q9 30 16.5 58t11 49t3 34t-6.5 13q-9 0 -22 -6.5t-27 -18.5t-28.5 -29t-26.5 -37q-4 -23 -11 -45.5
t-16 -44.5q-5 -11 -12 -31.5t-12 -44.5q-7 -28 -11.5 -47.5t-5.5 -30.5q-1 -7 -1.5 -24t1.5 -26q2 -13 -23 -16t-60 8q-26 8 -44.5 28t-19.5 44z" />
    <glyph glyph-name="h" unicode="h" horiz-adv-x="551" 
d="M386 64q26 0 50 27.5t45 66.5t38 81.5t30 72.5q4 9 13 8.5t18 -6.5t14.5 -15t1.5 -18q-9 -20 -20.5 -50t-26.5 -62.5t-33 -64.5t-39.5 -57.5t-46.5 -41.5t-53 -16q-40 0 -73 13t-55 38t-30.5 61.5t0.5 82.5q6 30 14 65.5t13.5 66t6.5 51t-5 20.5q-9 0 -22 -7.5t-28 -20
t-31 -29.5t-29 -36q-21 -119 -29.5 -174.5t-8.5 -60.5q0 -7 1.5 -24t3.5 -26q3 -13 -22 -16t-60 8q-26 8 -46.5 28t-23.5 44q-3 18 -0.5 46.5t8 61.5t12.5 68t14 65.5t12.5 53t7.5 31.5q14 56 33 122.5t45 123.5t61 94.5t82 37.5q38 -1 63 -20t37 -47q16 -39 3 -78.5
t-40.5 -74.5t-62 -63t-60.5 -43l-10 -53q13 13 30 26t35.5 23t39.5 15t44 3q38 -4 58 -20t28.5 -40t7 -54t-6.5 -61.5t-12 -63.5t-10 -59q-2 -18 -3 -36.5t0 -33.5t5 -24t12 -9zM267 720q-19 0 -41 -55t-48 -153q37 24 61 59.5t35 68.5t9 56.5t-16 23.5z" />
    <glyph glyph-name="k" unicode="k" horiz-adv-x="501" 
d="M282 203q11 -23 22.5 -44.5t22 -39t18.5 -28t12 -11.5q13 -2 31.5 22.5t38.5 61t38.5 77.5t31.5 71q4 9 13 8.5t18 -6.5t14.5 -15t1.5 -18q-9 -20 -21 -50t-26.5 -62.5t-31.5 -65t-35.5 -59t-39 -42.5t-41.5 -16q-46 0 -75 25.5t-49 61.5t-34.5 75t-31.5 65
q22 25 39.5 56.5t28.5 59.5t15 47t-2 19q-11 0 -24 -7.5t-26.5 -21t-26.5 -32t-23 -40.5q-21 -117 -29 -173.5t-8 -61.5q0 -7 1.5 -24t3.5 -26q3 -13 -22 -16t-60 8q-26 8 -46.5 28t-23.5 44q-3 18 -0.5 46.5t7.5 61.5t12.5 68t14 65.5t12.5 53t8 31.5q10 37 20 81t23 87.5
t28.5 83.5t35.5 71t44.5 49.5t55.5 18.5q27 0 47.5 -10.5t33.5 -26.5t19.5 -34t5.5 -34q-2 -35 -14.5 -68.5t-33 -62.5t-47.5 -53.5t-57 -41.5l-10 -50q26 26 52 42.5t51 16.5q57 0 85.5 -27.5t30 -68t-23.5 -86.5t-74 -83zM253 731q-9 0 -17 -14.5t-16 -42.5t-17.5 -67
t-22.5 -88q33 34 55.5 71.5t32.5 68.5t6.5 51t-21.5 21z" />
    <glyph glyph-name="x" unicode="x" horiz-adv-x="449" 
d="M-37 -46q-8 18 -2 39t22 44t39.5 48.5t51.5 52.5q-9 42 -13.5 86t-7.5 88l-18 -52q-3 -9 -12.5 -8t-18.5 8t-14.5 16.5t-0.5 18.5l56 175q3 12 25.5 20t48.5 12t47.5 3.5t21.5 -5.5q-1 -52 -1 -119t4 -130q30 31 55.5 61t40 59.5t16 56.5t-15.5 52q-7 11 7 17t36 3
q23 -4 46 -22t34 -52q9 -30 -7.5 -60t-48.5 -60t-74 -60.5t-83 -63.5q7 -51 17.5 -83t27.5 -31q27 1 57.5 28.5t58.5 65.5t51.5 79.5t36.5 70.5q4 9 13 8.5t18 -6.5t14.5 -15t1.5 -18q-10 -22 -25.5 -53t-35.5 -64.5t-44 -66.5t-51 -59t-56.5 -42t-60.5 -16q-49 0 -79.5 28
t-48.5 73q-23 -31 -34.5 -63.5t-3.5 -69.5q1 -8 4.5 -13t6.5 -9t4 -8t-1 -11q-3 -8 -15.5 -12t-28.5 -0.5t-32.5 17.5t-28.5 42z" />
    <glyph glyph-name="z" unicode="z" horiz-adv-x="439" 
d="M37 265q-4 -9 -13.5 -9t-18.5 6t-14.5 15t-1.5 18q7 14 14.5 43t9.5 68q-19 22 -26 45.5t-3 45.5q5 34 26.5 53.5t43.5 20.5q21 0 38 -10t27.5 -26t13.5 -34t-4 -33l-23 -47q6 2 11 4l10 4q16 6 39.5 8.5t48 -2t47.5 -16.5t38 -35q22 -32 24 -64.5t-8.5 -64t-31 -62
t-42.5 -58.5q23 -6 41 -18t32 -28q21 25 37.5 50.5t30 52.5t26 56.5t27.5 64.5q3 9 12.5 8t18.5 -7t14.5 -15.5t1.5 -18.5q-16 -34 -30 -66t-29 -62t-33 -59t-43 -57q19 -42 24.5 -88t1.5 -85q-4 -44 -17 -82.5t-35.5 -67t-54.5 -44.5t-74 -16q-28 0 -49 9t-35 21.5
t-23 26.5t-13 24q-15 34 -6.5 66.5t32 65t58 65.5t72.5 69q-4 22 -8.5 34.5t-9 18.5t-9 7.5t-8.5 1.5q-5 0 -10.5 -7t-11 -17.5t-10 -23t-7.5 -24.5q-5 -7 -19 -8t-29 2.5t-27 10.5t-12 16q-4 30 3 62t20 63t29 59.5t30.5 52.5t23.5 42t8 27q-2 15 -11 20.5t-22.5 7.5
t-31 4.5t-38.5 10.5q-10 -20 -20.5 -43.5t-21.5 -51.5zM171 -288q26 1 40.5 19.5t20.5 48.5t6 68t-2 77q-27 -29 -49 -56.5t-36.5 -51.5t-20.5 -43.5t0 -32.5q6 -14 16.5 -22t24.5 -7z" />
    <glyph glyph-name="A" unicode="A" horiz-adv-x="1264" 
d="M326 -22q40 1 69 20t51 52t40.5 78t38.5 99.5t44 116t58 127.5q-60 20 -110 26t-80 4q-100 -6 -168.5 -47t-104.5 -101.5t-38.5 -133.5t28.5 -143q23 -51 67.5 -75t104.5 -23zM779 490q46 -30 83 -69t60 -87q9 63 26.5 129t39.5 129t47 120.5t49 105.5
q-81 -35 -155.5 -115t-149.5 -213zM667 544q51 88 105.5 159.5t115.5 123.5t130.5 83.5t151.5 39.5q13 1 25 -1t21 -8t12.5 -16.5t-0.5 -25.5q-13 -37 -32.5 -102.5t-39.5 -148t-37.5 -176.5t-26 -186.5t-5.5 -178.5t24 -153q3 -9 4 -17t-1.5 -12t-10 -3.5t-22.5 9.5
q-35 20 -63 44t-47.5 47.5t-30.5 43.5t-12 32t-4 35.5t-9.5 52.5t-18.5 62t-32.5 64.5t-50 59.5t-70.5 48q-30 -67 -50 -138t-38 -138t-38.5 -127t-51.5 -106t-77.5 -74.5t-116.5 -31.5q-64 -3 -121 16.5t-103.5 53.5t-81 77t-53.5 87q-24 57 -31 119.5t4 123.5t42.5 116.5
t85 97.5t130 67t179.5 25q57 0 119.5 -10.5t125.5 -33.5z" />
    <glyph glyph-name="B" unicode="B" horiz-adv-x="1278" 
d="M450 533q14 -4 21.5 -13t8 -18t-7 -14.5t-22.5 -3.5q-36 5 -75.5 16.5t-76 31.5t-66.5 50t-46 73q-11 28 -8.5 62.5t21.5 70t56.5 68.5t97.5 58.5t144 41t196 14.5q50 0 118.5 -11t136 -36t123 -67t79.5 -105q16 -43 3 -82t-46 -73t-83 -62.5t-108 -49.5
q39 -14 75.5 -32.5t67 -43t53.5 -54.5t35 -67q21 -67 15.5 -135.5t-36 -132t-84 -118.5t-128 -96t-169 -64t-206.5 -22q-99 1 -191.5 19t-167.5 53.5t-127 89t-69 125.5q-14 57 6 110t68.5 94.5t124 67t172.5 27.5q24 0 46 0.5t43 -1.5q11 99 56.5 212t126.5 219
q9 13 30.5 10t41.5 -14t32 -27t4 -29q-41 -66 -71 -134q42 4 92 15t99.5 27t95.5 35.5t79.5 41t50.5 43.5t10 42q-12 35 -55 55.5t-97.5 31t-112 13t-99.5 1.5q-101 -3 -177.5 -27t-127 -57t-73 -69t-14.5 -64q3 -13 8 -25.5t16.5 -24.5t33 -23.5t57.5 -22.5zM445 187
q-3 18 -3 39q-16 0 -30 -0.5t-28 -0.5q-57 -2 -111.5 -22t-95 -50.5t-59 -68.5t-3.5 -75q18 -43 65 -71t106.5 -44t122.5 -22t113 -5q98 2 180 26t146.5 61t111.5 83t76.5 92t40.5 87.5t3 70.5q-8 27 -33.5 49t-63 38t-83.5 26.5t-95 15.5t-97 4.5t-90 -6.5
q-20 -68 -24 -135q29 -8 57.5 -20.5t59.5 -29.5q16 -9 22 -20.5t3.5 -20t-12 -11t-24.5 6.5q-21 13 -48 21t-59 13q1 -15 3 -29.5t4 -28.5q1 -13 6.5 -27.5t12 -28.5t14.5 -27t14 -22q11 -17 2 -23.5t-28 -5.5t-42.5 7t-40.5 15q-41 22 -63 57.5t-30 81.5z" />
    <glyph glyph-name="C" unicode="C" horiz-adv-x="771" 
d="M775 326q3 8 12 7.5t17.5 -5.5t14 -13t2.5 -16q-30 -69 -58 -128.5t-64.5 -112t-85.5 -98.5t-119 -88q-26 -15 -64.5 -26.5t-81 -14.5t-85.5 5t-79 31q-25 16 -50.5 32.5t-49.5 37t-45.5 47.5t-38.5 65q-24 53 -34 112t-4.5 123t28 132.5t64.5 140.5q-64 21 -114 56.5
t-70 87.5q-14 37 -3.5 69.5t43 56.5t84.5 38.5t121 15.5q57 1 111 -7.5t101 -25.5q62 42 127.5 68.5t125.5 30.5q70 4 115 -20.5t66 -61.5t18.5 -79.5t-26.5 -75.5q-31 -41 -76 -74.5t-99 -57.5t-114.5 -38.5t-121.5 -17.5q-18 -2 -38 -2t-41 1q-39 -54 -68.5 -112.5
t-44.5 -120.5t-13.5 -126t25.5 -127q13 -35 37.5 -54.5t49.5 -28.5t45.5 -11t26.5 -2q66 0 131.5 29t125.5 81t110.5 123t86.5 154zM428 701q-29 -25 -57.5 -53.5t-56.5 -60.5q2 0 3 0.5t3 0.5q53 3 110.5 15.5t109.5 33.5t93.5 50.5t62.5 66.5q10 18 15.5 34t4 28t-11.5 18
t-31 5q-35 -2 -88.5 -29.5t-113.5 -73.5q8 -15 12 -31.5t6 -34.5q1 -12 -6.5 -16.5t-17.5 -3t-19.5 9t-12.5 18.5q-1 10 -5 23zM-43 701q11 -30 48 -50.5t87 -34.5q11 16 23.5 32t25.5 33q27 32 58.5 63t67.5 60q-31 6 -64 8.5t-66 1.5q-37 -1 -72.5 -11.5t-61.5 -27
t-39.5 -36t-6.5 -38.5z" />
    <glyph glyph-name="D" unicode="D" horiz-adv-x="1327" 
d="M408 194q-5 38 1 87q-84 -6 -142 -28.5t-91.5 -53t-43.5 -64.5t1 -63q15 -37 45 -65.5t70.5 -47.5t90 -28t102.5 -7q104 3 196.5 42t169.5 101.5t134.5 141.5t91.5 162.5t41.5 165.5t-16.5 150q-18 51 -60.5 85.5t-95.5 54.5t-110 27.5t-105 6.5q-105 -3 -182 -26.5
t-125 -56.5t-67.5 -69.5t-10.5 -65.5q4 -14 8.5 -26.5t16.5 -24.5t33.5 -23.5t59.5 -22.5q15 -5 22.5 -14t7.5 -17.5t-7.5 -14.5t-22.5 -4q-36 5 -77 16.5t-78.5 32t-68.5 51t-47 74.5q-11 29 -9 65t21.5 72.5t58 71t99 61t145 42.5t196.5 15q89 -1 170 -22t148.5 -60.5
t117.5 -96.5t76 -131q37 -104 40 -210t-26 -204t-89 -184.5t-150 -151.5t-208.5 -104.5t-263.5 -44.5q-72 -2 -148.5 11t-143.5 44.5t-119 83t-75 125.5q-9 28 -3 62t27 67.5t57 65t87 55t117.5 36.5t148.5 10q13 55 27 103.5t33 94t45 91t63 95.5q9 13 30 10t41 -14
t32.5 -27t5.5 -29q-27 -43 -46 -82t-33.5 -79t-26 -85t-23.5 -100q51 -14 92.5 -31t70.5 -33q18 -10 22 -21.5t-1 -20t-18.5 -11t-29.5 4.5q-40 17 -76.5 29.5t-69.5 20.5q-2 -26 -2 -50t5 -47q1 -13 6.5 -27.5t12 -28.5t14.5 -27t14 -22q11 -17 1.5 -23.5t-28 -6t-42 7
t-40.5 15.5q-41 22 -63.5 57.5t-30.5 81.5z" />
    <glyph glyph-name="E" unicode="E" horiz-adv-x="836" 
d="M736 722q-20 -7 -35 -2.5t-22 14t-5 20.5t17 18q10 5 16.5 12t4.5 15.5t-14 19t-38 22.5q-25 11 -71 14t-99 -2t-107 -18t-95 -33.5t-61.5 -48.5t-6.5 -63q9 -25 35.5 -42.5t61.5 -31t75 -24.5t76 -21.5t64.5 -22.5t41.5 -28q17 -21 25.5 -35t12.5 -24.5t5.5 -19
t5.5 -18.5q-57 -2 -121.5 -15.5t-125.5 -37t-115 -56.5t-90.5 -74.5t-51 -90t2.5 -103.5q10 -32 32.5 -57.5t50 -43.5t57.5 -27t54 -8q79 3 157 33.5t147 84.5t126 129.5t95 169.5q3 8 12 8t17.5 -5t14 -13.5t2.5 -17.5q-26 -72 -58 -137.5t-77 -124.5t-106 -109.5
t-144 -92.5q-35 -18 -82.5 -27.5t-99.5 -8.5t-105 14.5t-100 43t-84 76t-56 113.5q-26 87 -18 154t39 117t79 85.5t102 59t108 37.5t97 21q-50 1 -99.5 13t-92.5 33.5t-75 50.5t-47 64q-24 58 -11 110.5t59.5 93.5t124 67t182.5 32q27 1 60 2t67.5 -1.5t69 -10.5t64.5 -24
t53.5 -42t37.5 -65q13 -37 5.5 -72.5t-44.5 -48.5z" />
    <glyph glyph-name="G" unicode="G" horiz-adv-x="1111" 
d="M884 380q6 16 27.5 23t45 6t41.5 -10t16 -25q-9 -62 -18.5 -148t-24 -183t-37.5 -199t-59 -195q23 -14 44.5 -28t44.5 -31q10 -7 13.5 -15t2 -13.5t-8.5 -8t-18 1.5q-46 28 -95 49q-31 -71 -71.5 -132t-93 -105.5t-118.5 -69.5t-147 -25q-45 0 -85.5 16t-73 42.5t-56 60
t-35.5 69.5q-20 60 -9 116.5t49.5 100.5t101.5 70.5t148 26.5q124 0 244 -44q35 88 61.5 183.5t48.5 187.5q-20 -33 -32 -63.5t-27 -59t-38 -55t-65 -51.5q-26 -15 -64.5 -26.5t-81 -14.5t-85.5 5t-79 31q-25 16 -50.5 32.5t-49.5 37t-45.5 47.5t-38.5 65q-24 53 -34.5 112
t-5 123t28.5 132.5t65 140.5q-65 21 -115 56.5t-70 87.5q-14 37 -3 69.5t43 56.5t84.5 38.5t121.5 15.5q57 1 111 -7.5t101 -25.5q62 42 127.5 68.5t125.5 30.5q70 4 115 -20.5t66 -61.5t18.5 -79.5t-26.5 -75.5q-31 -41 -76 -74.5t-99 -57.5t-114.5 -38.5t-121.5 -17.5
q-18 -2 -38 -2t-41 1q-39 -54 -68.5 -112.5t-44.5 -120.5t-13.5 -126t25.5 -127q13 -35 37.5 -54.5t49.5 -28.5t45.5 -11t26.5 -2q66 0 120.5 29t101 81t86.5 123t76 154q3 14 6 27.5t7 26.5zM371 -597q53 0 98 19.5t83.5 54t70.5 81.5t59 103q-54 13 -100 18.5t-77 4.5
q-57 -1 -113.5 -20t-98 -50.5t-60.5 -72.5t-1 -85q7 -18 21.5 -28.5t33.5 -16t40.5 -7t43.5 -1.5zM594 701q-29 -25 -57.5 -53.5t-56.5 -60.5q2 0 3 0.5t3 0.5q53 3 110.5 15.5t109.5 33.5t93.5 50.5t62.5 66.5q10 18 15.5 34t4 28t-11.5 18t-31 5q-35 -2 -88.5 -29.5
t-113.5 -73.5q8 -15 12 -31.5t6 -34.5q1 -12 -6.5 -16.5t-17.5 -3t-19.5 9t-12.5 18.5q-1 10 -5 23zM122 701q11 -30 48.5 -50.5t87.5 -34.5q11 16 23.5 32t25.5 33q27 32 58.5 63t67.5 60q-31 6 -64 8.5t-66 1.5q-37 -1 -72.5 -11.5t-62 -27t-40 -36t-6.5 -38.5z" />
    <glyph glyph-name="J" unicode="J" horiz-adv-x="1083" 
d="M522 171q-26 -29 -67 -35.5t-85 6.5t-85 44t-67 76q-44 77 -54.5 157.5t6 156.5t56.5 143.5t96.5 118t126 80t145.5 30.5q84 1 142.5 -18.5t98.5 -54t66 -81t46 -98.5q28 -73 27.5 -164.5t-20.5 -189t-55.5 -196t-77.5 -184.5q-11 -22 -22 -43.5t-23 -41.5q35 -37 58 -89
q6 -14 9 -32t1.5 -36t-8 -35.5t-19.5 -30.5q-10 -10 -21.5 -9t-19.5 8t-10 18t7 21t11.5 22t0.5 24.5t-6.5 24.5t-8.5 22q-5 11 -11 20.5t-14 19.5q-33 -53 -73 -98.5t-88 -78.5t-106 -52t-128 -19q-51 0 -91.5 16t-72 41.5t-54 58t-36.5 66.5q-24 58 -12 104.5t49.5 80
t94.5 53t124 24.5t138 -5t136 -37q48 84 85.5 180.5t63 194.5t37.5 191t9 171q-4 62 -27 90t-81 30q-90 2 -156 -29t-112 -81t-72.5 -112.5t-38 -123t-9 -113.5t15.5 -83q10 -24 26.5 -42.5t35 -29.5t37 -12.5t33.5 8.5q11 8 23 5t20.5 -11.5t11 -20t-5.5 -20.5zM291 -298
q39 0 78.5 15t77 43t72.5 66t65 85q-51 13 -107 16.5t-108.5 -2t-98 -19.5t-76 -35t-42 -49.5t4.5 -62.5q7 -16 21.5 -27t33 -17.5t39 -9.5t40.5 -3z" />
    <glyph glyph-name="F" unicode="F" horiz-adv-x="715" 
d="M166 493q60 26 125 35.5t124 7.5q54 73 97 150.5t64 168.5q-33 3 -81 -4t-103 -21.5t-113 -35.5t-112 -47t-100 -55.5t-77 -60t-43 -62t3 -61.5q11 -23 31 -42.5t56 -33.5q15 -6 23 -15.5t8.5 -17.5t-6.5 -13.5t-21 -3.5q-25 3 -58 11.5t-67 26.5t-66 48.5t-54 79.5
q-26 57 -16.5 105.5t45 88.5t93 72t127.5 56.5t147.5 41t154 26.5t147 13t125.5 0q31 -2 48.5 -15t25.5 -31t9.5 -38.5t0.5 -37.5q-8 -67 -42 -147.5t-78 -169.5q45 -14 80 -31q12 -6 17 -14.5t5 -16t-5 -12t-14 -1.5q-29 8 -55.5 14.5t-52.5 9.5q-63 -68 -104 -149.5
t-59.5 -166.5t-14 -167t33.5 -149q6 -14 5.5 -21t-6 -8.5t-14 1.5t-18.5 9q-22 13 -48.5 33t-50 43t-41 46.5t-22.5 41.5q-18 64 -16.5 129.5t20 127t51.5 117t77 100.5q-26 -7 -59.5 -17.5t-61.5 -21.5q-18 -8 -37.5 1t-32 24.5t-13 32.5t18.5 26z" />
    <glyph glyph-name="I" unicode="I" horiz-adv-x="927" 
d="M114 403q-32 71 -38 137t8.5 124t48 106.5t80.5 84.5t105 58.5t122 28.5q119 11 204 -23.5t120 -112.5q39 -87 52.5 -164t9 -146.5t-22 -133t-38.5 -124.5q-26 -78 -68.5 -152t-102.5 -131.5t-139.5 -91.5t-180.5 -31q-44 1 -83.5 14.5t-71.5 36t-55 52t-34 62.5
q-12 36 -8 72t25 65.5t60 48t98 18.5q25 0 55 -7.5t60 -19.5t56.5 -28t43.5 -33q7 -8 7 -15.5t-4 -12.5t-12 -6t-18 5q-44 26 -82.5 38.5t-79.5 11.5q-26 0 -52.5 -12t-45 -31.5t-26 -44.5t5.5 -52q12 -26 40 -39t63 -13q69 0 132 33t116.5 90t96 133t71.5 162.5t43 178.5
t10 180q-2 63 -32.5 91.5t-81.5 27.5q-79 0 -137.5 -23t-99.5 -60.5t-66 -84t-37 -93.5t-12.5 -89t7.5 -69q7 -25 20.5 -44t30 -30t34 -14t31.5 5q12 6 22 3.5t16 -9.5t6 -17t-8 -17q-27 -24 -64.5 -26.5t-75 12.5t-71 46t-53.5 75z" />
    <glyph glyph-name="H" unicode="H" horiz-adv-x="927" 
d="M403 858q-44 4 -98 -9.5t-108.5 -38.5t-103.5 -59t-83.5 -72t-49 -77.5t0.5 -75.5q10 -22 24.5 -43t40.5 -29q13 -4 20.5 -13t9 -18t-4 -15t-19.5 -4q-19 1 -50.5 7t-66 21.5t-67.5 44.5t-55 77q-32 71 -14.5 129.5t68 104t127.5 78.5t163.5 53.5t175.5 28t164 3.5
q31 -2 47 -8.5t21 -17t2.5 -23.5t-9.5 -27q-48 -105 -102.5 -222.5t-98.5 -238.5q62 5 121.5 4.5t116.5 -3.5q20 74 44.5 146t50 134.5t50 111.5t44.5 77q11 16 31.5 23.5t40.5 5.5t35.5 -14t17.5 -35q-11 -23 -28 -69.5t-35.5 -108.5t-37 -136.5t-33.5 -153.5q18 -2 34 -5
t32 -5q16 -3 24.5 -11t9.5 -16t-6 -13.5t-21 -3.5q-17 2 -37 3.5t-44 3.5q-12 -69 -19 -138t-7 -133t7.5 -119.5t25.5 -97.5q3 -8 4 -15.5t-2 -11t-11 -3t-22 8.5q-34 19 -65 43t-55.5 47.5t-40.5 44.5t-20 33q-19 63 -12 153t30 190q-61 -2 -125 -7.5t-127 -15.5
q-27 -62 -38.5 -140t-12 -157.5t9 -152.5t25.5 -123q6 -19 0 -26t-32 7q-22 12 -51 33t-56 45.5t-47.5 49t-25.5 43.5q-9 33 -14.5 82t-6 101t4 100.5t16.5 80.5q-43 -16 -80 -39q-10 -9 -24 -8t-27.5 8.5t-24.5 19t-15.5 24.5t-1.5 24.5t19 18.5q45 20 91 35t94 26
q25 69 60 133.5t74 124t79.5 114.5t78.5 106z" />
    <glyph glyph-name="K" unicode="K" horiz-adv-x="1073" 
d="M496 858q-45 4 -95 -3t-97.5 -23.5t-89.5 -40.5t-70 -53t-38.5 -63t4.5 -69q10 -22 24.5 -43t41.5 -29q12 -4 20 -13t10 -18t-3.5 -15t-20.5 -4q-19 1 -50.5 7t-66.5 21.5t-68 44.5t-54 77q-32 71 -19 123.5t57.5 89t114 59t150 34t165 13.5t159.5 -2q30 -2 46 -8.5
t22 -17t3 -23.5t-10 -27q-29 -62 -61 -129.5t-62.5 -138t-59 -143t-49.5 -144.5q100 22 186.5 73.5t151.5 120.5t103.5 148.5t44 157.5t-26.5 147t-110 118q-22 14 -17.5 22.5t24.5 9.5q25 1 61.5 -11.5t75 -37.5t72.5 -61t55 -82q34 -76 37.5 -145.5t-17 -131t-60 -115
t-90.5 -98t-109.5 -79.5t-117 -59t-112.5 -37t-96 -14q32 -45 84 -110.5t114.5 -136.5t129.5 -141.5t129.5 -126.5t114.5 -91t84 -36q33 -1 49.5 3.5t28.5 24.5q14 23 33.5 14.5t24.5 -38.5q3 -21 -1 -45t-17.5 -45t-38.5 -35.5t-64 -15.5q-69 -2 -141.5 38.5t-143.5 106.5
t-139 149.5t-128 168.5t-109.5 162t-83.5 131q-9 -44 -16 -99t-9.5 -111t0.5 -107.5t15 -88.5q6 -19 -0.5 -26t-32.5 7q-22 12 -50 32.5t-53.5 44t-44 47.5t-21.5 42q-9 58 -13.5 106.5t-1.5 95t14 95t33 107.5q28 73 65 142t77.5 131.5t80.5 117t73 99.5z" />
    <glyph glyph-name="P" unicode="P" horiz-adv-x="937" 
d="M315 729q9 13 29.5 9.5t41 -16.5t33.5 -30.5t7 -31.5q-9 -21 -16 -39t-14 -40.5t-15 -52t-19 -72.5q56 0 117 9t118.5 25.5t107 40t82 52.5t44.5 63.5t-5 72.5q-12 27 -44 46.5t-74.5 32.5t-90.5 20t-93.5 10.5t-83.5 4t-59 0.5q-76 -2 -143 -16.5t-117 -38t-79 -53.5
t-30 -63t29.5 -66.5t100.5 -62.5q15 -6 23 -15.5t9 -17.5t-6 -13t-22 -3q-36 5 -76 15t-77.5 29t-69.5 49.5t-52 77.5q-25 60 -14 113.5t62.5 96t145 71t232.5 37.5q46 2 102 -0.5t115.5 -12t118.5 -27.5t111 -46t92.5 -67t63.5 -92q27 -63 22.5 -115t-32 -94t-73 -75
t-99.5 -57.5t-112.5 -41t-111 -25.5t-95.5 -11.5t-66 1.5h-1q-10 -59 -20.5 -125.5t-15.5 -131.5t-1 -125t23 -105q3 -8 4 -15.5t-2 -11.5t-11 -3.5t-22 8.5q-34 19 -63 41.5t-51 45t-36 42t-18 31.5q-17 55 -15.5 124.5t16 143.5t38 149t51 142t55.5 121.5t51 87.5z" />
    <glyph glyph-name="R" unicode="R" horiz-adv-x="1000" 
d="M982 -345q24 -22 49.5 -38t49.5 -23.5t43 -3.5t30 22q14 23 34.5 16t25.5 -37q3 -21 0.5 -44t-14.5 -42.5t-35.5 -32.5t-62.5 -14q-49 -2 -99.5 23.5t-101 70t-101 104t-98.5 127t-93.5 138.5t-86 138.5t-76 127t-63.5 103.5h1q0 2 -1 2.5t-2 2.5q-9 -57 -19 -122
t-15 -128t-1.5 -121t22.5 -101q3 -8 4 -15.5t-2 -11.5t-11 -3.5t-22 8.5q-34 19 -63 41.5t-51.5 45t-36.5 42t-17 31.5q-19 55 -19 124.5t12 143.5t34.5 149t48.5 142t53.5 121.5t51.5 88.5q9 13 30 9t41 -16.5t33 -30t7 -31.5q-9 -21 -17 -39t-16.5 -40t-18 -51.5
t-21.5 -72.5q56 0 119 8.5t123.5 25t113 39.5t88.5 52t49.5 63t-3.5 73q-12 27 -44 46.5t-74 32t-90.5 19.5t-93.5 10.5t-83 4.5t-60 1q-67 0 -132.5 -13t-118 -35.5t-86.5 -52t-38 -63t27 -68.5t109 -68q15 -6 22.5 -15t8.5 -17.5t-5.5 -13.5t-21.5 -3q-36 5 -76 15
t-77.5 29t-69.5 49.5t-52 77.5q-25 60 -14 114t62 97t144.5 71t233.5 36q46 2 102 -0.5t115 -12t118 -27t111 -46t93 -67.5t64 -92q31 -71 21.5 -129t-47 -103t-95.5 -78.5t-122.5 -56.5t-129 -35.5t-114.5 -16.5q37 -50 79.5 -108.5t88 -120t92.5 -123t92.5 -117.5
t87.5 -104t77 -81z" />
    <glyph glyph-name="T" unicode="T" horiz-adv-x="489" 
d="M335 952q90 1 165 -8t139 -25.5t117.5 -39t100.5 -48.5q16 -9 23 -21t6 -22t-11 -14.5t-29 2.5q-43 16 -83 27.5t-80 19t-81.5 11t-87.5 4.5q-41 -35 -82 -104.5t-76.5 -159.5t-62.5 -193t-40 -203.5t-8.5 -190.5t32.5 -155q3 -8 4 -15.5t-2 -11.5t-11 -3.5t-22 8.5
q-34 19 -62.5 41.5t-50.5 45t-36.5 42t-18.5 31.5q-18 47 -15 116t20.5 148.5t46.5 165t64.5 165.5t75 150t76.5 119q-47 -5 -99 -19t-100 -35.5t-89 -49.5t-68 -60.5t-36 -69t7 -74.5q10 -22 24.5 -43t40.5 -29q13 -4 20.5 -13t9 -18t-4 -15t-19.5 -4q-19 1 -50.5 7
t-66 21.5t-67.5 44.5t-55 77q-29 65 -27 119t30 98t80 77t122 55.5t155.5 34.5t181.5 14z" />
    <glyph glyph-name="Y" unicode="Y" horiz-adv-x="1098" 
d="M350 -321q48 0 90.5 20t80 55.5t70 84.5t61.5 108q-41 8 -75.5 11.5t-62.5 2.5q-43 -1 -86.5 -10t-82.5 -24.5t-71.5 -36.5t-53 -46.5t-28 -53.5t4.5 -58q7 -18 22.5 -28.5t36.5 -16t45.5 -7t48.5 -1.5zM962 905q6 16 28.5 22.5t46 5.5t41 -10t14.5 -24
q-11 -46 -21 -112.5t-22.5 -146t-28.5 -169t-37 -181t-48 -182.5t-63 -174q49 -30 102 -69q10 -7 13.5 -15t2 -13.5t-8 -8t-17.5 1.5q-28 17 -56.5 31.5t-57.5 26.5q-36 -74 -79.5 -137.5t-97.5 -110t-120 -71.5t-146 -22q-65 3 -114 18t-84 40t-57.5 57t-34.5 68
q-19 60 -8.5 116.5t53.5 100.5t121 72.5t194 32.5q115 -1 209 -31q44 104 78.5 220t63.5 228q-38 -70 -78.5 -135t-84 -115.5t-89.5 -80.5t-93 -30q-50 0 -88 19t-65 45t-43 54t-22 46q-17 48 -8.5 101.5t32 108t57.5 108.5t69 105t67 97t51 84q-45 4 -105.5 -16t-125 -55
t-125 -80.5t-105 -93.5t-66 -94t-6.5 -82q10 -22 25 -43t41 -29q13 -4 20.5 -13t9 -18t-4 -15t-19.5 -4q-20 1 -51 7t-65.5 21.5t-67.5 44.5t-55 77q-24 53 -17 102.5t37 93t79.5 82t111 70t131 55.5t139.5 39.5t137.5 22t123.5 3.5q61 -4 78 -25t5 -51q-4 -10 -20 -43.5
t-38 -81.5t-47.5 -106.5t-48 -117.5t-40 -115t-24 -99.5t1 -71t34.5 -28.5q22 -1 56.5 24.5t74.5 68t82.5 97t81.5 111t71 109.5t52 94q17 63 34 111.5t34 77.5z" />
    <glyph glyph-name="Z" unicode="Z" horiz-adv-x="1372" 
d="M510 -284q87 -1 160 19.5t133.5 55.5t108 81t82.5 97q-51 49 -115 83t-133.5 54.5t-141 27t-136 0t-119 -25.5t-90.5 -50.5t-50 -75t2 -98.5q10 -33 35 -63.5t63 -53.5t88.5 -36.5t112.5 -14.5zM509 784q9 -26 28 -38t41 -14q32 -3 66.5 8.5t70 30.5t72.5 41.5t75.5 42.5
t77.5 34t80 15q39 2 74.5 -21t59.5 -71q23 -50 14 -95t-35 -88.5t-61.5 -85.5t-65.5 -86q11 1 22 1h22q24 0 50 -10t50.5 -27t46 -39.5t36.5 -49.5q21 -44 26 -95.5t-4.5 -105.5t-32.5 -109.5t-59 -107.5q29 -35 42 -74.5t13.5 -78t-10.5 -73.5t-31.5 -61t-49.5 -40t-63 -11
q-15 1 -25 7.5t-13.5 14t0.5 14.5t16 10q22 6 37.5 26t22 48.5t4 62.5t-14.5 67q-46 -47 -102.5 -87.5t-122 -70t-140.5 -46.5t-159 -18q-92 -1 -172 23.5t-142.5 65t-103.5 91t-56 100.5q-19 70 -3 126t58 96.5t105.5 66t140.5 35.5t162 5.5t169.5 -25t164.5 -56t147 -86.5
q20 40 31 82t13.5 81t-2 72t-14.5 55q-11 20 -28.5 29.5t-32.5 9.5q-31 0 -53 -16.5t-36 -30.5q-8 -6 -24.5 -2t-33.5 13.5t-29.5 21.5t-10.5 22q3 27 28 68t59 86.5t70.5 90.5t62 81t33.5 58t-14 21t-51.5 -16.5t-66 -38.5t-79.5 -49t-92 -47.5t-103.5 -35t-114.5 -10.5
q-23 1 -49 9t-51.5 24.5t-48 41t-37.5 58.5q-14 32 -14 60t12 49t35.5 33.5t55.5 12.5q15 0 32 -2.5t35 -10.5q20 -9 20.5 -20.5t-12.5 -13.5q-1 0 -5.5 -3.5t-8.5 -9.5t-6 -15t2 -20z" />
    <glyph glyph-name="U" unicode="U" horiz-adv-x="1167" 
d="M984 896q11 16 33.5 22.5t45.5 2.5t40.5 -17t19.5 -36q-11 -22 -24.5 -67t-26.5 -105.5t-25 -133t-20.5 -150t-13 -156.5t-2 -152t12.5 -137t30 -111q3 -8 4 -15.5t-2 -11t-10.5 -3t-21.5 8.5q-34 19 -65.5 43t-56 47.5t-40.5 44.5t-20 33q-11 36 -15.5 83t-4 100.5
t6 112t14.5 117.5q-26 -64 -56 -129.5t-65 -127t-76 -115t-89.5 -93t-105 -62t-122.5 -21.5q-50 0 -88 19t-65 45.5t-43 54t-22 45.5q-12 36 -6.5 85.5t23.5 107t46 120t61 125.5t68 123.5t66.5 114t57 97t39.5 71.5q-44 4 -101 -10.5t-114.5 -41.5t-111 -63.5t-91 -77
t-54.5 -81t-2 -76.5q9 -22 24 -43t41 -29q13 -4 20.5 -13t9 -18t-4 -15t-19.5 -4q-20 1 -51 7t-65.5 21.5t-67.5 44.5t-55 77q-32 71 -14.5 129.5t68 104t127.5 78.5t163.5 53.5t175.5 28t164 3.5q61 -4 78 -25t5 -51q-4 -10 -23.5 -54t-47.5 -109.5t-61 -145.5t-64 -162
t-56.5 -159.5t-38 -138t-9 -97.5t29.5 -37q47 -1 95 24t94 67.5t90 99t84 118.5t75 126t63.5 121.5t50 105t34.5 76.5q19 62 38.5 110t38.5 76z" />
    <glyph glyph-name="M" unicode="M" horiz-adv-x="1604" 
d="M534 -14q1 -23 0 -37.5t-7.5 -18.5t-21.5 4t-42 29q-18 14 -40.5 33.5t-42.5 40t-33.5 40.5t-13.5 36q-3 72 12.5 162.5t48.5 186t83.5 189.5t118.5 172q-44 4 -99.5 -14t-111 -50t-106.5 -74.5t-86.5 -87.5t-51 -89.5t-0.5 -79.5q9 -22 26 -45t44 -28q13 -2 21 -10
t10 -15.5t-3.5 -13t-19.5 -3.5q-19 1 -48 6t-60.5 19.5t-61.5 42.5t-51 76q-24 54 -15 103.5t41 93.5t83 82.5t110 69t121 53t117.5 35.5t99 16t65.5 -6q54 -22 69 -56.5t3 -64.5q-15 -39 -33.5 -85t-37 -94.5t-35.5 -97t-30 -92.5h3q39 82 96.5 163.5t121.5 150.5
t129 118.5t119 66.5q42 13 73.5 5t52.5 -26t31.5 -41t10.5 -39q-1 -13 -13.5 -34t-32 -50.5t-43 -66.5t-47 -80.5t-43.5 -94.5t-31 -107q26 65 63.5 127.5t81 119t91 105t92 85.5t84.5 61.5t69 32.5q43 12 76.5 4t55 -26t31.5 -39.5t6 -36.5q-5 -18 -29 -67t-54 -121
t-58.5 -162t-42 -190t-4 -205t55.5 -206q4 -10 8.5 -19t3.5 -15t-8.5 -7t-26.5 6q-35 13 -82 35t-89 58q-19 17 -27 36.5t-15 45.5q-19 74 -19.5 147.5t11.5 142.5t33.5 133t46.5 119.5t49.5 101t42.5 77.5t26.5 50t1.5 19q-14 1 -46 -19t-72.5 -55.5t-87 -84.5t-90 -106
t-80.5 -119t-59.5 -124.5t-26.5 -122t18 -111.5q4 -10 8 -19.5t3.5 -15.5t-7.5 -7t-26 7q-15 6 -33 15.5t-36.5 21.5t-36 26t-31.5 29q-18 18 -27.5 34t-11.5 41q-8 88 12 168t52 149t70 126t67 99t42 67t-4 31q-24 8 -63 -13t-85 -63t-96 -101.5t-96.5 -127.5t-86.5 -141
t-66 -143.5t-34.5 -133.5t7.5 -112z" />
    <glyph glyph-name="N" unicode="N" horiz-adv-x="972" 
d="M347 -14q1 -23 0 -37.5t-7.5 -18.5t-21.5 4t-42 29q-18 14 -40.5 33.5t-42.5 40t-33.5 40.5t-13.5 36q-3 72 12.5 162.5t48.5 186t83.5 189.5t118.5 172q-44 4 -99.5 -14t-111 -50t-106.5 -74.5t-86.5 -87.5t-51 -89.5t-0.5 -79.5q9 -22 26 -45t44 -28q13 -2 21 -10
t10 -15.5t-3.5 -13t-19.5 -3.5q-19 1 -48 6t-60.5 19.5t-61.5 42.5t-51 76q-24 54 -15 103.5t41 93.5t83 82.5t110 69t121 53t117.5 35.5t99 16t65.5 -6q54 -22 69 -56.5t3 -64.5q-15 -38 -32 -81t-34.5 -88.5t-34 -91.5t-29.5 -89q56 89 119.5 171.5t127 148.5t123 111
t106.5 58q43 12 74 2t50.5 -30t27 -43.5t3.5 -38.5q-3 -14 -18 -45t-36 -77t-44.5 -104t-43.5 -125t-34 -140.5t-16 -150.5t11.5 -155.5t47.5 -154.5q4 -10 8.5 -19t4 -15t-8 -7t-26.5 6q-35 13 -82 35.5t-89 58.5q-19 17 -27.5 30.5t-15.5 39.5q-24 100 -16.5 197.5
t31.5 185t58 163t63 131t46.5 88.5t8.5 37q-16 7 -44.5 -11t-63.5 -53t-74.5 -84t-79.5 -105t-77 -115.5t-67 -115t-50 -104t-26 -82.5q-5 -51 -1.5 -84.5t2.5 -50.5z" />
    <glyph glyph-name="V" unicode="V" horiz-adv-x="961" 
d="M290 -144q-56 0 -93.5 17t-61 39.5t-35 44.5t-15.5 31q-17 39 -14.5 91.5t18 113.5t41.5 127.5t57.5 133t65 130t64.5 119t56.5 100.5t39.5 73q-45 4 -101.5 -10.5t-114 -41.5t-110.5 -63.5t-91 -77t-55 -81t-2 -76.5q10 -22 24.5 -43t40.5 -29q13 -4 20.5 -13t9 -18
t-4 -15t-19.5 -4q-19 1 -50.5 7t-66 21.5t-67.5 44.5t-55 77q-32 71 -14.5 129.5t68 104t127.5 78.5t163.5 53.5t175.5 28t164 3.5q61 -4 78 -25t5 -51q-4 -10 -22.5 -55t-44.5 -111.5t-56 -148t-58.5 -165t-51 -162.5t-33 -141t-6 -99.5t31.5 -37.5q53 -1 103.5 35.5
t97.5 98.5t88.5 143t75 168.5t58.5 175.5t39 164t15 134t-12 85q-10 20 0 28t30 -7q29 -23 57 -52t49 -59t33 -59t9 -51q-9 -75 -36 -171.5t-69.5 -196.5t-100 -196.5t-126.5 -171.5t-149.5 -121t-169.5 -46z" />
    <glyph glyph-name="W" unicode="W" horiz-adv-x="1508" 
d="M1495 765q-8 -46 -24.5 -109t-41 -135.5t-56.5 -150t-72 -151.5t-87.5 -140t-103 -115.5t-118.5 -78.5t-134 -29q-59 0 -96 26t-61 83q-7 17 -11.5 35t-6.5 37q-71 -78 -143.5 -125.5t-141.5 -47.5q-56 0 -94 16t-62 37t-36 41.5t-16 29.5q-17 39 -14.5 91.5t17.5 113.5
t41.5 127.5t57.5 133t65 130t65 119t56.5 100.5t39.5 73q-44 4 -101 -10.5t-114.5 -41.5t-111 -63.5t-91.5 -77t-55 -81t-2 -76.5q10 -22 25 -43t41 -29q13 -4 20.5 -13t9 -18t-4 -15t-19.5 -4q-20 1 -51 7t-65.5 21.5t-67.5 44.5t-55 77q-32 71 -14.5 129.5t68 104
t127.5 78.5t163.5 53.5t175.5 28t164 3.5q61 -4 78 -25t5 -51q-4 -10 -22 -54.5t-44 -110.5t-55.5 -147t-57 -164t-49.5 -162t-32 -140.5t-5 -99.5t32 -39q38 -2 78.5 31.5t81 91.5t80 135.5t74 162.5t63 173t47.5 167.5t28 145.5t4 107q-2 20 11.5 19.5t32.5 -15.5
q30 -23 55.5 -49.5t44.5 -53.5t28.5 -53.5t6.5 -48.5q-9 -71 -37.5 -158.5t-72.5 -180.5q-30 -89 -54 -175t-36 -153.5t-8.5 -109t29.5 -39.5q59 3 111.5 45t97.5 109.5t82 153t66.5 175.5t50.5 178t34 160t17.5 121t0.5 62q-7 20 1.5 28t28.5 -7q29 -23 55.5 -51t46 -57
t30 -57t7.5 -50z" />
    <glyph glyph-name="X" unicode="X" horiz-adv-x="991" 
d="M919 1138q16 11 30 12.5t31 1.5q22 0 46 -7.5t47.5 -23.5t43.5 -39.5t35 -55.5q23 -51 7 -109.5t-58.5 -121t-105 -126.5t-133 -125t-143 -117t-135.5 -102q-4 -71 -6.5 -138.5t2 -121t17 -88.5t38.5 -41q17 -4 60.5 18t96 69.5t106 119.5t91.5 167q3 8 12 7.5t17.5 -6
t13.5 -14t1 -15.5q-35 -116 -87 -202t-111 -143t-120.5 -85t-114.5 -26q-53 1 -83 33.5t-47 84t-25 117t-17 132.5q-44 -41 -77 -87t-54.5 -94t-30.5 -96.5t-4 -95.5q1 -14 -3 -20.5t-26 2.5t-43 22t-39 29t-31 34t-19 38q-15 44 2 90.5t59 97t107.5 104t148.5 110.5
q-3 84 1.5 168t13.5 154.5t20.5 118.5t23.5 60q-62 -7 -122.5 -39t-114 -77.5t-98 -99.5t-73.5 -106t-41 -97.5t0 -72.5q8 -17 20.5 -33t37.5 -22q26 -5 28 -18.5t-22 -19.5q-20 -5 -52 -1.5t-65.5 17t-64 38t-46.5 60.5q-25 54 -11 115t57.5 122t112 117t153.5 100t182 71
t197 30q29 1 46.5 -4.5t26.5 -15.5t10 -24.5t-2 -30.5q-5 -24 -9.5 -64t-9.5 -89.5t-10.5 -105.5t-11.5 -111q36 34 81 86t90.5 112.5t87.5 124t72 121t43.5 103t2.5 69.5q-5 11 -14.5 15t-18.5 6q-19 4 -23.5 16t3.5 18z" />
    <glyph glyph-name="S" unicode="S" horiz-adv-x="1084" 
d="M916 686q-11 -19 -21.5 -13.5t-21.5 22.5q-14 21 -45 38.5t-77 30t-104.5 19t-127.5 6.5q-60 0 -113.5 -6t-93 -16.5t-60.5 -25t-15 -30.5q7 -21 51 -33.5t109.5 -27.5t143.5 -37t154.5 -61.5t142.5 -101.5t106 -157q49 -115 34 -218t-84 -180.5t-187 -122.5t-276 -44
q-99 1 -186 20t-159 57.5t-126.5 97.5t-86.5 140q-24 62 -19 122t42 108t107.5 80.5t176.5 40.5q50 5 113 3t127.5 -21.5t123.5 -62t102 -117.5q6 -9 3.5 -15t-9 -6.5t-16.5 4.5t-20 17q-34 43 -85.5 64.5t-106 30t-105.5 6.5t-83 -7q-61 -9 -109 -32.5t-79.5 -54.5t-45 -66
t-5.5 -67q11 -44 37.5 -76t62.5 -54t77 -36t80.5 -21.5t73.5 -10t55 -2.5q68 0 138 14t133.5 40t116.5 63.5t85.5 85t41.5 103.5t-15 120q-17 44 -56 74.5t-92 52t-116.5 37.5t-129 30.5t-129 31.5t-117.5 40t-94 56t-58 80q-16 42 -1.5 83t61 74t126.5 54t197 23
q45 0 94.5 -3.5t97.5 -10.5t92 -16.5t78.5 -20.5t57 -23.5t28.5 -25.5q20 -45 21 -81t-15 -65z" />
    <glyph glyph-name="L" unicode="L" horiz-adv-x="1047" 
d="M491 804q15 -6 21.5 -15t6.5 -16.5t-8 -11.5t-23 1q-26 9 -68 17.5t-89.5 13.5t-94 5t-81 -8t-51.5 -26.5t-3 -50.5q10 -23 35 -41t60 -31.5t78.5 -22.5t89 -14.5t90.5 -8t84 -1.5h16q9 0 17 1q30 74 62 141t68.5 119t78 84t91.5 36q31 3 63 -2t59.5 -17.5t49 -34
t34.5 -51.5q32 -78 17.5 -143.5t-65 -115.5t-131 -82.5t-179.5 -44.5q-20 -63 -39 -128t-41.5 -127t-49 -120t-61.5 -106q24 -11 44.5 -19t41.5 -14t44.5 -9t54.5 -2q36 1 66 6.5t54.5 18t46 33.5t43.5 53q5 8 13 6.5t15.5 -9t13 -18.5t7.5 -21q4 -38 -12 -75t-45.5 -66.5
t-69 -48t-82.5 -18.5q-49 0 -91 8.5t-80 22.5t-74.5 32.5t-72.5 38.5q-46 -42 -102 -64t-124 -20q-76 2 -132 25t-91 56.5t-48 72.5t-2 72t47.5 55t100.5 22q80 0 144 -19.5t121 -46.5q23 38 44.5 85t42 99.5t41.5 108.5t41 113q-95 3 -177.5 18t-147 42.5t-109.5 68
t-65 94.5q-19 51 -7 84.5t44 51.5t81 23t106.5 -1t119 -21.5t118.5 -36.5zM927 880q-29 -5 -53.5 -26t-46 -54.5t-40.5 -77.5t-37 -95q68 23 114.5 56t89.5 66q8 7 16.5 21t14.5 30t7.5 32.5t-4 28.5t-20 18t-41.5 1zM195 -48q29 -3 55 9t51 36q-31 12 -64.5 20t-69.5 10
q-40 2 -64.5 -6.5t-25 -21.5t27 -26.5t90.5 -20.5z" />
    <glyph glyph-name="O" unicode="O" horiz-adv-x="1004" 
d="M344 973q11 5 28 -12.5t34 -45.5q49 26 95 32q52 7 103 -1.5t97 -32t84 -62t64 -90.5q44 -90 59 -173t9 -160t-28 -149t-52 -139q-33 -72 -83.5 -132t-109.5 -104t-122.5 -70.5t-121.5 -30.5q-65 -5 -126.5 5t-116 38t-99.5 75.5t-78 116.5q-43 91 -48.5 187t16 190
t64.5 181.5t97.5 161.5t115.5 129.5t119 85.5zM522 345q-11 -37 -36.5 -60t-59.5 -31.5t-72 -3.5t-73.5 23.5t-65.5 50.5t-46 76l-2 5q-26 -53 -45.5 -111t-28 -115.5t-3 -111.5t29.5 -99q16 -29 37 -45.5t42.5 -24t42.5 -8.5t36 0q58 4 115 32.5t109.5 75t98.5 108
t83 130.5t62.5 142.5t36.5 144.5t5.5 136t-30.5 117q-25 53 -61.5 72.5t-78 14t-85.5 -32t-84.5 -65t-74.5 -85.5t-55.5 -94t-27.5 -89.5t9 -72.5t39.5 -43.5t50 -15.5t47.5 4.5t33 15.5q9 7 19.5 6.5t19 -7t12.5 -17t1 -22.5z" />
    <glyph glyph-name="Q" unicode="Q" horiz-adv-x="1004" 
d="M344 973q11 5 28 -12.5t34 -45.5q49 26 95 32q52 7 103 -1.5t97 -32t84 -62t64 -90.5q44 -90 59 -173t9 -160t-28 -149t-52 -139q-33 -72 -83.5 -131.5t-110 -103.5t-123.5 -70t-122 -30q-23 -2 -46 -1.5t-46 2.5q43 -23 86 -50t85 -50.5t82 -39.5t76 -17q12 0 30 1.5
t37.5 5.5t37.5 11.5t30 18.5q6 6 13 5.5t13.5 -4.5t11 -12t5.5 -17q1 -16 -2.5 -43.5t-18.5 -54t-45 -45.5t-82 -19q-72 0 -137 28.5t-124.5 67.5t-112.5 81.5t-100.5 71.5t-89 37t-77.5 -22q-6 -5 -15 -3t-15.5 8t-10 14t0.5 15q20 36 57 51t93 15q-48 29 -87 73t-68 107
q-43 91 -48.5 187t15.5 189.5t64.5 181t98.5 161t116 129t119 85.5zM522 345q-11 -37 -36.5 -60t-59.5 -31.5t-72 -3.5t-73.5 23.5t-65.5 50.5t-46 76l-2 5q-26 -53 -46 -111t-28.5 -115t-3.5 -110.5t29 -98.5q16 -29 37 -45.5t43 -24t42.5 -8.5t35.5 0q58 4 115 32.5
t109.5 75t99 107.5t83.5 130t63 142.5t37 144t5.5 135.5t-30.5 117q-25 53 -61.5 72.5t-78 14t-85.5 -32t-84.5 -65t-74.5 -85.5t-55.5 -94t-27.5 -89.5t9 -72.5t39.5 -43.5t50 -15.5t47.5 4.5t33 15.5q9 7 19.5 6.5t19 -7t12.5 -17t1 -22.5z" />
    <glyph glyph-name="a.fina" horiz-adv-x="849" 
d="M212 127q-16 -26 -33.5 -50.5t-36.5 -42.5t-39.5 -28.5t-42.5 -9.5q-32 2 -53.5 24t-33.5 57t-14 79t5 89.5t24 87.5t43 74t61.5 49.5t80.5 13.5q66 -7 98.5 -32t44.5 -52q4 -11 0.5 -27t-11 -26.5t-15.5 -10.5t-12 21q-6 27 -34 28q-25 2 -51 -14t-54 -62
q-11 -19 -21 -53t-16 -67t-5.5 -57.5t9.5 -24.5q5 0 18 17.5t29.5 43.5t34 55.5t31.5 54.5q7 21 15.5 33.5t19.5 11.5q9 -1 26.5 -12t34.5 -26t29 -29t10 -21q-1 -7 -5 -29t-6.5 -50.5t-3 -60t5 -58t18.5 -43.5t37 -17q51 0 94.5 23.5t70 66t29 102t-29.5 130.5
q-16 35 -38 57.5t-37 33.5q-23 17 -21 30t30 15q33 2 67 -7t64.5 -27t54.5 -44.5t38 -57.5q36 -84 25.5 -157t-55.5 -126.5t-117 -81.5t-159 -21q-52 4 -90 25t-63 52.5t-37.5 70.5t-13.5 80z" />
    <glyph glyph-name="d.fina" horiz-adv-x="896" 
d="M361 139q-7 -30 -6.5 -61.5t8 -57t21 -41.5t31.5 -16q51 0 99.5 23t80 65t39 100.5t-24.5 129.5q-16 35 -37.5 57.5t-36.5 33.5q-24 17 -21.5 30t29.5 15q34 2 68 -7t64 -27t54 -44.5t38 -57.5q37 -84 21.5 -156.5t-66 -125t-127.5 -80t-164 -20.5q-52 4 -90.5 27.5
t-64 58t-39 75.5t-14.5 82q-16 -29 -34.5 -56t-39 -47t-42.5 -32t-46 -11q-32 2 -53.5 24t-33.5 57t-14 79t5 89.5t24 87.5t43 74t61.5 49.5t80.5 13.5q31 -3 53.5 -10.5t39.5 -18.5q11 37 21.5 73t21.5 69q11 35 6 72.5t-17 65.5q-4 9 8 7.5t28 -6.5q10 -3 24 -9.5
t29.5 -16.5t29.5 -22.5t24 -25.5q17 -23 20.5 -53t-2.5 -62q-2 -11 -8 -35.5t-14 -57.5t-18.5 -71.5t-20.5 -78.5t-20 -79t-18 -72zM107 93q6 0 21.5 22.5t35 53.5t39 64.5t31.5 56.5q3 20 7 40t9 40q-41 0 -66 -22t-44 -53q-11 -19 -21 -53t-16 -67t-5.5 -57.5t9.5 -24.5z
" />
    <glyph glyph-name="g.fina" horiz-adv-x="777" 
d="M648 258q24 -64 12.5 -111t-44 -82t-78 -60.5t-89.5 -44.5q-25 -11 -52.5 -21t-56.5 -21l5 -199q1 -47 -12.5 -79t-36.5 -51t-54 -27t-65 -8q-30 0 -58 10t-51.5 27.5t-41 40t-27.5 46.5q-19 45 -8.5 83.5t41.5 71.5t76 61.5t95 52.5q-3 40 -6.5 79.5t-5.5 77.5
q-15 -23 -31 -43t-33.5 -34.5t-36.5 -23t-38 -7.5q-32 2 -53.5 24t-33.5 57t-14 79t5 89.5t24 87.5t43 74t61.5 49.5t80.5 13.5q66 -7 98.5 -32t44.5 -52q4 -11 0.5 -27t-11 -26.5t-15.5 -10.5t-12 21q-6 27 -34 28q-25 2 -51 -14t-54 -62q-11 -19 -21 -53t-16 -67
t-5.5 -57.5t9.5 -24.5q4 0 15 14t25 35.5t29.5 47.5t29.5 51q2 10 6 22t10.5 22t16 17t24.5 7q9 0 23 -11t27.5 -25.5t22.5 -29.5t8 -22l4 -212q15 7 29 13.5t27 13.5q28 15 54 36t43 48.5t21.5 62t-8.5 77.5q-6 18 -16 32.5t-21.5 25.5t-22.5 18.5t-19 12.5
q-23 16 -21.5 29t27.5 18q33 4 66.5 -6.5t63 -30t52.5 -46t34 -55.5zM216 -228q-1 22 -2.5 45.5t-3.5 47.5q-39 -17 -72 -36.5t-55.5 -41.5t-31.5 -47.5t0 -55.5q8 -27 33 -46.5t61 -19.5q27 0 41.5 14t21.5 36t8 49.5t0 54.5z" />
    <glyph glyph-name="h.fina" horiz-adv-x="883" 
d="M267 720q-19 0 -41 -55t-48 -153q37 24 61 59.5t35 68.5t9 56.5t-16 23.5zM441 -101q-62 5 -105 35.5t-68.5 74t-35 93t-5.5 92.5q3 32 9 66t10.5 62t6 46.5t-4.5 18.5q-9 0 -22 -7.5t-28 -20t-31 -29.5t-29 -36q-21 -119 -29.5 -174.5t-8.5 -60.5q0 -7 1.5 -24t3.5 -26
q3 -13 -22 -16t-60 8q-26 8 -46.5 28t-23.5 44q-3 18 -0.5 46.5t8 61.5t12.5 68t14 65.5t12.5 53t7.5 31.5q14 56 33 122.5t45 123.5t61 94.5t82 37.5q38 -1 63 -20t37 -47q16 -39 3 -78.5t-40.5 -74.5t-62 -63t-60.5 -43l-10 -53q13 13 30 26t35.5 23t39.5 15t44 3
q38 -4 58 -20t28.5 -40t7 -54t-7 -61.5t-12 -63.5t-9.5 -59q-1 -14 -3 -34.5t-2.5 -43t2 -45t8.5 -40.5t17.5 -29.5t30.5 -11.5q51 0 99.5 23t80 65t39 100.5t-24.5 129.5q-16 35 -37.5 57.5t-36.5 33.5q-24 17 -21.5 30t29.5 15q34 2 68 -7t64 -27t54 -44.5t38 -57.5
q37 -84 21.5 -156.5t-66 -125t-127.5 -80t-164 -20.5z" />
    <glyph glyph-name="m.fina" horiz-adv-x="1149" 
d="M607 202q-5 -12 -9 -34.5t-6 -49t-0.5 -54t8 -50t19.5 -37t34 -14.5q51 0 97.5 23t75.5 65t34.5 100.5t-26.5 129.5q-16 35 -37.5 57.5t-36.5 33.5q-24 17 -21.5 30t29.5 15q34 2 68 -7t64 -27t54 -44.5t38 -57.5q37 -84 21.5 -156.5t-66 -125t-127.5 -80t-164 -20.5
q-50 4 -86.5 22.5t-62 46.5t-40 63t-19.5 71.5t-1.5 72t14.5 65.5q9 30 19.5 58t16.5 49t4.5 33.5t-16.5 13.5q-9 0 -21 -6t-25.5 -17.5t-27.5 -27.5t-27 -35q-5 -33 -16 -62.5l-22 -59t-20 -60.5t-11 -67q-1 -7 -1.5 -24t1.5 -26q2 -13 -23 -16t-60 8q-26 8 -44.5 28
t-19.5 44q-1 14 6.5 42.5t17.5 64t21.5 73t19.5 68.5t10 51t-6 21q-12 0 -27 -8t-30.5 -22t-31 -33.5t-27.5 -42.5q-4 -20 -9.5 -38.5t-10.5 -35.5q-18 -61 -27.5 -98.5t-11.5 -55.5q-1 -7 -1.5 -24t1.5 -26q2 -13 -23 -16t-58 8q-26 8 -44.5 28t-19.5 44q-1 17 6 46
t17.5 64t22 74t19 77.5t9.5 74t-7 63.5q-3 10 16 6t44 -16.5t48 -29.5t27 -33l4 -23q35 41 74 65.5t71 24.5q55 0 82 -23t35 -59q33 37 67.5 60t63.5 23q57 0 84 -25.5t34 -64.5t-2 -86t-25 -89z" />
    <glyph glyph-name="n.fina" horiz-adv-x="892" 
d="M406 -101q-51 4 -87 23.5t-60 48t-37.5 64.5t-18 72.5t-2 71t9.5 61.5q9 30 16.5 58t11 49t3 34t-6.5 13q-19 1 -49 -25t-55 -65q-3 -26 -9.5 -48t-12.5 -43q-18 -61 -27.5 -98.5t-11.5 -55.5q-1 -7 -1.5 -24t1.5 -26q2 -13 -23 -16t-58 8q-26 8 -44.5 28t-19.5 44
q-1 17 6 46t17.5 64t22 74t19 77.5t9.5 74t-7 63.5q-3 10 16 6t44 -16.5t48 -29.5t27 -33q3 -11 3 -19q35 38 70 62.5t66 24.5q57 0 83.5 -25t32.5 -64t-2.5 -86t-22.5 -90q-4 -10 -7.5 -31.5t-5.5 -48t-1.5 -55t7 -51.5t19 -38t34.5 -15q51 0 97.5 23t75.5 65t34.5 100.5
t-26.5 129.5q-16 35 -37.5 57.5t-36.5 33.5q-24 17 -21.5 30t29.5 15q34 2 68 -7t64 -27t54 -44.5t38 -57.5q37 -84 21.5 -156.5t-66 -125t-127.5 -80t-164 -20.5z" />
    <glyph glyph-name="o.fina" horiz-adv-x="824" 
d="M285 398q-36 0 -66.5 -25t-54.5 -62t-40 -81t-23 -81.5t-3.5 -63t19.5 -26.5q21 -2 45 15.5t56 59.5q-16 20 -23 40t-8.5 39.5t1.5 38.5t9 36q3 11 12 25.5t22 26.5t29.5 17.5t34.5 -1.5q34 -13 49.5 -35.5t16.5 -51t-11 -61t-31 -66.5q17 -6 38.5 -8.5t37.5 -2.5
q54 0 84.5 27t41.5 67t5.5 86t-23.5 84q-17 35 -38.5 57.5t-36.5 33.5q-23 17 -21 30t30 15q34 2 65 -6.5t57.5 -26.5t47.5 -44t36 -57q26 -56 24 -114t-29 -106t-77.5 -80t-122.5 -35q-34 -2 -73 4t-79 27l-12 -17q-25 -32 -67.5 -58.5t-95.5 -29.5q-43 -2 -73.5 17.5
t-48.5 53t-24 77t-1.5 89t20 90t40.5 79t59.5 56t77.5 22.5q9 0 26 -2.5t36.5 -7.5t38.5 -14.5t33 -22.5q14 -14 15 -20.5t-25 -6.5z" />
    <glyph glyph-name="p.fina" horiz-adv-x="800" 
d="M29 425q7 -3 17.5 -9.5t21.5 -15.5t22 -18.5t20 -18.5q14 32 43.5 52.5t88.5 22.5q52 -1 80.5 -24t42.5 -57q13 -34 10.5 -77.5t-17 -88t-39 -85t-54.5 -68.5q19 -8 45 -12t50 -4q69 0 109 26.5t58 63.5t17.5 77t-11.5 67q-14 35 -37 57.5t-38 33.5q-23 17 -21 30t30 15
q34 2 65.5 -6.5t58.5 -26.5t48 -44t34 -57q24 -58 10.5 -112.5t-54.5 -97t-106 -68t-145 -25.5q-49 0 -89 13t-79 34q-25 -9 -58 -7.5t-69 22.5q-8 -66 -14 -128.5t-11 -113.5t-7.5 -86.5t-2.5 -48.5q-4 -7 -24.5 7t-43 35t-41 42.5t-18.5 30.5q3 83 11.5 160.5t19 158
t21.5 167.5t20 189q1 8 11 5t25 -10zM115 252q-5 -26 -8.5 -52.5t-6.5 -53.5q17 -4 28 -8.5t19.5 -10.5t16 -12.5t16.5 -14.5q21 29 36 67t19.5 74t-4.5 65t-36 41q-13 5 -24.5 -1t-22 -19.5t-19 -33t-14.5 -41.5z" />
    <glyph glyph-name="q.fina" horiz-adv-x="777" 
d="M53 -149q-15 -4 -25 4.5t-12 21.5t4.5 27t24.5 22q22 8 46 18.5t49 21.5q6 22 11 43.5t10 43.5q-23 -26 -48 -42.5t-53 -14.5q-32 2 -53.5 24t-33.5 57t-14 79t5 89.5t24 87.5t43 74t61.5 49.5t80.5 13.5q66 -7 98.5 -32t44.5 -52q4 -11 0.5 -27t-11 -26.5t-15.5 -10.5
t-12 21q-6 27 -34 28q-25 2 -51 -14t-54 -62q-11 -19 -21 -53t-16 -67t-5.5 -57.5t9.5 -24.5q10 0 27.5 28t37.5 65t40 74.5t37 55.5q7 8 24 -1.5t33.5 -27t28 -36.5t9.5 -30q-11 -48 -21 -92.5t-20 -86.5l75 38q28 15 53.5 36t42.5 48.5t21.5 62t-8.5 77.5q-6 18 -16 32.5
t-21 25.5t-22.5 18.5t-18.5 12.5q-23 16 -22 29t28 18q32 4 65.5 -6.5t63 -30t52.5 -46t34 -55.5q16 -43 16 -77.5t-12.5 -63.5t-34.5 -52t-49.5 -42t-58 -34.5t-59.5 -28.5q-31 -13 -70 -26.5t-82 -28.5q-23 -95 -42 -185.5t-30 -189.5q-3 -4 -13.5 1t-25 16t-31 25.5
t-29.5 29t-21 26t-7 17.5q8 37 18.5 89t24.5 112q-41 -17 -70 -39z" />
    <glyph glyph-name="r.fina" horiz-adv-x="757" 
d="M99 197q12 53 17.5 87t4 53.5t-10.5 28.5t-25 12l-45 -106q-3 -9 -12.5 -8t-18.5 7t-14 15.5t0 18.5l38 110q-9 5 -17 16t-13.5 24.5t-8.5 27.5t-2 26q1 14 6.5 31t16.5 32t27.5 24.5t39.5 8.5q32 -1 47 -13t19 -29.5t-0.5 -38t-12.5 -39t-17 -32.5t-13 -18
q22 6 54.5 8.5t61 -6t44.5 -31.5t5 -69q-1 -3 -8 -31.5t-15.5 -70t-14.5 -89t-5 -88.5t13 -68t41 -27q51 0 94.5 23.5t70 66t29 102t-29.5 130.5q-16 35 -38 57.5t-37 33.5q-23 17 -21 30t30 15q33 2 67 -7t64.5 -27t54.5 -44.5t38 -57.5q36 -84 25.5 -157t-55.5 -126.5
t-117 -81.5t-159 -21q-63 5 -106 34.5t-67 72.5t-30 93.5t5 97.5z" />
    <glyph glyph-name="s.fina" horiz-adv-x="624" 
d="M180 508q-13 -23 -27.5 -44t-31.5 -41q8 -23 21 -50.5t27.5 -57.5t29 -61t25.5 -61q37 -103 -31 -168q62 6 100.5 33.5t57.5 63t21 72.5t-8 62q-14 35 -37 57.5t-38 33.5q-23 17 -21 30t30 15q34 2 65.5 -6.5t58.5 -26.5t48 -44t34 -57q20 -50 7 -101t-55 -92.5t-110 -68
t-157 -26.5q-37 0 -76 6t-74.5 22t-64.5 45t-47 76q-8 21 -9.5 42t3.5 39t17 31.5t33 19.5q10 21 19.5 46.5t18 51t16 47.5t13.5 35q-7 48 -3 80.5t16 51.5t30 27t39 8t35.5 -10.5t22 -25t8 -29.5t-5.5 -25zM69 350q-11 -21 -21 -51.5t-23 -60.5q31 -19 39 -44
q6 -17 5 -27.5t-8 -21.5q-6 -6 -13.5 -7.5t-9.5 6.5q-5 16 -13 22.5t-15.5 3.5t-11 -14t1.5 -30q4 -17 12.5 -28.5t18 -19.5t18.5 -12t15 -4q24 -2 34.5 12.5t12 38.5t-3.5 55t-12.5 63.5t-15 63.5t-10.5 55z" />
    <glyph glyph-name="t.fina" horiz-adv-x="646" 
d="M-96 576q42 8 79.5 13.5t75.5 8.5q6 32 1 65t-16 58q-4 9 8 7.5t28 -6.5q10 -3 26 -11.5t32.5 -20t30 -23t18.5 -19.5q5 -10 7.5 -21.5t3.5 -23.5q79 -1 139 -9q12 -3 20 -9.5t9.5 -13t-2.5 -11t-16 -3.5q-18 1 -60 -1.5t-94 -7.5l-2 -6q-2 -10 -8 -37.5t-14 -65.5
t-16.5 -83.5t-16.5 -91t-14 -88.5t-8 -76q-2 -29 1 -53.5t10.5 -43.5t20 -29.5t30.5 -10.5q51 0 97.5 23t75.5 65t34.5 100.5t-26.5 129.5q-16 35 -37.5 57.5t-36.5 33.5q-24 17 -21.5 30t29.5 15q34 2 68 -7t64 -27t54 -44.5t38 -57.5q37 -84 21.5 -156.5t-66 -125
t-127.5 -80t-164 -20.5q-62 5 -103 31.5t-65.5 65t-34 82.5t-7.5 85q2 39 7.5 84.5t14.5 93.5t20.5 96.5t25.5 93.5q-48 -6 -83 -12t-46 -10q-9 -4 -16 4.5t-9.5 20.5t2 24.5t18.5 17.5z" />
    <glyph glyph-name="u.fina" horiz-adv-x="913" 
d="M253 105q-31 -51 -71 -83.5t-75 -32.5q-48 0 -78 24.5t-45.5 62.5t-18.5 84.5t5 90.5q3 21 10 47.5t13 55.5t9 57.5t-3 54.5q-2 9 8.5 7.5t25.5 -6.5q10 -3 28.5 -12.5t38 -22t35.5 -25.5t19 -21q1 -2 -2 -18t-8.5 -38.5t-11.5 -49t-11.5 -51t-9.5 -43t-5 -25.5
q-2 -17 -2 -34.5t1.5 -32t5.5 -23t12 -8.5q12 0 29.5 12t34.5 32t32.5 46t23.5 55q3 20 10 53t14.5 70t13 72.5t5.5 60.5q0 8 11 5t26 -10q10 -4 25 -14.5t30.5 -23.5t27.5 -26t16 -21q0 -28 -5 -60t-11 -65.5t-12 -67.5t-7 -65q-1 -29 2.5 -56.5t11.5 -49t21 -34.5t31 -13
q51 0 95 20t73 54t38 79.5t-11 95.5q-14 35 -37 57.5t-38 33.5q-23 17 -21 30t30 15q33 2 67.5 -7t65 -27t54.5 -44.5t37 -57.5q25 -63 6 -122.5t-69 -104t-125 -69t-162 -17.5q-52 4 -89 23.5t-61.5 48t-37 63.5t-15.5 71z" />
    <glyph glyph-name="y.fina" horiz-adv-x="841" 
d="M128 63q13 0 30.5 12.5t35.5 33t33 47.5t23 57q2 30 7 65t9 69.5t5.5 66t-4.5 54.5q-2 9 10 5.5t27 -10.5q10 -4 25.5 -14.5t30.5 -23.5t27.5 -26t15.5 -21q4 -11 4.5 -29t0 -39t-2.5 -42.5t-3 -38.5q-6 -101 -15 -203q19 8 36 15.5t31 15.5q28 15 54 36t43 48.5t21.5 62
t-8.5 77.5q-6 18 -16 32.5t-21.5 25.5t-22.5 18.5t-19 12.5q-23 16 -21.5 29t27.5 18q33 4 66.5 -6.5t63 -30t52.5 -46t34 -55.5q24 -64 12.5 -111t-43.5 -82t-78 -60.5t-89 -44.5q-29 -12 -62 -23.5t-68 -23.5l-17 -176q-8 -91 -51.5 -131t-112.5 -40q-30 0 -58 10
t-51.5 27.5t-41.5 40t-28 46.5q-18 43 -6 80t44.5 67.5t79.5 56.5t99 49q1 29 2 57.5t3 57.5q-30 -40 -64.5 -65t-64.5 -25q-54 0 -84 25.5t-43 65.5t-13 89.5t6 97t14 87t11 61.5q2 7 3 24.5t-3 26.5q-3 9 8.5 7.5t26.5 -6.5q10 -3 28.5 -12.5t38 -22t35.5 -25.5t19 -21
q1 -2 -2 -18t-8.5 -38.5t-11.5 -49t-11.5 -51t-9.5 -43t-5 -25.5q-2 -17 -2 -34.5t1.5 -32t5.5 -23t12 -8.5zM166 -349q34 0 49 25.5t18.5 61.5t1.5 76t-2 69q-39 -15 -72 -32.5t-55.5 -38t-32.5 -44t-1 -51.5q8 -27 33 -46.5t61 -19.5z" />
    <glyph glyph-name="z.fina" horiz-adv-x="838" 
d="M37 265q-4 -9 -13.5 -9t-18.5 6t-14.5 15t-1.5 18q7 14 14.5 43t9.5 68q-19 22 -26 45.5t-3 45.5q5 34 26.5 53.5t43.5 20.5q21 0 38 -10t27.5 -26t13.5 -34t-4 -33l-23 -47q16 5 41 10.5t52.5 4.5t54 -12.5t46.5 -39.5q22 -32 24 -64.5t-8.5 -64t-30.5 -61.5t-42 -58
q40 -8 87 -33t81 -67l43 21q28 15 54 36t43 48.5t21.5 62t-8.5 77.5q-6 18 -16 32.5t-21.5 25.5t-22.5 18.5t-19 12.5q-23 16 -21.5 29t27.5 18q33 4 66.5 -6.5t63 -30t52.5 -46t34 -55.5q24 -64 12.5 -111t-43.5 -82t-78 -60.5t-89 -44.5q-26 -11 -57 -21q21 -57 21 -107
t-15.5 -92t-44 -74.5t-64 -55t-75 -34t-76.5 -10.5q-31 1 -59 11t-51 27t-41 39.5t-28 46.5q-21 51 -1.5 92t63 75t103 62.5t119.5 52.5q-17 25 -42 41.5t-51 15.5q-28 -2 -38.5 -18t-16.5 -42q-5 -6 -18 -7t-28 2t-27 9.5t-14 15.5q-6 30 0.5 62t20 63t30 60t31 53t24 42
t8.5 27q-2 15 -11 20.5t-22.5 7.5t-31 4.5t-38.5 10.5q-10 -20 -20.5 -43.5t-21.5 -51.5zM166 -349q41 3 74 29t55 64.5t32 84.5t4 89q-54 -18 -105.5 -38.5t-89 -44.5t-56.5 -53t-8 -65q8 -27 33 -46.5t61 -19.5z" />
    <glyph glyph-name="i.fina" horiz-adv-x="645" 
d="M19 619q7 27 32.5 36.5t54.5 -6.5q30 -16 46 -46.5t9 -58.5q-7 -29 -33.5 -37.5t-55.5 6.5q-29 16 -44.5 46.5t-8.5 59.5zM-20 130q-2 38 2.5 82t10 90t9.5 91t1 85q-1 8 10.5 5t26.5 -10q10 -4 25 -14.5t30.5 -23.5t27.5 -26t16 -21q-1 -26 -5.5 -60t-10 -70
t-10.5 -71.5t-7 -64.5t0.5 -57t9.5 -51t19 -37t30 -14q51 0 97.5 23t75.5 65t34.5 100.5t-26.5 129.5q-16 35 -37.5 57.5t-36.5 33.5q-24 17 -21.5 30t29.5 15q34 2 68 -7t64 -27t54 -44.5t38 -57.5q37 -84 21.5 -156.5t-66 -125t-127.5 -80t-164 -20.5q-52 4 -87 25.5
t-56.5 53.5t-32 71.5t-12.5 80.5z" />
    <glyph glyph-name="k.fina" horiz-adv-x="910" 
d="M282 203q21 -53 47.5 -91.5t56.5 -63.5t61.5 -36.5t61.5 -11.5q41 1 76.5 19.5t56.5 52t23.5 80.5t-22.5 104q-15 35 -37.5 57.5t-37.5 33.5q-23 17 -21 30t30 15q34 2 66 -9.5t60 -32t49 -48t33 -56.5q26 -64 14.5 -119t-49 -94.5t-95 -62t-123.5 -22.5q-50 0 -102.5 15
t-101.5 47t-92.5 82t-76.5 121q22 25 39.5 56.5t28.5 59.5t15 47t-2 19q-11 0 -24 -7.5t-26.5 -21t-26.5 -32t-23 -40.5q-21 -117 -29 -173.5t-8 -61.5q0 -7 1.5 -24t3.5 -26q3 -13 -22 -16t-60 8q-26 8 -46.5 28t-23.5 44q-3 18 -0.5 46.5t7.5 61.5t12.5 68t14 65.5
t12.5 53t8 31.5q10 37 20 81t23 87.5t28.5 83.5t35.5 71t44.5 49.5t55.5 18.5q27 0 47.5 -10.5t33.5 -26.5t19.5 -34t5.5 -34q-2 -35 -14.5 -68.5t-33 -62.5t-47.5 -53.5t-57 -41.5l-10 -50q26 26 52 42.5t51 16.5q57 0 85.5 -27.5t30 -68t-23.5 -86.5t-74 -83zM253 731
q-9 0 -17 -14.5t-16 -42.5t-17.5 -67t-22.5 -88q33 34 55.5 71.5t32.5 68.5t6.5 51t-21.5 21z" />
    <glyph glyph-name="l.fina" horiz-adv-x="686" 
d="M118 278q-8 -42 -13.5 -85t2.5 -77q4 -18 11 -37.5t18.5 -36t29 -27.5t41.5 -12q75 -2 122.5 27t72.5 70.5t29.5 85t-6.5 70.5q-14 35 -37 57.5t-38 33.5q-23 17 -21 30t30 15q34 2 65.5 -6.5t58.5 -26.5t48 -44t34 -57t12 -67t-15.5 -72t-42 -69t-67.5 -58t-93 -39
t-118 -11q-40 1 -79.5 14.5t-73.5 38t-60.5 60.5t-39.5 84q-15 57 -13 124.5t20 135.5q9 37 21.5 80t28 85t34.5 80.5t42 67.5t49.5 46.5t57.5 17.5q27 0 47.5 -10.5t33.5 -26.5t19 -34t6 -34q-2 -43 -20 -102t-48 -117t-68 -106t-80 -68zM267 719q-6 0 -15.5 -17t-21 -45.5
t-24.5 -65.5t-25 -76.5t-23 -78.5t-19 -71q23 19 45.5 53t41.5 73t33 79.5t21 73.5t4 54t-17 21z" />
    <glyph glyph-name="a" unicode="a" horiz-adv-x="497" 
d="M541 281q-15 -35 -32 -84.5t-39 -96t-51.5 -79t-70.5 -32.5q-32 0 -55.5 11t-40 30t-26.5 43t-14 51q-15 -26 -32.5 -50t-37 -41.5t-40 -27.5t-42.5 -9q-32 2 -53.5 24t-33.5 57t-14 79t5 89.5t24 87.5t43 74t61.5 49.5t80.5 13.5q66 -7 98.5 -32t44.5 -52q4 -11 0.5 -27
t-11 -26.5t-15.5 -10.5t-12 21q-6 27 -34 28q-25 2 -51 -14t-54 -62q-11 -19 -21 -53t-16 -67t-5.5 -57.5t9.5 -24.5q5 0 18 17.5t29.5 43.5t34 55.5t31.5 54.5q7 21 15.5 33.5t19.5 11.5q9 -1 27.5 -12.5t36 -26.5t29 -29t7.5 -20q-1 -1 -3.5 -13.5t-4.5 -30t-3 -37.5
t0.5 -37t6 -28.5t14.5 -11.5q19 0 37 27.5t34 66.5t30.5 82t28.5 73q4 9 13 8.5t18 -6.5t14.5 -15t1.5 -18z" />
    <glyph glyph-name="a.swsh" horiz-adv-x="444" 
d="M316 386q4 -11 0.5 -27t-11 -26.5t-15.5 -10.5t-12 21q-6 27 -34 28q-25 2 -51 -14t-54 -62q-11 -19 -21 -53t-16 -67t-5.5 -57.5t9.5 -24.5q6 0 23.5 24.5t38 58.5t40 69t30.5 55q2 3 6.5 6t9.5 3q9 -1 27 -12.5t35 -26t29 -29t9 -20.5q-11 -21 -23.5 -58.5t-18.5 -85
t-1 -101t30 -104.5q18 -38 45.5 -61.5t59.5 -36.5t67.5 -17.5t69.5 -4.5q26 0 51 9t44.5 24t31.5 34.5t13 40.5q0 8 5.5 9.5t13 -4t16 -16t15.5 -26.5q15 -35 15 -62t-10.5 -47t-28 -34t-37 -22.5t-38.5 -12t-32 -3.5q-66 0 -128 23t-115.5 63.5t-96 96t-70.5 120.5
q-18 42 -27.5 78.5t-10.5 71.5q-14 -21 -30 -39.5t-32.5 -32t-34.5 -21t-37 -6.5q-32 2 -53.5 24t-33.5 57t-14 79t5 89.5t24 87.5t43 74t61.5 49.5t80.5 13.5q66 -7 98.5 -32t44.5 -52z" />
    <glyph glyph-name="m.swsh" horiz-adv-x="734" 
d="M168 73q-1 14 6.5 42.5t17.5 64t21.5 73t19.5 68.5t10 51t-6 21q-12 0 -27 -8t-30.5 -22t-31 -33.5t-27.5 -42.5q-4 -20 -9.5 -38.5t-10.5 -35.5q-18 -61 -27.5 -98.5t-11.5 -55.5q-1 -7 -1.5 -24t1.5 -26q2 -13 -23 -16t-58 8q-26 8 -44.5 28t-19.5 44q-1 17 6 46
t17.5 64t22 74t19 77.5t9.5 74t-7 63.5q-3 10 16 6t44 -16.5t48 -29.5t27 -33l4 -23q35 41 74 65.5t71 24.5q56 0 83 -23.5t34 -60.5q33 38 68 61.5t65 23.5q57 0 83.5 -25t32.5 -64t-2.5 -86t-22.5 -90q-9 -29 -23 -69t-22.5 -85t-7.5 -92.5t21 -90.5q15 -34 43 -56.5
t61.5 -35t69.5 -16.5t69 -1q27 2 50.5 11t41.5 22.5t29 31.5t12 39q0 8 5.5 9.5t13 -4t16 -16t15.5 -26.5q15 -35 15 -62t-10.5 -47t-28 -34t-37 -22.5t-38.5 -12t-32 -3.5q-66 0 -130 21t-119.5 59t-100 91.5t-72.5 118.5q-20 47 -24 90.5t1 82.5t15.5 73t20.5 62
q10 30 17.5 57.5t11 49t2.5 34.5t-7 13q-9 0 -22 -6.5t-27 -18.5t-28.5 -29t-26.5 -37q-4 -23 -11 -45.5t-16 -44.5q-5 -11 -12 -31.5t-12 -44.5q-7 -28 -11.5 -47.5t-5.5 -30.5q-1 -7 -1.5 -24t1.5 -26q2 -13 -23 -16t-60 8q-26 8 -44.5 28t-19.5 44z" />
    <glyph glyph-name="n.swsh" horiz-adv-x="490" 
d="M364 202q-9 -29 -23.5 -69.5t-24 -86t-10 -92t17.5 -87.5q15 -34 44 -56.5t64 -35.5t72.5 -17.5t70.5 -1.5q27 2 50.5 11t41.5 22.5t29 31.5t12 39q0 8 5.5 9.5t13 -4t16 -16t15.5 -26.5q15 -35 15 -62t-10.5 -47t-28 -34t-37 -22.5t-38.5 -12t-32 -3.5q-66 0 -130 21.5
t-119.5 60.5t-99.5 93.5t-72 119.5q-20 47 -24 90t0.5 81t15 71t20.5 61q10 30 17.5 57.5t11 49t2.5 34.5t-7 13q-11 0 -25 -8t-29.5 -22.5t-31 -34t-27.5 -42.5q-4 -20 -9.5 -38.5t-10.5 -35.5q-18 -61 -27.5 -98.5t-11.5 -55.5q-1 -7 -1.5 -24t1.5 -26q2 -13 -23 -16
t-58 8q-26 8 -44.5 28t-19.5 44q-1 17 6 46t17.5 64t22 74t19 77.5t9.5 74t-7 63.5q-3 10 16 6t44 -16.5t48 -29.5t27 -33q5 -20 6 -37l2 15q35 40 71 65t67 25q57 0 83.5 -25t32.5 -64t-2.5 -86t-22.5 -90z" />
    <glyph glyph-name="h.swsh" horiz-adv-x="500" 
d="M375 202q-9 -29 -24 -68.5t-25.5 -84t-12 -90t16.5 -87.5q14 -34 43.5 -57.5t66 -37.5t75 -19t71.5 -2q27 2 50.5 11t41.5 22.5t29 31.5t12 39q0 8 5.5 9.5t13 -4t16 -16t15.5 -26.5q15 -35 15 -62t-10.5 -47t-28 -34t-37 -22.5t-38.5 -12t-32 -3.5q-66 0 -130 21.5
t-119.5 60.5t-99.5 93.5t-72 119.5q-20 47 -24 90t0.5 81t15 71t20.5 61q10 30 17.5 57.5t11 49t2.5 34.5t-7 13q-11 0 -26 -8.5t-31 -24.5t-32 -37t-28 -45q-20 -111 -28 -163t-8 -57q0 -7 1.5 -24t3.5 -26q3 -13 -22 -16t-60 8q-26 8 -46.5 28t-23.5 44q-3 18 -0.5 46.5
t8 61.5t12.5 68t14 65.5t12.5 53t7.5 31.5q14 56 33 122.5t45 123.5t61 94.5t82 37.5q38 -1 63 -20t37 -47q16 -39 3 -78.5t-40.5 -74.5t-62 -63t-60.5 -43l-12 -63q32 35 65.5 57t62.5 22q57 0 83.5 -25t32.5 -64t-2.5 -86t-22.5 -90zM267 720q-19 0 -41 -55t-48 -153
q37 24 61 59.5t35 68.5t9 56.5t-16 23.5z" />
    <glyph glyph-name="r.swsh" horiz-adv-x="359" 
d="M94 240q10 37 15 62t4 41t-7.5 24t-20.5 11l-45 -106q-3 -9 -12.5 -8t-18.5 7t-14 15.5t0 18.5l38 110q-9 5 -17 16t-13.5 24.5t-8.5 27.5t-2 26q1 14 6.5 31t16.5 32t27.5 24.5t39.5 8.5q32 -1 47 -13t19 -29.5t-0.5 -38t-12.5 -39t-17 -32.5t-13 -18q22 6 54.5 8.5
t61 -6t44.5 -31.5t5 -69l-32 -133q-7 -29 -20 -70.5t-21 -88t-5.5 -93.5t26.5 -87q20 -34 50 -56t65 -35t71.5 -17t69.5 -1q27 2 50 11t40.5 22.5t27.5 31.5t10 39q0 8 5 9.5t13 -4t17 -16t17 -26.5q17 -35 18 -62t-8.5 -47t-26.5 -34t-36 -22.5t-38 -12t-32 -3.5
q-66 0 -131 21.5t-122 60.5t-104 93.5t-78 119.5q-22 47 -28 89.5t-2.5 80.5t12 71t16.5 62z" />
    <glyph glyph-name="g.swsh" horiz-adv-x="448" 
d="M308 386q4 -11 0.5 -27t-11 -26.5t-15.5 -10.5t-12 21q-6 27 -34 28q-25 2 -51 -14t-54 -62q-11 -19 -21 -53t-16 -67t-5.5 -57.5t9.5 -24.5q4 0 15 14t25 35.5t29.5 47.5t29.5 51q9 47 35 62q4 5 14 5q2 0 4 0.5t4 0.5q9 0 23 -11t27.5 -25.5t22.5 -29.5t8 -22l5 -274
q65 -17 129 -41t118.5 -41t96 -20t61.5 22q9 11 17.5 13t24.5 -18q12 -15 16 -39t-2.5 -47.5t-25 -40.5t-52.5 -18q-57 -1 -107.5 15.5t-96.5 40t-89.5 48.5t-87.5 42l3 -144q1 -47 -11 -79.5t-33.5 -52t-52.5 -28t-68 -6.5q-31 1 -59.5 13t-52 30.5t-41.5 42.5t-28 48
q-23 55 -17 105.5t34.5 88.5t76 61t108.5 24q-3 35 -5.5 70t-4.5 68q-15 -23 -31 -43t-33.5 -34.5t-36.5 -23t-38 -7.5q-32 2 -53.5 24t-33.5 57t-14 79t5 89.5t24 87.5t43 74t61.5 49.5t80.5 13.5q66 -7 98.5 -32t44.5 -52zM216 -228q-1 26 -3.5 53t-4.5 55
q-48 -6 -82.5 -25.5t-55 -46t-25.5 -57t6 -58.5q5 -14 15 -27.5t23.5 -24t29.5 -17.5t34 -7q27 0 40.5 14t18.5 36t5 50t-1 55z" />
    <glyph glyph-name="i.swsh" horiz-adv-x="229" 
d="M129 233q-6 -33 -17.5 -78.5t-16.5 -95.5t1 -100.5t35 -93.5q22 -34 54 -56t67.5 -35t72.5 -17t69 -1q27 2 49.5 11t39 22.5t25 31.5t6.5 39q0 8 5 9.5t13 -4t18 -16t19 -26.5q19 -35 22.5 -62t-4.5 -47t-24 -34t-34.5 -22.5t-37 -12t-31.5 -3.5q-66 0 -132.5 21.5
t-127 60.5t-111.5 93.5t-87 119.5q-27 51 -36 98.5t-7.5 93t10 88.5t16.5 85q4 18 8.5 42.5t7.5 50t4 47.5t-2 36q-2 9 10 5.5t27 -10.5q10 -4 25 -14.5t30.5 -23.5t27.5 -26t16 -21q4 -11 4 -30.5t-1.5 -42t-5 -44.5t-7.5 -38zM19 619q7 27 32.5 36.5t54.5 -6.5
q30 -16 46 -46.5t9 -58.5q-7 -29 -33.5 -37.5t-55.5 6.5q-29 16 -44.5 46.5t-8.5 59.5z" />
    <glyph glyph-name="u.swsh" horiz-adv-x="510" 
d="M407 233q-6 -33 -17.5 -78.5t-17.5 -95.5t0 -100.5t35 -93.5q22 -34 54.5 -56t68.5 -35t73 -17t69 -1q27 2 49.5 11t39 22.5t25 31.5t6.5 39q0 8 5 9.5t13 -4t18 -16t19 -26.5q19 -35 22.5 -62t-4.5 -47t-24 -34t-34.5 -22.5t-37 -12t-31.5 -3.5q-66 0 -132.5 21.5
t-127 60.5t-111.5 93.5t-87 119.5q-21 38 -31 73t-13 70q-29 -41 -64 -66t-65 -25q-48 0 -78 24.5t-45.5 62.5t-18.5 84.5t5 90.5q7 39 15.5 84t13.5 80q1 7 2 24.5t-2 26.5q-4 9 7.5 7.5t26.5 -6.5q10 -3 28.5 -12.5t38 -22t35.5 -25.5t19 -21q1 -2 -2 -18t-8.5 -38.5
t-11.5 -49t-11.5 -51t-9.5 -43t-5 -25.5q-2 -17 -2 -34.5t1.5 -32t5.5 -23t12 -8.5q13 0 30.5 12.5t35.5 33t33 47.5t23 57l4 22q1 5 1 9.5t1 9.5q0 6 3 8q3 10 4.5 20t3.5 20l9 40.5t9 45t5.5 42.5t-1.5 34q-3 9 9.5 5.5t27.5 -10.5q10 -4 25.5 -14.5t30.5 -23t27.5 -25.5
t15.5 -21q4 -11 3.5 -28.5t-2.5 -37.5t-6 -40t-8 -36z" />
    <glyph glyph-name="y.swsh" horiz-adv-x="510" 
d="M128 63q13 0 30.5 12.5t35 32.5t32.5 47t23 56l2 22q2 30 6 58.5t7.5 57t5 58t-2.5 61.5q-1 9 10.5 5.5t26.5 -10.5q10 -4 25.5 -14.5t30.5 -23.5t27.5 -26t15.5 -21q4 -11 4.5 -29.5t0 -40t-2.5 -43.5t-3 -38l-19 -286q62 -18 122.5 -40.5t112 -38t90.5 -17.5t58 22
q9 11 17.5 13t24.5 -18q12 -15 16 -39t-2.5 -47.5t-25 -40.5t-52.5 -18q-55 -1 -103.5 14t-93 37t-87 46.5t-84.5 42.5l-10 -139q-7 -92 -48.5 -130t-116.5 -35q-31 1 -59.5 13t-52.5 30.5t-42 42.5t-28 48q-23 56 -16 107t36.5 89.5t79 61t112.5 21.5h2q2 28 3.5 56t3.5 56
q-29 -40 -63.5 -64.5t-64.5 -24.5q-48 0 -78 24.5t-45.5 62.5t-18.5 84.5t5 90.5q7 39 15.5 84t12.5 80q2 7 3 24.5t-3 26.5q-3 9 8.5 7.5t26.5 -6.5q10 -3 28.5 -12.5t38 -22t35.5 -25.5t19 -21q1 -2 -2 -18t-8.5 -38.5t-11.5 -49t-11.5 -51t-9.5 -43t-5 -25.5
q-2 -17 -2 -34.5t1.5 -32t5.5 -23t12 -8.5zM229 -227v54t1 53q-48 -6 -82.5 -25.5t-55 -46t-26 -57t5.5 -58.5q5 -14 15 -27.5t23.5 -24t29.5 -17.5t34 -7q21 0 32 14t16 36.5t6 50.5t1 55z" />
    <glyph glyph-name="z.swsh" horiz-adv-x="427" 
d="M68 11q-4 30 3.5 61.5t20.5 62.5t29 60t30 53t23 42t8 27q-2 15 -11 20.5t-22.5 7.5t-31 4.5t-38.5 10.5q-10 -20 -20.5 -43.5t-21.5 -51.5q-4 -9 -13.5 -9t-18.5 6t-14.5 15t-1.5 18q7 14 15 42t15 63l-6 6q-19 22 -26 45.5t-3 45.5q5 34 26.5 53.5t43.5 20.5
q21 0 38 -10t27.5 -26t13.5 -34t-4 -33l-23 -47q6 2 11 4l10 4q16 6 39.5 8.5t48 -2t47.5 -16.5t38 -35q22 -33 24 -65.5t-9 -64t-31 -61.5t-43 -58q59 -17 96.5 -71.5t54.5 -125.5q61 -18 120 -40t109.5 -36.5t88 -16t56.5 21.5q9 11 17.5 13t24.5 -18q12 -15 16 -39
t-2.5 -47.5t-25 -40.5t-52.5 -18q-50 -1 -94.5 11.5t-86 32t-80 42t-77.5 41.5q3 -55 -5.5 -107.5t-28.5 -93.5t-52 -67.5t-75 -28.5q-36 -2 -71 7.5t-65 28.5t-53.5 45.5t-36.5 58.5q-23 56 -16 107t36.5 89.5t79 61t112.5 21.5q8 0 16.5 -0.5t17.5 -1.5q-11 39 -27.5 64
t-36.5 26q-11 0 -23 -13.5t-23 -50.5q-5 -7 -19 -8t-29 2.5t-27 10.5t-12 16zM174 -383q33 1 55 26t34.5 63t16 84.5t-0.5 91.5h-12q-57 0 -99.5 -18t-67.5 -46t-32.5 -61.5t4.5 -63.5q5 -14 15 -27.5t23.5 -24.5t29.5 -18t34 -6z" />
    <glyph glyph-name="r.ini" horiz-adv-x="390" 
d="M-37 26q-6 -12 -19.5 -19t-26 -9t-21 2.5t-4.5 16.5l131 406q-9 5 -15.5 15t-10 22t-5 24.5t-0.5 24.5q1 14 6.5 31t16.5 32t27.5 24.5t39.5 8.5q32 -1 47 -13t19 -29.5t-0.5 -38t-12.5 -39t-17 -32.5t-13 -18q22 6 54.5 8.5t61 -6t44.5 -31.5t5 -69q-2 -7 -7.5 -30
t-13 -53t-14.5 -63t-10.5 -61t-2 -46.5t11.5 -19.5q13 -1 27 12.5t28.5 36t28.5 50.5t26.5 55.5t23 52t17.5 39.5q4 9 14 10t19 -4.5t14 -15t1 -21.5q-17 -42 -39 -94.5t-50.5 -98t-64 -74t-78.5 -22.5q-32 4 -57.5 21t-43 40.5t-24.5 50.5t-1 53q13 60 23 99.5t13.5 64
t0 37t-16.5 19.5q-5 3 -3.5 3t-0.5 1q-4 -9 -13 -36t-21 -62.5t-26 -75.5t-27 -76t-24 -64t-17 -39z" />
    <glyph glyph-name="s.ini" horiz-adv-x="446" 
d="M100 -10q-25 7 -52.5 24.5t-52.5 43t-44.5 59t-28.5 74.5q-4 31 1.5 58.5t20.5 47t39.5 27.5t57.5 0q27 -8 46.5 -21t33 -29t21 -33t8.5 -32q3 -28 -6 -51t-26 -29q-12 -2 -20.5 6t-3.5 17q5 14 2 26.5t-10.5 22.5t-18.5 17t-21 9q-19 4 -29 -5t-12 -25t3 -36t16 -39
t28 -33.5t38 -19.5q39 -9 59 4.5t26.5 42t3 68.5t-11 85.5t-16.5 92.5t-12.5 89t1.5 75t24 51q18 17 36 18.5t33 -4.5t25.5 -15.5t13.5 -15.5q12 -22 11 -42.5t-9 -38.5t-20.5 -31.5t-23.5 -22.5q3 -21 14 -47t25 -55t27 -59.5t20.5 -59.5t6 -56t-17.5 -49q21 13 41 38
t38 55.5t33 62t26 57.5q4 9 13 8.5t18 -6.5t14.5 -15t1.5 -18q-10 -22 -25 -57.5t-37 -74t-52 -75t-70 -61.5t-90.5 -33.5t-113.5 8.5z" />
    <glyph glyph-name="x.ini" horiz-adv-x="484" 
d="M-3 -46q-8 18 -2 39t22 44t39.5 48.5t51.5 52.5q-9 42 -13.5 88t-7 90t-4 84t-4.5 70q-1 13 21.5 21.5t49.5 12t49.5 2.5t22.5 -6q-1 -52 -1 -119t4 -130q30 31 55.5 61t40 59.5t16 56.5t-15.5 52q-7 11 7 17t36 3q23 -4 46 -22t34 -52q9 -30 -7.5 -60t-48.5 -60
t-74 -60.5t-83 -63.5q7 -51 17.5 -83t27.5 -31q27 1 57.5 28.5t58.5 65.5t51.5 79.5t36.5 70.5q4 9 13 8.5t18 -6.5t14.5 -15t1.5 -18q-10 -22 -25.5 -53t-35.5 -64.5t-44 -66.5t-51 -59t-56.5 -42t-60.5 -16q-49 0 -79.5 28t-48.5 73q-23 -31 -34.5 -63.5t-3.5 -69.5
q1 -8 4.5 -13t6.5 -9t4 -8t-1 -11q-3 -8 -15.5 -12t-28.5 -0.5t-33 17.5t-28 42z" />
    <glyph glyph-name="f.fina" horiz-adv-x="739" 
d="M211 41q37 -16 77 -21t77.5 0.5t68.5 21.5t51.5 40.5t26.5 58.5t-8 76q-6 18 -18 34.5t-25.5 30t-26.5 23.5t-20 15q-23 16 -22 29t28 18q29 1 62.5 -7t64 -25t54.5 -43.5t34 -62.5q15 -54 3 -99t-43 -78.5t-76.5 -55.5t-97 -30.5t-105.5 -3t-102 27.5q0 -57 -9 -114.5
t-27 -103.5t-44.5 -75t-59.5 -29q-58 0 -89.5 37t-44.5 96.5t-10.5 134.5t12.5 149.5t24 142.5t25 114q8 38 21.5 85.5t31 96.5t39.5 96t47 83.5t53 59.5t58 24q29 2 53.5 -12.5t38.5 -53.5q14 -40 13.5 -88.5t-12 -99t-32.5 -100t-48 -92t-58.5 -75t-63.5 -47.5
q-1 -2 -1.5 -9.5t-1.5 -16.5t-1.5 -16.5t-1.5 -9.5q18 0 35.5 -11t30.5 -28.5t18.5 -40t0.5 -46.5zM167 9q-30 8 -51.5 31.5t-26.5 49.5q-8 -36 -16 -76t-14 -78.5t-9 -73.5t-2.5 -61.5t5.5 -42t16 -15.5q19 0 36 26t30 65.5t21.5 86t10.5 88.5zM279 715q-7 1 -16.5 -20
t-21 -55.5t-23.5 -79t-24 -90t-23 -89t-19 -75.5q12 13 26 32t28.5 43.5t28.5 53t26 60.5q15 38 22.5 77t9 70.5t-2.5 51.5t-11 21z" />
    <glyph glyph-name="NULL" horiz-adv-x="0" 
 />
    <glyph glyph-name="NULL" horiz-adv-x="0" 
 />
    <glyph glyph-name="nonmarkingreturn" unicode="&#xd;" horiz-adv-x="260" 
 />
    <glyph glyph-name="r" unicode="r" horiz-adv-x="390" 
d="M234 64q13 -1 27 12.5t28.5 36t28.5 50.5t26.5 55.5t23 52t17.5 39.5q4 9 14 10t19 -4.5t14 -15t1 -21.5q-17 -42 -39 -94.5t-50.5 -98t-64 -74t-78.5 -22.5q-32 4 -57.5 21t-43 40.5t-24.5 50.5t-1 53q14 65 24 106.5t12.5 66.5t-3.5 35.5t-23 14.5l-45 -106
q-3 -9 -12.5 -8t-18.5 7t-14 15.5t0 18.5l38 110q-9 5 -17 16t-13.5 24.5t-8.5 27.5t-2 26q1 14 6.5 31t16.5 32t27.5 24.5t39.5 8.5q32 -1 47 -13t19 -29.5t-0.5 -38t-12.5 -39t-17 -32.5t-13 -18q22 6 54.5 8.5t61 -6t44.5 -31.5t5 -69q-2 -7 -7.5 -30t-13 -53t-14.5 -63
t-10.5 -61t-2 -46.5t11.5 -19.5z" />
    <glyph glyph-name="b.fina" horiz-adv-x="1130" 
d="M267 721q-6 0 -16 -17.5t-21.5 -46t-24 -65.5t-25 -76.5t-24 -78.5t-19.5 -71q24 21 47 55t42 73.5t33.5 79.5t21 72.5t3.5 53.5t-17 21zM396 200q-12 -41 -28 -78.5t-37.5 -66.5t-49.5 -47t-63 -18q-77 -1 -128 34.5t-78 92t-31.5 127.5t12.5 141q9 40 21 84t27 87
t34 82.5t42 70t50.5 49t60.5 19.5q27 1 46.5 -9t32 -25.5t19.5 -34.5t8 -35q1 -27 -8 -65.5t-25 -80t-38 -83t-46 -76.5t-49.5 -60t-47.5 -32q-9 -43 -4.5 -83.5t18.5 -72t34.5 -50.5t44.5 -18t42 20t32.5 49.5t25.5 70t22 81.5q-17 26 -24.5 66t-1.5 81q3 16 8 31.5
t14.5 27t25 18t39.5 5.5q28 -2 41.5 -17.5t17.5 -39.5t0.5 -52t-9.5 -54.5t-13 -47.5l-10 -30q19 -36 45.5 -60.5t56.5 -39t63.5 -20.5t66.5 -6q30 0 57.5 8.5t50.5 23.5t41 35t30 44q9 18 12 49.5t-2.5 65t-22 64.5t-46.5 47q-11 6 -16.5 13.5t-5.5 14t7 10t22 0.5
q52 -9 94 -39.5t69.5 -70.5t40 -83t5.5 -76q-11 -53 -43 -87.5t-74.5 -55.5t-91.5 -29.5t-92 -7.5q-79 2 -153 34.5t-141 104.5z" />
    <glyph glyph-name="c.fina" horiz-adv-x="780" 
d="M323 -64q-51 0 -100.5 9.5t-93 29.5t-78 52t-55.5 77q-14 29 -21 62.5t-6.5 68t9.5 69t27 64.5q36 57 80.5 80t83.5 22q31 0 55.5 -8.5t42 -20.5t29 -27t16.5 -28q3 -9 6.5 -23.5t2 -33.5t-12 -40t-35.5 -43q-7 -6 -16 -4.5t-16 7.5t-10 14t3 15q16 18 21.5 35t3 30
t-12 21t-22.5 8q-14 0 -38 -15.5t-51 -61.5q-11 -19 -17 -43t-6.5 -50t5 -52.5t17.5 -48.5q11 -21 24.5 -38.5t32 -30t43.5 -19.5t59 -7q74 0 120 33t68.5 80.5t23 100.5t-17.5 94q-16 35 -37.5 57.5t-36.5 33.5q-24 17 -21.5 30t29.5 15q34 2 65.5 -6.5t58.5 -26.5t48 -44
t34 -57q26 -61 16.5 -128t-50 -123t-109.5 -92.5t-161 -36.5z" />
    <glyph glyph-name="e.fina" horiz-adv-x="750" 
d="M121 140q4 -26 16.5 -50.5t34.5 -43.5t53.5 -31t73.5 -12q66 0 110.5 30.5t67.5 77t24.5 101t-17.5 102.5q-14 35 -36.5 57.5t-37.5 33.5q-24 17 -21.5 30t29.5 15q34 2 65 -6.5t57.5 -26.5t48 -44t35.5 -57q29 -63 20.5 -130t-49.5 -121.5t-111 -90t-163 -35.5
q-35 0 -81.5 4.5t-93.5 22.5t-89 54.5t-68 99.5q-25 60 -22.5 121.5t27.5 112t68.5 83.5t99.5 35q28 1 52 -5.5t42.5 -18t31.5 -26.5t21 -31q20 -44 8 -87t-42.5 -78t-72.5 -58.5t-81 -27.5zM109 195q25 6 53 23.5t50.5 41t35 48t5.5 44.5q-2 7 -10 13t-20 6
q-30 0 -52.5 -16t-37.5 -41t-21 -56.5t-3 -62.5z" />
    <glyph glyph-name="j.fina" horiz-adv-x="554" 
d="M0 619q6 27 31.5 36.5t54.5 -6.5q30 -16 46 -46.5t9 -58.5q-7 -29 -33.5 -37.5t-55.5 6.5q-29 16 -44 46.5t-8 59.5zM-43 -36q2 68 7.5 134t10.5 135q1 22 4.5 55t6.5 68.5t3 68.5t-6 56q-2 9 10 5.5t26 -10.5q10 -4 25.5 -14.5t31 -23.5t27.5 -26t16 -21q3 -11 5 -31
t2.5 -44t0 -47.5t-2.5 -39.5q-5 -50 -7 -101t-10 -102q19 8 36 15.5t31 15.5q28 15 54 36t43 48.5t21.5 62t-8.5 77.5q-6 18 -16 32.5t-21.5 25.5t-22.5 18.5t-19 12.5q-23 16 -21.5 29t27.5 18q33 4 66.5 -6.5t63 -30t52.5 -46t34 -55.5q24 -64 12.5 -111t-43.5 -82
t-78 -60.5t-89 -44.5q-29 -12 -62 -23.5t-68 -23.5l-17 -176q-8 -91 -51 -131t-112 -40q-30 0 -58 10t-51.5 27.5t-41.5 40t-28 46.5q-18 43 -6 80t44 67.5t79.5 56.5t99.5 49zM-113 -349q34 0 49 25.5t18.5 61.5t1.5 76t-2 69q-39 -15 -72 -32.5t-55.5 -38t-32.5 -44
t-1 -51.5q8 -27 33 -46.5t61 -19.5z" />
    <glyph glyph-name="v.fina" horiz-adv-x="1067" 
d="M329 200q-2 -26 -18.5 -62t-44.5 -69t-67.5 -56t-88.5 -24q-47 -1 -77.5 23.5t-46 62.5t-18.5 85t5 91q7 39 15.5 84t12.5 80q2 7 3 24.5t-3 26.5q-3 9 8.5 7.5t26.5 -6.5q10 -3 28.5 -12.5t38 -22t35.5 -25.5t19 -21q1 -2 -2 -18t-8.5 -38.5t-11.5 -49t-11.5 -51
t-9.5 -43t-5 -25.5q-2 -17 -2.5 -34t1 -31.5t6 -23.5t12.5 -9q24 -2 47 18t42.5 52t35.5 71t25 75q-17 26 -28.5 63t-5.5 78q3 16 8 31.5t14.5 27t25 18t39.5 5.5q28 -2 41.5 -17.5t17.5 -39.5t0.5 -52t-9.5 -54.5t-13 -47.5l-10 -30q19 -36 45.5 -60.5t56.5 -39t63.5 -20.5
t66.5 -6q30 0 57.5 8.5t50.5 23.5t41 35t30 44q9 18 12 49.5t-2.5 65t-22 64.5t-46.5 47q-11 6 -16.5 13.5t-5.5 14t7 10t22 0.5q52 -9 94 -39.5t69.5 -70.5t40 -83t5.5 -76q-11 -53 -43 -87.5t-74.5 -55.5t-91.5 -29.5t-92 -7.5q-79 2 -153 34.5t-141 104.5z" />
    <glyph glyph-name="w.fina" horiz-adv-x="1336" 
d="M594 200q-3 -22 -17 -58.5t-39.5 -71t-64 -59t-89.5 -22.5q-54 3 -85.5 31.5t-45.5 71.5q-30 -45 -68 -74t-70 -29q-48 0 -78 24.5t-45.5 62.5t-18.5 84.5t5 90.5q7 39 15 84t13 80q2 7 3 24.5t-3 26.5t8 7.5t27 -6.5q10 -3 28.5 -12.5t38 -22t35.5 -25.5t19 -21
q1 -2 -2 -18t-8.5 -38.5t-11.5 -49t-11.5 -51t-9.5 -43t-5 -25.5q-2 -17 -2 -34.5t1.5 -32t5.5 -23t12 -8.5q11 0 25.5 9t29.5 24t29.5 35.5t24.5 44.5q-1 19 1 37.5t5 37.5q7 39 15.5 84t13.5 80q2 7 3 24.5t-3 26.5t8 7.5t27 -6.5q10 -3 28.5 -12.5t38 -22t35.5 -25.5
t19 -21q1 -2 -2 -18t-8.5 -38.5t-11.5 -49t-11.5 -51t-9.5 -43t-5 -25.5q-2 -17 -2.5 -34t1 -31.5t6 -23.5t12.5 -9q24 -2 47 20.5t42 55.5t33 71t22 69q-17 26 -30 63t-7 78q3 16 8 31.5t14.5 27t25 18t39.5 5.5q28 -2 41.5 -17.5t17.5 -39.5t0.5 -52t-9.5 -54.5t-13 -47.5
l-10 -30q19 -36 45.5 -60.5t56.5 -39t63.5 -20.5t66.5 -6q30 0 57.5 8.5t50.5 23.5t41 35t30 44q9 18 12 49.5t-2.5 65t-22 64.5t-46.5 47q-11 6 -16.5 13.5t-5.5 14t7 10t22 0.5q52 -9 94 -39.5t69.5 -70.5t40 -83t5.5 -76q-11 -53 -43 -87.5t-74.5 -55.5t-91.5 -29.5
t-92 -7.5q-79 2 -153 34.5t-141 104.5z" />
    <glyph glyph-name="x.fina" horiz-adv-x="809" 
d="M96 78q-23 -31 -35 -62t-4 -68q1 -8 4.5 -13t6.5 -9t4 -8t-1 -11q-3 -8 -15.5 -12t-28.5 -0.5t-32.5 17.5t-28.5 42q-8 18 -2 39t22 44t39.5 48.5t51.5 52.5q-9 42 -13.5 86t-7.5 88l-18 -52q-3 -9 -12.5 -8t-18.5 8t-14.5 16.5t-0.5 18.5l56 175q3 12 25.5 20t48.5 12
t47.5 3.5t21.5 -5.5q-1 -52 -1 -119t4 -130q30 31 55.5 61t40 59.5t16 56.5t-15.5 52q-7 11 7 17t36 3q23 -4 46 -22t34 -52q9 -30 -7.5 -60t-48.5 -60t-74 -60.5t-83 -63.5q4 -29 7.5 -62.5t14.5 -62.5t32.5 -49t60.5 -22q40 -2 80.5 13.5t74.5 44t57 68.5t28 86.5t-12 98
t-62 103.5q-11 9 -14 16t0.5 11t12.5 5t22 -1q18 -3 44 -16.5t52.5 -34.5t49.5 -48t35 -57q24 -62 19.5 -113.5t-29 -92t-64.5 -70.5t-86.5 -49t-94.5 -28.5t-88 -8.5q-62 1 -105 13t-71 33.5t-44 51.5t-24 67z" />
    <glyph glyph-name="z.ini" horiz-adv-x="439" 
d="M79 360q-36 13 -56 32t-29 38.5t-10.5 37.5t0.5 29q5 34 26.5 53.5t43.5 20.5q21 0 38 -10t27.5 -26t13.5 -34t-4 -33l-23 -47q16 5 41 10.5t52.5 4.5t54 -12.5t46.5 -39.5q22 -32 24 -64.5t-8.5 -64t-31 -62t-42.5 -58.5q23 -6 41 -18t32 -28q21 25 37.5 50.5t30 52.5
t26 56.5t27.5 64.5q3 9 12.5 8t18.5 -7t14.5 -15.5t1.5 -18.5q-16 -34 -30 -66t-29 -62t-33 -59t-43 -57q19 -42 24.5 -88t1.5 -85q-4 -44 -17 -82.5t-35.5 -67t-54.5 -44.5t-74 -16q-28 0 -49 9t-35 21.5t-23 26.5t-13 24q-15 34 -6.5 66.5t32 65t58 65.5t72.5 69
q-4 22 -8.5 34.5t-9 18.5t-9 7.5t-8.5 1.5q-5 0 -10.5 -7t-11 -17.5t-10 -23t-7.5 -24.5q-5 -7 -19 -8t-29 2.5t-27 10.5t-12 16q-4 30 3 62t20 63t29 59.5t30.5 52.5t23.5 42t8 27q-2 15 -11 20.5t-22.5 8t-31 4.5t-38.5 10zM171 -288q26 1 40.5 19.5t20.5 48.5t6 68t-2 77
q-27 -29 -49 -56.5t-36.5 -51.5t-20.5 -43.5t0 -32.5q6 -14 16.5 -22t24.5 -7z" />
    <glyph glyph-name="j.swsh" horiz-adv-x="493" 
d="M454 -283q-57 -1 -105 15.5t-91.5 39.5t-84.5 48t-83 42l-13 -143q-5 -47 -20 -79.5t-38.5 -52t-54.5 -28t-68 -6.5q-31 1 -58 13t-49 30.5t-38 42.5t-23 48q-17 55 -5.5 105.5t44 88.5t83 61t111.5 24q2 72 4 141.5t10 125.5q1 22 4.5 55t6.5 68.5t3 68.5t-6 56
q-2 9 10 5.5t26 -10.5q10 -4 25.5 -14.5t31 -23.5t27.5 -26t16 -21q3 -11 5 -31t2.5 -44t0 -47.5t-2.5 -39.5q-2 -17 -3.5 -36.5t-4.5 -50.5t-7 -77.5t-11 -118.5q42 -11 83.5 -26t80.5 -29t74 -25.5t65 -16.5t53 -1.5t38 19.5q10 11 18.5 13t22.5 -18q10 -15 12 -39
t-7 -47.5t-29.5 -40.5t-54.5 -18zM-45 -228q2 25 3 52t1 56q-48 -6 -85 -25.5t-60 -46t-32 -57t0 -58.5q4 -14 12.5 -27.5t20.5 -24t27.5 -17.5t33.5 -7q27 0 41.5 14t22 36t10.5 50t5 55zM0 619q6 27 31.5 36.5t54.5 -6.5q30 -16 46 -46.5t9 -58.5q-7 -29 -33.5 -37.5
t-55.5 6.5q-29 16 -44 46.5t-8 59.5z" />
    <glyph glyph-name="k.swsh" horiz-adv-x="469" 
d="M253 731q-9 0 -17 -14.5t-16 -42.5t-17.5 -67t-22.5 -88q33 34 55.5 71.5t32.5 68.5t6.5 51t-21.5 21zM743 -325q-58 1 -117 26.5t-116.5 67.5t-111 97t-99.5 114.5t-82 119.5t-58 113q22 25 39.5 56.5t28.5 59.5t15 47t-2 19q-11 0 -24 -7.5t-26.5 -21t-26.5 -32
t-23 -40.5q-21 -117 -29 -173.5t-8 -61.5q0 -7 1.5 -24t3.5 -26q3 -13 -22 -16t-60 8q-26 8 -46.5 28t-23.5 44q-3 18 -0.5 46.5t7.5 61.5t12.5 68t14 65.5t12.5 53t8 31.5q10 37 20 81t23 87.5t28.5 83.5t35.5 71t44.5 49.5t55.5 18.5q27 0 47.5 -10.5t33.5 -26.5t19.5 -34
t5.5 -34q-2 -35 -14.5 -68.5t-33 -62.5t-47.5 -53.5t-57 -41.5l-10 -50q26 26 52 42.5t51 16.5q57 0 85.5 -27.5t30 -68t-23.5 -86.5t-74 -83q40 -86 80.5 -163t88.5 -133.5t108 -88t141 -27.5q27 1 49 15.5t36.5 35t21 45t2.5 47.5q-2 9 2 11.5t12 -1.5t18 -14t21 -25
q28 -44 34 -85.5t-9.5 -74t-51.5 -52t-92 -18.5z" />
    <glyph glyph-name="bracketleft" unicode="[" horiz-adv-x="404" 
d="M344 869q16 -5 24 -16t8 -23t-8.5 -22t-24.5 -13q-14 0 -29 1t-37 1l-70 -423l-61 -360q14 -1 28 -1.5t25 -0.5q16 -5 25 -15t10.5 -22t-5 -22.5t-22.5 -15.5q-25 0 -50 1t-54 2q-20 4 -31 17.5t-9 33.5q20 108 37.5 213.5t35.5 212.5l17 113l55 318q6 13 13.5 18.5
t21.5 5.5q23 0 46.5 -1t54.5 -2z" />
    <glyph glyph-name="backslash" unicode="\" horiz-adv-x="282" 
d="M-69 787q94 -198 191 -394.5t190 -394.5q3 -10 -4.5 -16t-18.5 -7.5t-22.5 2.5t-16.5 14q-92 198 -188 393.5t-189 393.5q-1 9 5.5 14.5t16.5 7t20 -1.5t16 -11z" />
    <glyph glyph-name="bracketright" unicode="]" horiz-adv-x="440" 
d="M111 -60q-18 3 -28 14t-10.5 24t7.5 24t26 13h67l130 780q-1 0 0 0.5t0 0.5q-13 1 -25 1.5t-24 0.5q-17 3 -27 14.5t-11.5 24.5t7 23.5t27.5 11.5q21 0 44.5 -1.5t59.5 -1.5q17 -5 24 -15t9 -30l-75 -442l-23 -139q-13 -69 -23.5 -136t-22.5 -137q-5 -16 -11.5 -22.5
t-17.5 -10.5q-23 0 -48 1t-53 2h-2z" />
    <glyph glyph-name="asciicircum" unicode="^" horiz-adv-x="832" 
d="M181 108q42 46 86.5 88t89.5 84t89.5 84.5t86.5 89.5q20 12 39.5 2.5t25.5 -35.5q7 -87 24 -173t25 -174q-2 -15 -11.5 -23.5t-20.5 -9t-22 7t-16 23.5q-8 67 -21 133.5t-21 132.5q-73 -73 -150.5 -140t-146.5 -143q-14 -12 -29 -10t-25 11t-12.5 23.5t9.5 28.5z" />
    <glyph glyph-name="underscore" unicode="_" horiz-adv-x="584" 
d="M35 -88q-15 3 -21 15.5t-5 27t10 26.5t24 13l520 6q13 -6 17.5 -18t2.5 -24.5t-10 -24t-20 -15.5l-518 -6v0z" />
    <glyph glyph-name="grave" unicode="`" 
d="M374 545q0 -5 -2 -12t-14 -5q-53 23 -99 50.5t-75 45.5q-13 9 -14 22.5t5.5 24t19 14.5t27.5 -5q19 -15 45 -35.5t50 -41t40.5 -36.5t16.5 -22z" />
    <glyph glyph-name="braceleft" unicode="{" horiz-adv-x="547" 
d="M277 910q22 9 40 8.5t29 -9t13 -22.5t-9 -31q-35 -14 -51 -40.5t-20.5 -61t-0.5 -74t10 -78.5q5 -36 8.5 -72t0.5 -68.5t-14.5 -59t-35.5 -41.5q32 -22 48 -46t23 -49q10 -38 0.5 -77t-21.5 -77t-21.5 -74.5t0.5 -71.5q8 -30 39 -61q10 -16 4.5 -28t-18 -17.5t-29.5 -3
t-31 16.5q-17 16 -27 34t-15 38q-11 40 -3 82t20 84q13 40 21 80.5t-1 75.5q-4 14 -17 27t-31.5 25t-42 23t-47.5 21l27 15h-1q29 17 53 34.5t31 43.5q2 29 -1 66t-8 76q-6 46 -9.5 94t2 90t25 75.5t60.5 52.5z" />
    <glyph glyph-name="bar" unicode="|" horiz-adv-x="161" 
d="M107 -24q-5 -6 -14.5 -9.5t-19 -3.5t-18 3t-9.5 9q-5 211 -9 420t-8 420q0 6 7 9.5t17 4t18.5 -2.5t11.5 -9l24 -841v0z" />
    <glyph glyph-name="braceright" unicode="}" horiz-adv-x="565" 
d="M243 -147q-14 -14 -30.5 -15.5t-30 5.5t-20 21t1.5 31q15 17 21 39t6 47t-4 52.5t-9 55.5q-8 37 -12 75.5t-0.5 74t18.5 67t46 55.5q-20 23 -34 49.5t-21 52.5q-13 48 -11.5 100t6.5 100q3 37 4.5 69t-5.5 57q-5 17 -14 27.5t-29 15.5q-18 15 -23 30.5t1 27t21 15
t35 -5.5q36 -14 56 -38t28 -54q9 -33 7.5 -72.5t-6.5 -84.5q-4 -45 -6 -90.5t9 -87.5q11 -36 39 -68t86 -58q-59 -24 -87.5 -57t-37.5 -71.5t-4 -80t13 -82.5q5 -29 9 -56.5t4.5 -53t-5 -48.5t-20.5 -42z" />
    <glyph glyph-name="asciitilde" unicode="~" horiz-adv-x="697" 
d="M191 173q-8 -9 -20.5 -11.5t-23.5 1.5t-19 13t-8 21q4 17 18.5 38.5t35.5 39t47 25.5t54 -2q20 -7 34.5 -21t26.5 -31t23 -33t24.5 -26.5t30 -13t39.5 9.5q21 11 37.5 25.5t24.5 34.5q7 12 20.5 15t25.5 -1t20 -14t5 -23q-9 -23 -27.5 -49.5t-45 -46.5t-61 -29t-74.5 4
q-21 7 -42.5 29t-41.5 44.5t-38.5 36.5t-32.5 5q-25 -16 -32 -41z" />
    <glyph glyph-name="circumflex" unicode="&#x2c6;" 
d="M196 563q1 0 13 7.5t30.5 19t40.5 23.5t42.5 22.5t35.5 16t21 2.5q7 -3 19 -22t24 -40.5t20.5 -39.5t8.5 -19q0 -17 -12.5 -19.5t-23.5 11.5q-8 8 -12.5 14t-9 11.5t-9.5 11.5t-14 14q-16 -5 -35.5 -11t-39.5 -12.5t-39.5 -13t-35.5 -12.5q-15 -2 -22 3t-9 12t0.5 13.5
t6.5 7.5z" />
    <glyph glyph-name="tilde" unicode="&#x2dc;" 
d="M312 563q-4 -7 -11 -8.5t-13.5 1t-11.5 9t-6 15.5q2 13 9 29t17.5 28.5t24.5 18.5t30 -1q17 -8 29 -27t22.5 -36t23 -26t31.5 4q10 8 18.5 19t12.5 25q3 9 10.5 11t14 -1t11.5 -10t4 -17q-4 -17 -13 -36.5t-23 -34.5t-32.5 -21t-40.5 3q-12 5 -25 21.5t-25.5 33t-23.5 27
t-18 3.5q-14 -12 -15 -30z" />
    <glyph glyph-name="macron" unicode="&#xaf;" 
d="M278 532q-11 1 -15 8.5t-1.5 16t9.5 15.5t17 7h206q10 -3 13 -10t0.5 -14.5t-8.5 -14t-15 -8.5h-206v0z" />
    <glyph glyph-name="breve" unicode="&#x2d8;" 
d="M256 648q0 9 4.5 13t11 3.5t12.5 -6t8 -15.5q4 -28 21.5 -47.5t42.5 -16.5q12 1 25.5 9t25.5 19t21.5 24t12.5 25q9 11 21.5 2.5t11.5 -23.5q-4 -15 -15 -34t-28.5 -36t-39.5 -28t-47 -9q-41 4 -61 39t-27 81z" />
    <glyph glyph-name="dotaccent" unicode="&#x2d9;" 
d="M135 603q-6 23 5 39t34 16t43 -16t26 -39q5 -23 -6 -39t-34 -16t-43 16t-25 39z" />
    <glyph glyph-name="ring" unicode="&#x2da;" 
d="M287 605q5 32 22.5 58t51.5 33q22 4 41 -4t33 -23t22 -35t7 -40q-3 -30 -18.5 -54.5t-43.5 -35.5q-26 -9 -47 -3.5t-36.5 20.5t-24 37.5t-7.5 46.5zM329 594q-2 -37 17.5 -50.5t49.5 7.5q12 9 18 23.5t8 30.5q1 11 -2 22t-10 18.5t-17 10.5t-22 -2q-19 -8 -29.5 -24
t-12.5 -36z" />
    <glyph glyph-name="cedilla" unicode="&#xb8;" 
d="M313 23q11 0 28 -1t23 -1q0 -1 -4 -9t-9.5 -17.5t-10 -18t-5.5 -11.5q20 -2 39.5 -9.5t38.5 -21.5q18 -15 25 -33.5t4 -35.5t-13.5 -31.5t-26.5 -20.5q-30 -11 -64 -8t-70 16q-9 5 -12 12.5t-1.5 13.5t6.5 10t13 1q18 -6 36 -9.5t33 -2.5t26 6t14 16q2 11 -4.5 21.5
t-18 18t-26.5 11.5t-30 3q-14 1 -22 8.5t-4 21.5q9 18 19.5 36t15.5 35z" />
    <glyph glyph-name="hungarumlaut" unicode="&#x2dd;" horiz-adv-x="675" 
d="M183 545q-3 6 4.5 22t20.5 36.5t28.5 41t26.5 35.5q10 9 25 5t27 -14.5t17.5 -24t-1.5 -22.5q-19 -18 -51 -45.5t-73 -50.5q-11 -2 -16 5t-8 12zM-3 545q-3 6 4.5 22t20.5 36.5t28 41t26 35.5q10 9 25 5t27 -14.5t17.5 -24t-1.5 -22.5q-19 -18 -51 -45.5t-73 -50.5
q-11 -2 -16 5t-7 12z" />
    <glyph glyph-name="ogonek" unicode="&#x2db;" 
d="M317 24q1 3 8 4t16 1t18 -0.5t14 -1.5q-6 -6 -13 -17.5t-13 -24.5t-11 -24.5t-7 -17.5q-5 -17 5 -32.5t42 -24.5q12 -3 16.5 -9.5t3 -13.5t-8.5 -12t-17 -5q-19 7 -36 15t-29.5 19.5t-18.5 26.5t-3 36q5 21 14 40t20 41z" />
    <glyph glyph-name="caron" unicode="&#x2c7;" 
d="M483 622q0 -1 -12 -9t-30.5 -19t-40.5 -23t-42.5 -22t-36.5 -15.5t-21 -2.5q-7 3 -19 22t-24 40.5t-20.5 39.5t-8.5 19q-4 19 8.5 22.5t27.5 -14.5q7 -8 12 -14t9 -11.5t9.5 -11.5t14.5 -14q16 4 35.5 10.5t39.5 13t39 13t36 12.5q11 1 18.5 -3.5t11 -10.5t2 -12
t-7.5 -10z" />
    <glyph glyph-name="dieresis" unicode="&#xa8;" 
d="M378 589q-6 23 5 39.5t34 16.5t42.5 -16.5t25.5 -39.5q7 -23 -4.5 -39t-34.5 -16t-42 16t-26 39zM213 588q-6 23 4 39.5t33 16.5t43.5 -16.5t26.5 -39.5t-5.5 -39t-34.5 -16t-42 16t-25 39z" />
    <glyph glyph-name="acute" unicode="&#xb4;" 
d="M387 545q-3 6 4.5 22t20.5 36.5t28.5 41t26.5 35.5q10 9 25 5t27 -14.5t17.5 -24t-1.5 -22.5q-19 -18 -51 -45.5t-73 -50.5q-11 -2 -16 5t-8 12z" />
    <glyph glyph-name="Adieresis" unicode="&#xc4;" horiz-adv-x="1264" 
d="M326 -22q40 1 69 20t51 52t40.5 78t38.5 99.5t44 116t58 127.5q-60 20 -110 26t-80 4q-100 -6 -168.5 -47t-104.5 -101.5t-38.5 -133.5t28.5 -143q23 -51 67.5 -75t104.5 -23zM779 490q46 -30 83 -69t60 -87q9 63 26.5 129t39.5 129t47 120.5t49 105.5
q-81 -35 -155.5 -115t-149.5 -213zM667 544q51 88 105.5 159.5t115.5 123.5t130.5 83.5t151.5 39.5q13 1 25 -1t21 -8t12.5 -16.5t-0.5 -25.5q-13 -37 -32.5 -102.5t-39.5 -148t-37.5 -176.5t-26 -186.5t-5.5 -178.5t24 -153q3 -9 4 -17t-1.5 -12t-10 -3.5t-22.5 9.5
q-35 20 -63 44t-47.5 47.5t-30.5 43.5t-12 32t-4 35.5t-9.5 52.5t-18.5 62t-32.5 64.5t-50 59.5t-70.5 48q-30 -67 -50 -138t-38 -138t-38.5 -127t-51.5 -106t-77.5 -74.5t-116.5 -31.5q-64 -3 -121 16.5t-103.5 53.5t-81 77t-53.5 87q-24 57 -31 119.5t4 123.5t42.5 116.5
t85 97.5t130 67t179.5 25q57 0 119.5 -10.5t125.5 -33.5zM1300 1068q-6 23 4.5 39.5t33.5 16.5t43 -16.5t26 -39.5t-5 -39t-34 -16t-42.5 16t-25.5 39zM1135 1067q-7 23 3.5 39.5t33.5 16.5t43 -16.5t27 -39.5q6 -23 -5.5 -39t-34.5 -16t-42 16t-25 39z" />
    <glyph glyph-name="Ccedilla" unicode="&#xc7;" horiz-adv-x="771" 
d="M775 326q3 8 12 7.5t17.5 -5.5t14 -13t2.5 -16q-30 -69 -58 -128.5t-64.5 -112t-85.5 -98.5t-119 -88q-32 -19 -81.5 -31t-103.5 -10q-5 -9 -8.5 -16.5t-4.5 -9.5q20 -2 39.5 -9.5t37.5 -21.5q19 -15 25.5 -33.5t4 -35.5t-13 -31.5t-26.5 -20.5q-30 -11 -64 -8t-70 16
q-9 5 -12 12.5t-1.5 13.5t6.5 10t13 1q18 -6 36 -9.5t33 -2.5t25.5 6t13.5 16t-3.5 21.5t-18 18t-26.5 11.5t-30 3q-14 1 -22 8.5t-4 21.5q5 11 11.5 22.5t11.5 22.5q-20 4 -40.5 11.5t-37.5 18.5q-25 16 -50.5 32.5t-49.5 37t-45.5 47.5t-38.5 65q-24 53 -34 112t-4.5 123
t28 132.5t64.5 140.5q-64 21 -114 56.5t-70 87.5q-14 37 -3.5 69.5t43 56.5t84.5 38.5t121 15.5q57 1 111 -7.5t101 -25.5q62 42 127.5 68.5t125.5 30.5q70 4 115 -20.5t66 -61.5t18.5 -79.5t-26.5 -75.5q-31 -41 -76 -74.5t-99 -57.5t-114.5 -38.5t-121.5 -17.5
q-18 -2 -38 -2t-41 1q-39 -54 -68.5 -112.5t-44.5 -120.5t-13.5 -126t25.5 -127q13 -35 37.5 -54.5t49.5 -28.5t45.5 -11t26.5 -2q66 0 131.5 29t125.5 81t110.5 123t86.5 154zM428 701q-29 -25 -57.5 -53.5t-56.5 -60.5q2 0 3 0.5t3 0.5q53 3 110.5 15.5t109.5 33.5
t93.5 50.5t62.5 66.5q10 18 15.5 34t4 28t-11.5 18t-31 5q-35 -2 -88.5 -29.5t-113.5 -73.5q8 -15 12 -31.5t6 -34.5q1 -12 -6.5 -16.5t-17.5 -3t-19.5 9t-12.5 18.5q-1 10 -5 23zM-43 701q11 -30 48 -50.5t87 -34.5q11 16 23.5 32t25.5 33q27 32 58.5 63t67.5 60
q-31 6 -64 8.5t-66 1.5q-37 -1 -72.5 -11.5t-61.5 -27t-39.5 -36t-6.5 -38.5z" />
    <glyph glyph-name="Atilde" unicode="&#xc3;" horiz-adv-x="1264" 
d="M326 -22q40 1 69 20t51 52t40.5 78t38.5 99.5t44 116t58 127.5q-60 20 -110 26t-80 4q-100 -6 -168.5 -47t-104.5 -101.5t-38.5 -133.5t28.5 -143q23 -51 67.5 -75t104.5 -23zM779 490q46 -30 83 -69t60 -87q9 63 26.5 129t39.5 129t47 120.5t49 105.5
q-81 -35 -155.5 -115t-149.5 -213zM667 544q51 88 105.5 159.5t115.5 123.5t130.5 83.5t151.5 39.5q13 1 25 -1t21 -8t12.5 -16.5t-0.5 -25.5q-13 -37 -32.5 -102.5t-39.5 -148t-37.5 -176.5t-26 -186.5t-5.5 -178.5t24 -153q3 -9 4 -17t-1.5 -12t-10 -3.5t-22.5 9.5
q-35 20 -63 44t-47.5 47.5t-30.5 43.5t-12 32t-4 35.5t-9.5 52.5t-18.5 62t-32.5 64.5t-50 59.5t-70.5 48q-30 -67 -50 -138t-38 -138t-38.5 -127t-51.5 -106t-77.5 -74.5t-116.5 -31.5q-64 -3 -121 16.5t-103.5 53.5t-81 77t-53.5 87q-24 57 -31 119.5t4 123.5t42.5 116.5
t85 97.5t130 67t179.5 25q57 0 119.5 -10.5t125.5 -33.5zM1147 1032q-8 -14 -23.5 -7.5t-17.5 24.5q2 13 9 29t17.5 28.5t24.5 18.5t30 -1q17 -8 29 -27t22.5 -36t23 -26t30.5 4q11 8 19.5 19t12.5 25q3 9 10.5 11t14 -1t11.5 -10t4 -17q-4 -17 -13 -36.5t-23 -34.5
t-32.5 -21t-40.5 3q-12 5 -25 21.5t-25.5 33t-23.5 27t-18 3.5q-13 -11 -16 -30z" />
    <glyph glyph-name="dotlessi" unicode="&#x131;" horiz-adv-x="289" 
d="M110 -12q-34 -1 -58.5 13.5t-40.5 39t-24.5 56.5t-11 67.5t0.5 71t9 66.5q4 18 8.5 42.5t7.5 50t4 47.5t-2 36q-2 9 10 5.5t27 -10.5q10 -4 25 -14.5t30.5 -23.5t27.5 -26t16 -21q4 -11 4 -30.5t-1.5 -42t-5 -44.5t-7.5 -38q-6 -27 -10 -57t-4.5 -55t2.5 -41.5t10 -16.5
q22 1 45 29t44 67t38.5 81t30.5 72q4 9 13 8.5t18 -6.5t14.5 -15t1.5 -18q-10 -22 -22.5 -52.5t-27.5 -63t-33 -64t-39.5 -56.5t-46 -40.5t-53.5 -16.5z" />
    <glyph glyph-name="Ecircumflex" unicode="&#xca;" horiz-adv-x="836" 
d="M736 722q-20 -7 -35 -2.5t-22 14t-5 20.5t17 18q10 5 16.5 12t4.5 15.5t-14 19t-38 22.5q-25 11 -71 14t-99 -2t-107 -18t-95 -33.5t-61.5 -48.5t-6.5 -63q9 -25 35.5 -42.5t61.5 -31t75 -24.5t76 -21.5t64.5 -22.5t41.5 -28q17 -21 25.5 -35t12.5 -24.5t5.5 -19
t5.5 -18.5q-57 -2 -121.5 -15.5t-125.5 -37t-115 -56.5t-90.5 -74.5t-51 -90t2.5 -103.5q10 -32 32.5 -57.5t50 -43.5t57.5 -27t54 -8q79 3 157 33.5t147 84.5t126 129.5t95 169.5q3 8 12 8t17.5 -5t14 -13.5t2.5 -17.5q-26 -72 -58 -137.5t-77 -124.5t-106 -109.5
t-144 -92.5q-35 -18 -82.5 -27.5t-99.5 -8.5t-105 14.5t-100 43t-84 76t-56 113.5q-26 87 -18 154t39 117t79 85.5t102 59t108 37.5t97 21q-50 1 -99.5 13t-92.5 33.5t-75 50.5t-47 64q-24 58 -11 110.5t59.5 93.5t124 67t182.5 32q27 1 60 2t67.5 -1.5t69 -10.5t64.5 -24
t53.5 -42t37.5 -65q13 -37 5.5 -72.5t-44.5 -48.5zM442 1079q1 0 13.5 7.5t31 19t40.5 23.5t42.5 22.5t35.5 16t21 2.5q7 -3 19 -22t24 -40.5t20.5 -39.5t8.5 -19q0 -17 -12.5 -19.5t-23.5 11.5q-8 8 -12.5 14t-9 11.5t-9.5 11.5t-14 14q-16 -5 -35.5 -11t-39.5 -12.5
t-39.5 -13t-35.5 -12.5q-15 -2 -22 3t-9 12t0 13.5t6 7.5z" />
    <glyph glyph-name="Edieresis" unicode="&#xcb;" horiz-adv-x="836" 
d="M736 722q-20 -7 -35 -2.5t-22 14t-5 20.5t17 18q10 5 16.5 12t4.5 15.5t-14 19t-38 22.5q-25 11 -71 14t-99 -2t-107 -18t-95 -33.5t-61.5 -48.5t-6.5 -63q9 -25 35.5 -42.5t61.5 -31t75 -24.5t76 -21.5t64.5 -22.5t41.5 -28q17 -21 25.5 -35t12.5 -24.5t5.5 -19
t5.5 -18.5q-57 -2 -121.5 -15.5t-125.5 -37t-115 -56.5t-90.5 -74.5t-51 -90t2.5 -103.5q10 -32 32.5 -57.5t50 -43.5t57.5 -27t54 -8q79 3 157 33.5t147 84.5t126 129.5t95 169.5q3 8 12 8t17.5 -5t14 -13.5t2.5 -17.5q-26 -72 -58 -137.5t-77 -124.5t-106 -109.5
t-144 -92.5q-35 -18 -82.5 -27.5t-99.5 -8.5t-105 14.5t-100 43t-84 76t-56 113.5q-26 87 -18 154t39 117t79 85.5t102 59t108 37.5t97 21q-50 1 -99.5 13t-92.5 33.5t-75 50.5t-47 64q-24 58 -11 110.5t59.5 93.5t124 67t182.5 32q27 1 60 2t67.5 -1.5t69 -10.5t64.5 -24
t53.5 -42t37.5 -65q13 -37 5.5 -72.5t-44.5 -48.5zM624 1087q-6 23 4.5 39.5t33.5 16.5t43 -16.5t26 -39.5t-5.5 -39t-34.5 -16t-42 16t-25 39zM459 1086q-7 23 3.5 39.5t33.5 16.5t43 -16.5t27 -39.5q6 -23 -5.5 -39t-34.5 -16t-42 16t-25 39z" />
    <glyph glyph-name="iacute" unicode="&#xed;" horiz-adv-x="289" 
d="M110 -12q-34 -1 -58.5 13.5t-40.5 39t-24.5 56.5t-11 67.5t0.5 71t9 66.5q4 18 8.5 42.5t7.5 50t4 47.5t-2 36q-2 9 10 5.5t27 -10.5q10 -4 25 -14.5t30.5 -23.5t27.5 -26t16 -21q4 -11 4 -30.5t-1.5 -42t-5 -44.5t-7.5 -38q-6 -27 -10 -57t-4.5 -55t2.5 -41.5t10 -16.5
q22 1 45 29t44 67t38.5 81t30.5 72q4 9 13 8.5t18 -6.5t14.5 -15t1.5 -18q-10 -22 -22.5 -52.5t-27.5 -63t-33 -64t-39.5 -56.5t-46 -40.5t-53.5 -16.5zM36 533q-3 6 5 22t21 36.5t28 41t26 35.5q10 9 25 5t27 -14.5t17.5 -24t-1.5 -22.5q-19 -18 -51 -45.5t-73 -50.5
q-11 -2 -16 5t-8 12z" />
    <glyph glyph-name="igrave" unicode="&#xec;" horiz-adv-x="289" 
d="M110 -12q-34 -1 -58.5 13.5t-40.5 39t-24.5 56.5t-11 67.5t0.5 71t9 66.5q4 18 8.5 42.5t7.5 50t4 47.5t-2 36q-2 9 10 5.5t27 -10.5q10 -4 25 -14.5t30.5 -23.5t27.5 -26t16 -21q4 -11 4 -30.5t-1.5 -42t-5 -44.5t-7.5 -38q-6 -27 -10 -57t-4.5 -55t2.5 -41.5t10 -16.5
q22 1 45 29t44 67t38.5 81t30.5 72q4 9 13 8.5t18 -6.5t14.5 -15t1.5 -18q-10 -22 -22.5 -52.5t-27.5 -63t-33 -64t-39.5 -56.5t-46 -40.5t-53.5 -16.5zM101 531q0 -5 -2 -12t-14 -5q-53 23 -98.5 50.5t-74.5 45.5q-13 9 -14 22.5t5.5 24t19 14.5t27.5 -5q19 -15 45 -35.5
t49.5 -41t40 -36.5t16.5 -22z" />
    <glyph glyph-name="idieresis" unicode="&#xef;" horiz-adv-x="289" 
d="M110 -12q-34 -1 -58.5 13.5t-40.5 39t-24.5 56.5t-11 67.5t0.5 71t9 66.5q4 18 8.5 42.5t7.5 50t4 47.5t-2 36q-2 9 10 5.5t27 -10.5q10 -4 25 -14.5t30.5 -23.5t27.5 -26t16 -21q4 -11 4 -30.5t-1.5 -42t-5 -44.5t-7.5 -38q-6 -27 -10 -57t-4.5 -55t2.5 -41.5t10 -16.5
q22 1 45 29t44 67t38.5 81t30.5 72q4 9 13 8.5t18 -6.5t14.5 -15t1.5 -18q-10 -22 -22.5 -52.5t-27.5 -63t-33 -64t-39.5 -56.5t-46 -40.5t-53.5 -16.5zM101 595q-6 23 4.5 39.5t33.5 16.5t43 -16.5t26 -39.5t-5.5 -39t-34.5 -16t-42 16t-25 39zM-64 594q-6 23 4.5 39.5
t33.5 16.5q22 0 42 -16.5t26 -39.5q7 -23 -4.5 -39t-34.5 -16q-22 0 -41 16t-26 39z" />
    <glyph glyph-name="ntilde" unicode="&#xf1;" horiz-adv-x="512" 
d="M363 202q-8 -24 -12.5 -49t-6 -45t0.5 -32.5t8 -12.5q13 0 27 13t28.5 34.5t28.5 48t27 54.5t24 53.5t20 45.5q4 9 13 8.5t18 -6.5t14.5 -15t1.5 -18q-14 -32 -35 -81.5t-49 -96.5t-63 -80.5t-75 -33.5q-46 0 -75 22t-42.5 57.5t-13 80.5t14.5 91q9 30 16.5 58t11 49
t3 34t-6.5 13q-10 0 -24 -7.5t-29.5 -22t-31 -33.5t-27.5 -41q-4 -21 -9.5 -40t-10.5 -37q-18 -61 -27.5 -98.5t-11.5 -55.5q-1 -7 -1.5 -24t1.5 -26q2 -13 -23 -16t-58 8q-26 8 -44.5 28t-19.5 44q-1 17 6 46t17.5 64t22 74t19 77.5t9.5 74t-7 63.5q-3 10 16 6t44 -16.5
t48 -29.5t27 -33q2 -9 3 -17t3 -16l1 11q35 40 71 65t67 25q57 0 83.5 -25t32.5 -64t-2.5 -86t-22.5 -90zM96 575q-4 -7 -10.5 -8.5t-13 1t-11.5 9t-6 15.5q2 13 9 29t17.5 28.5t24.5 18.5t30 -1q17 -8 29 -27t22.5 -36t23 -26t30.5 4q11 8 19.5 19t12.5 25q3 9 10.5 11
t14 -1t11.5 -10t4 -17q-4 -17 -13 -36.5t-23 -34.5t-32.5 -21t-40.5 3q-12 5 -25 21.5t-25.5 33t-23.5 27t-18 3.5q-13 -11 -16 -30z" />
    <glyph glyph-name="fi" unicode="&#xfb01;" horiz-adv-x="672" 
d="M493 -12q-31 -1 -53.5 10.5t-38.5 31t-26 46.5t-14 57q-12 -22 -26.5 -42t-32 -36t-37 -27.5t-42.5 -15.5q0 -57 -10.5 -118t-30 -111.5t-47.5 -82.5t-61 -32q-58 0 -89.5 37t-44.5 96.5t-10.5 134.5t12.5 149.5t24 142.5t25 114q8 38 21.5 85.5t31 96.5t39.5 96t47 83.5
t53 59.5t58 24q29 2 53.5 -12.5t38.5 -53.5q14 -40 13.5 -88.5t-12 -99t-32.5 -100t-48 -92t-58.5 -75t-63.5 -47.5q-2 -5 -2.5 -9.5t-2.5 -9.5q37 -1 59 -32.5t31 -81.5q19 9 38.5 26.5t38 41.5t35.5 52.5t32 59.5l6 36q4 18 8.5 42.5t8 50t4.5 47.5t-2 36q-2 9 10 5.5
t27 -10.5q10 -4 25 -14.5t30.5 -23.5t27.5 -26t16 -21q4 -11 4 -30.5t-1.5 -42t-5 -44.5t-7.5 -38q-6 -27 -10 -57t-4.5 -55t2.5 -41.5t10 -16.5q22 1 45 29t44 67t38.5 81t30.5 72q4 9 13 8.5t18 -6.5t14.5 -15t1.5 -18q-10 -22 -22.5 -52.5t-27.5 -63t-33 -64t-39.5 -56.5
t-46 -40.5t-53.5 -16.5zM158 14q-43 8 -68 34q-13 -54 -24 -108.5t-15.5 -98t-1 -71t19.5 -27.5q19 0 34.5 27t27 67.5t18.5 87.5t9 89zM279 715q-7 1 -16.5 -20t-21 -55.5t-23.5 -79t-24 -90t-23 -89t-19 -75.5q12 13 26 32t28.5 43.5t28.5 53t26 60.5q15 38 22.5 77
t9 70.5t-2.5 51.5t-11 21zM402 619q7 27 32.5 36.5t54.5 -6.5q30 -16 46 -46.5t9 -58.5q-7 -29 -33.5 -37.5t-55.5 6.5q-29 16 -44.5 46.5t-8.5 59.5z" />
    <glyph glyph-name="fl" unicode="&#xfb02;" horiz-adv-x="726" 
d="M549 -11q-73 0 -118.5 41t-67.5 106q-26 -45 -59.5 -80.5t-80.5 -43.5q0 -57 -10.5 -118t-30 -111.5t-47.5 -82.5t-61 -32q-58 0 -89.5 37t-44.5 96.5t-10.5 134.5t12.5 149.5t24 142.5t25 114q8 38 21.5 85.5t31 96.5t39.5 96t47 83.5t53 59.5t58 24q29 2 53.5 -12.5
t38.5 -53.5q14 -40 13.5 -88.5t-12 -99t-32.5 -100t-48 -92t-58.5 -75t-63.5 -47.5q-2 -5 -2.5 -9.5t-2.5 -9.5q37 -1 59 -32.5t31 -81.5q33 15 65.5 54t60.5 90q-4 42 -1.5 85.5t11.5 86.5q7 37 17 80t23.5 85t30 80.5t38 67.5t47 46.5t56.5 17.5q27 0 47.5 -10.5t35 -26.5
t21.5 -34t7 -34q1 -43 -13.5 -102t-41 -117t-62 -106t-75.5 -68q-7 -43 -1 -82.5t17 -69.5t25 -48t23 -18q33 0 59.5 27.5t47.5 67t37.5 82t29.5 72.5q4 9 13 8.5t18 -6.5t14.5 -15t1.5 -18q-15 -34 -34.5 -83.5t-46 -96t-61 -79.5t-78.5 -33zM158 14q-43 8 -68 34
q-13 -54 -24 -108.5t-15.5 -98t-1 -71t19.5 -27.5q19 0 34.5 27t27 67.5t18.5 87.5t9 89zM279 715q-7 1 -16.5 -20t-21 -55.5t-23.5 -79t-24 -90t-23 -89t-19 -75.5q12 13 26 32t28.5 43.5t28.5 53t26 60.5q15 38 22.5 77t9 70.5t-2.5 51.5t-11 21zM607 722q-6 0 -14.5 -17
t-18.5 -45.5t-20.5 -65.5t-20.5 -76.5t-18.5 -78.5t-14.5 -71q22 19 42.5 53t37 73t28.5 79.5t16.5 73.5t0.5 54t-18 21z" />
    <glyph glyph-name="ellipsis" unicode="&#x2026;" horiz-adv-x="788" 
d="M167 58q-7 24 5.5 41t36.5 17q23 0 44.5 -17t28.5 -41q6 -25 -6 -41.5t-35 -16.5q-24 0 -46 16.5t-28 41.5zM360 51q-7 24 5.5 41t36.5 17q23 0 44.5 -17t28.5 -41q6 -25 -6.5 -41.5t-35.5 -16.5q-24 0 -45.5 16.5t-27.5 41.5zM549 58q-7 24 5.5 41t36.5 17
q23 0 44.5 -17t28.5 -41q6 -25 -6 -41.5t-35 -16.5q-24 0 -46 16.5t-28 41.5z" />
    <glyph glyph-name="cent" unicode="&#xa2;" horiz-adv-x="605" 
d="M337 -43q-2 -9 -9 -12.5t-15.5 -2t-15.5 7.5t-9 15v27q-65 4 -110.5 42.5t-67 94.5t-18 120.5t37.5 118.5q32 51 70.5 74t74.5 27l2 51q0 12 6.5 16t14.5 1.5t14.5 -9t6.5 -15.5l-1 -45q26 -3 46 -11.5t35 -20.5t24 -25t14 -25q3 -9 6.5 -23.5t2 -33.5t-12 -40t-35.5 -43
q-7 -6 -16 -4.5t-16 7.5t-10 14t3 15q16 18 21.5 35t3 30t-12 21t-22.5 8q-5 0 -12 -1.5t-15 -6.5q2 -72 5.5 -144.5t5.5 -144.5q25 3 46 12.5t38 24t31.5 33t27.5 39.5q5 9 15 8t19.5 -7t15 -15.5t2.5 -19.5q-15 -29 -33.5 -55.5t-41.5 -47.5t-52.5 -35t-65.5 -19
q1 -9 1 -18t1 -18zM260 295q-13 -23 -18.5 -51.5t-3.5 -57t13.5 -54t32.5 -40.5l-6 231q-5 -6 -9 -13t-9 -15z" />
    <glyph glyph-name="Euro" unicode="&#x20ac;" horiz-adv-x="607" 
d="M43 316q-16 3 -24 15.5t-8.5 27t7 26.5t22.5 13h41q16 40 40 74t54 59t64 38.5t70 13.5q28 0 57 -7.5t55 -25.5t48.5 -48t36.5 -76q-13 -6 -34.5 -5.5t-42.5 5.5t-36 12.5t-15 13.5q-10 37 -33 37q-20 0 -44 -24.5t-47 -66.5h84q14 -6 20.5 -18t6.5 -24.5t-6 -24
t-18 -15.5h-122q-3 -10 -6.5 -19.5t-5.5 -20.5l-6 -19h127q15 -6 22 -18t7 -24.5t-6.5 -24t-18.5 -15.5h-147q-6 -50 3 -81t32 -31q30 0 64 47q1 10 24.5 17.5t54 9t59.5 -3.5t42 -21q-37 -59 -90 -94.5t-113 -35.5q-37 0 -69.5 14.5t-59 40t-45 61t-27.5 77.5h-26
q-15 3 -23 15.5t-9 27t6 26.5t22 13h23q0 6 0.5 12t1.5 13q0 17 3 34h-15v0z" />
    <glyph glyph-name="fraction" unicode="&#x2044;" horiz-adv-x="423" 
d="M188 787q3 8 12.5 11t20 1.5t19.5 -7t11 -14.5q-20 -198 -42.5 -393.5t-42.5 -393.5q-1 -10 -11 -14t-21 -2.5t-21 7.5t-11 16q20 198 44 394.5t42 394.5z" />
    <glyph glyph-name="Aring" unicode="&#xc5;" horiz-adv-x="1264" 
d="M326 -22q40 1 69 20t51 52t40.5 78t38.5 99.5t44 116t58 127.5q-60 20 -110 26t-80 4q-100 -6 -168.5 -47t-104.5 -101.5t-38.5 -133.5t28.5 -143q23 -51 67.5 -75t104.5 -23zM779 490q46 -30 83 -69t60 -87q9 63 26.5 129t39.5 129t47 120.5t49 105.5
q-81 -35 -155.5 -115t-149.5 -213zM667 544q51 88 105.5 159.5t115.5 123.5t130.5 83.5t151.5 39.5q13 1 25 -1t21 -8t12.5 -16.5t-0.5 -25.5q-13 -37 -32.5 -102.5t-39.5 -148t-37.5 -176.5t-26 -186.5t-5.5 -178.5t24 -153q3 -9 4 -17t-1.5 -12t-10 -3.5t-22.5 9.5
q-35 20 -63 44t-47.5 47.5t-30.5 43.5t-12 32t-4 35.5t-9.5 52.5t-18.5 62t-32.5 64.5t-50 59.5t-70.5 48q-30 -67 -50 -138t-38 -138t-38.5 -127t-51.5 -106t-77.5 -74.5t-116.5 -31.5q-64 -3 -121 16.5t-103.5 53.5t-81 77t-53.5 87q-24 57 -31 119.5t4 123.5t42.5 116.5
t85 97.5t130 67t179.5 25q57 0 119.5 -10.5t125.5 -33.5zM1161 1092q5 32 22.5 58t51.5 33q22 4 41.5 -4t33.5 -23t22 -35t7 -40q-3 -30 -19 -54.5t-44 -35.5q-26 -9 -47 -3.5t-36.5 20.5t-24 37.5t-7.5 46.5zM1204 1081q-3 -37 17 -50.5t49 7.5q12 9 18 23.5t8 30.5
q2 11 -1.5 22t-10.5 18.5t-17 10.5t-22 -2q-19 -8 -29 -24t-12 -36z" />
    <glyph glyph-name="Eacute" unicode="&#xc9;" horiz-adv-x="836" 
d="M736 722q-20 -7 -35 -2.5t-22 14t-5 20.5t17 18q10 5 16.5 12t4.5 15.5t-14 19t-38 22.5q-25 11 -71 14t-99 -2t-107 -18t-95 -33.5t-61.5 -48.5t-6.5 -63q9 -25 35.5 -42.5t61.5 -31t75 -24.5t76 -21.5t64.5 -22.5t41.5 -28q17 -21 25.5 -35t12.5 -24.5t5.5 -19
t5.5 -18.5q-57 -2 -121.5 -15.5t-125.5 -37t-115 -56.5t-90.5 -74.5t-51 -90t2.5 -103.5q10 -32 32.5 -57.5t50 -43.5t57.5 -27t54 -8q79 3 157 33.5t147 84.5t126 129.5t95 169.5q3 8 12 8t17.5 -5t14 -13.5t2.5 -17.5q-26 -72 -58 -137.5t-77 -124.5t-106 -109.5
t-144 -92.5q-35 -18 -82.5 -27.5t-99.5 -8.5t-105 14.5t-100 43t-84 76t-56 113.5q-26 87 -18 154t39 117t79 85.5t102 59t108 37.5t97 21q-50 1 -99.5 13t-92.5 33.5t-75 50.5t-47 64q-24 58 -11 110.5t59.5 93.5t124 67t182.5 32q27 1 60 2t67.5 -1.5t69 -10.5t64.5 -24
t53.5 -42t37.5 -65q13 -37 5.5 -72.5t-44.5 -48.5zM449 1041q-4 6 4 22t21 36.5t28 41t26 35.5q10 9 25 5t27 -14.5t17.5 -24t-1.5 -22.5q-19 -18 -50.5 -45.5t-72.5 -50.5q-11 -2 -16.5 5t-7.5 12z" />
    <glyph glyph-name="Ntilde" unicode="&#xd1;" horiz-adv-x="972" 
d="M347 -14q1 -23 0 -37.5t-7.5 -18.5t-21.5 4t-42 29q-18 14 -40.5 33.5t-42.5 40t-33.5 40.5t-13.5 36q-3 72 12.5 162.5t48.5 186t83.5 189.5t118.5 172q-44 4 -99.5 -14t-111 -50t-106.5 -74.5t-86.5 -87.5t-51 -89.5t-0.5 -79.5q9 -22 26 -45t44 -28q13 -2 21 -10
t10 -15.5t-3.5 -13t-19.5 -3.5q-19 1 -48 6t-60.5 19.5t-61.5 42.5t-51 76q-24 54 -15 103.5t41 93.5t83 82.5t110 69t121 53t117.5 35.5t99 16t65.5 -6q54 -22 69 -56.5t3 -64.5q-15 -38 -32 -81t-34.5 -88.5t-34 -91.5t-29.5 -89q56 89 119.5 171.5t127 148.5t123 111
t106.5 58q43 12 74 2t50.5 -30t27 -43.5t3.5 -38.5q-3 -14 -18 -45t-36 -77t-44.5 -104t-43.5 -125t-34 -140.5t-16 -150.5t11.5 -155.5t47.5 -154.5q4 -10 8.5 -19t4 -15t-8 -7t-26.5 6q-35 13 -82 35.5t-89 58.5q-19 17 -27.5 30.5t-15.5 39.5q-24 100 -16.5 197.5
t31.5 185t58 163t63 131t46.5 88.5t8.5 37q-16 7 -44.5 -11t-63.5 -53t-74.5 -84t-79.5 -105t-77 -115.5t-67 -115t-50 -104t-26 -82.5q-5 -51 -1.5 -84.5t2.5 -50.5zM550 1012q-4 -7 -10.5 -8.5t-13 1t-11.5 9t-6 15.5q2 13 9 29t17.5 28.5t24.5 18.5t30 -1q17 -8 28.5 -27
t22 -36t23 -26t31.5 4q11 8 19 19t12 25q3 9 10.5 11t14 -1t11.5 -10t4 -17q-3 -17 -12 -36.5t-23 -34.5t-32.5 -21t-41.5 3q-12 5 -24.5 21.5l-25 33t-23.5 27t-19 3.5q-12 -12 -15 -30z" />
    <glyph glyph-name="Odieresis" unicode="&#xd6;" horiz-adv-x="1004" 
d="M344 973q11 5 28 -12.5t34 -45.5q49 26 95 32q52 7 103 -1.5t97 -32t84 -62t64 -90.5q44 -90 59 -173t9 -160t-28 -149t-52 -139q-33 -72 -83.5 -132t-109.5 -104t-122.5 -70.5t-121.5 -30.5q-65 -5 -126.5 5t-116 38t-99.5 75.5t-78 116.5q-43 91 -48.5 187t16 190
t64.5 181.5t97.5 161.5t115.5 129.5t119 85.5zM522 345q-11 -37 -36.5 -60t-59.5 -31.5t-72 -3.5t-73.5 23.5t-65.5 50.5t-46 76l-2 5q-26 -53 -45.5 -111t-28 -115.5t-3 -111.5t29.5 -99q16 -29 37 -45.5t42.5 -24t42.5 -8.5t36 0q58 4 115 32.5t109.5 75t98.5 108
t83 130.5t62.5 142.5t36.5 144.5t5.5 136t-30.5 117q-25 53 -61.5 72.5t-78 14t-85.5 -32t-84.5 -65t-74.5 -85.5t-55.5 -94t-27.5 -89.5t9 -72.5t39.5 -43.5t50 -15.5t47.5 4.5t33 15.5q9 7 19.5 6.5t19 -7t12.5 -17t1 -22.5zM637 1042q-6 23 4.5 39.5t33.5 16.5t43 -16.5
t26 -39.5t-5 -39t-34 -16t-42.5 16t-25.5 39zM472 1041q-7 23 3.5 39.5t33.5 16.5t43 -16.5t27 -39.5q6 -23 -5.5 -39t-34.5 -16t-42 16t-25 39z" />
    <glyph glyph-name="Udieresis" unicode="&#xdc;" horiz-adv-x="1167" 
d="M984 896q11 16 33.5 22.5t45.5 2.5t40.5 -17t19.5 -36q-11 -22 -24.5 -67t-26.5 -105.5t-25 -133t-20.5 -150t-13 -156.5t-2 -152t12.5 -137t30 -111q3 -8 4 -15.5t-2 -11t-10.5 -3t-21.5 8.5q-34 19 -65.5 43t-56 47.5t-40.5 44.5t-20 33q-11 36 -15.5 83t-4 100.5
t6 112t14.5 117.5q-26 -64 -56 -129.5t-65 -127t-76 -115t-89.5 -93t-105 -62t-122.5 -21.5q-50 0 -88 19t-65 45.5t-43 54t-22 45.5q-12 36 -6.5 85.5t23.5 107t46 120t61 125.5t68 123.5t66.5 114t57 97t39.5 71.5q-44 4 -101 -10.5t-114.5 -41.5t-111 -63.5t-91 -77
t-54.5 -81t-2 -76.5q9 -22 24 -43t41 -29q13 -4 20.5 -13t9 -18t-4 -15t-19.5 -4q-20 1 -51 7t-65.5 21.5t-67.5 44.5t-55 77q-32 71 -14.5 129.5t68 104t127.5 78.5t163.5 53.5t175.5 28t164 3.5q61 -4 78 -25t5 -51q-4 -10 -23.5 -54t-47.5 -109.5t-61 -145.5t-64 -162
t-56.5 -159.5t-38 -138t-9 -97.5t29.5 -37q47 -1 95 24t94 67.5t90 99t84 118.5t75 126t63.5 121.5t50 105t34.5 76.5q19 62 38.5 110t38.5 76zM847 1044q-6 23 5 39.5t34 16.5t42.5 -16.5t25.5 -39.5q7 -23 -4.5 -39t-34.5 -16t-42 16t-26 39zM682 1043q-6 23 4 39.5
t33 16.5t43.5 -16.5t26.5 -39.5t-5.5 -39t-34.5 -16t-42 16t-25 39z" />
    <glyph glyph-name="aacute" unicode="&#xe1;" horiz-adv-x="497" 
d="M541 281q-15 -35 -32 -84.5t-39 -96t-51.5 -79t-70.5 -32.5q-32 0 -55.5 11t-40 30t-26.5 43t-14 51q-15 -26 -32.5 -50t-37 -41.5t-40 -27.5t-42.5 -9q-32 2 -53.5 24t-33.5 57t-14 79t5 89.5t24 87.5t43 74t61.5 49.5t80.5 13.5q66 -7 98.5 -32t44.5 -52q4 -11 0.5 -27
t-11 -26.5t-15.5 -10.5t-12 21q-6 27 -34 28q-25 2 -51 -14t-54 -62q-11 -19 -21 -53t-16 -67t-5.5 -57.5t9.5 -24.5q5 0 18 17.5t29.5 43.5t34 55.5t31.5 54.5q7 21 15.5 33.5t19.5 11.5q9 -1 27.5 -12.5t36 -26.5t29 -29t7.5 -20q-1 -1 -3.5 -13.5t-4.5 -30t-3 -37.5
t0.5 -37t6 -28.5t14.5 -11.5q19 0 37 27.5t34 66.5t30.5 82t28.5 73q4 9 13 8.5t18 -6.5t14.5 -15t1.5 -18zM164 548q-3 6 4.5 22t20.5 36.5t28.5 41t26.5 35.5q10 9 24.5 5t26.5 -14.5t18 -24t-2 -22.5q-18 -18 -50 -45.5t-73 -50.5q-11 -2 -16.5 5t-7.5 12z" />
    <glyph glyph-name="agrave" unicode="&#xe0;" horiz-adv-x="497" 
d="M541 281q-15 -35 -32 -84.5t-39 -96t-51.5 -79t-70.5 -32.5q-32 0 -55.5 11t-40 30t-26.5 43t-14 51q-15 -26 -32.5 -50t-37 -41.5t-40 -27.5t-42.5 -9q-32 2 -53.5 24t-33.5 57t-14 79t5 89.5t24 87.5t43 74t61.5 49.5t80.5 13.5q66 -7 98.5 -32t44.5 -52q4 -11 0.5 -27
t-11 -26.5t-15.5 -10.5t-12 21q-6 27 -34 28q-25 2 -51 -14t-54 -62q-11 -19 -21 -53t-16 -67t-5.5 -57.5t9.5 -24.5q5 0 18 17.5t29.5 43.5t34 55.5t31.5 54.5q7 21 15.5 33.5t19.5 11.5q9 -1 27.5 -12.5t36 -26.5t29 -29t7.5 -20q-1 -1 -3.5 -13.5t-4.5 -30t-3 -37.5
t0.5 -37t6 -28.5t14.5 -11.5q19 0 37 27.5t34 66.5t30.5 82t28.5 73q4 9 13 8.5t18 -6.5t14.5 -15t1.5 -18zM175 545q0 -5 -2 -12t-14 -5q-53 23 -98.5 50.5t-74.5 45.5q-13 9 -14 22.5t5.5 24t19 14.5t26.5 -5q19 -15 45 -35.5t50 -41t40.5 -36.5t16.5 -22z" />
    <glyph glyph-name="acircumflex" unicode="&#xe2;" horiz-adv-x="497" 
d="M541 281q-15 -35 -32 -84.5t-39 -96t-51.5 -79t-70.5 -32.5q-32 0 -55.5 11t-40 30t-26.5 43t-14 51q-15 -26 -32.5 -50t-37 -41.5t-40 -27.5t-42.5 -9q-32 2 -53.5 24t-33.5 57t-14 79t5 89.5t24 87.5t43 74t61.5 49.5t80.5 13.5q66 -7 98.5 -32t44.5 -52q4 -11 0.5 -27
t-11 -26.5t-15.5 -10.5t-12 21q-6 27 -34 28q-25 2 -51 -14t-54 -62q-11 -19 -21 -53t-16 -67t-5.5 -57.5t9.5 -24.5q5 0 18 17.5t29.5 43.5t34 55.5t31.5 54.5q7 21 15.5 33.5t19.5 11.5q9 -1 27.5 -12.5t36 -26.5t29 -29t7.5 -20q-1 -1 -3.5 -13.5t-4.5 -30t-3 -37.5
t0.5 -37t6 -28.5t14.5 -11.5q19 0 37 27.5t34 66.5t30.5 82t28.5 73q4 9 13 8.5t18 -6.5t14.5 -15t1.5 -18zM38 563q1 0 13 7.5t30.5 19t40.5 23.5t42.5 22.5t35.5 16t21 2.5q7 -3 19 -22t24 -40.5t20.5 -39.5t8.5 -19q0 -17 -12.5 -19.5t-23.5 11.5q-8 8 -12.5 14t-9 11.5
t-9.5 11.5t-14 14q-16 -5 -35.5 -11t-39.5 -12.5t-39.5 -13t-35.5 -12.5q-15 -2 -22 3t-9 12t0.5 13.5t6.5 7.5z" />
    <glyph glyph-name="adieresis" unicode="&#xe4;" horiz-adv-x="497" 
d="M541 281q-15 -35 -32 -84.5t-39 -96t-51.5 -79t-70.5 -32.5q-32 0 -55.5 11t-40 30t-26.5 43t-14 51q-15 -26 -32.5 -50t-37 -41.5t-40 -27.5t-42.5 -9q-32 2 -53.5 24t-33.5 57t-14 79t5 89.5t24 87.5t43 74t61.5 49.5t80.5 13.5q66 -7 98.5 -32t44.5 -52q4 -11 0.5 -27
t-11 -26.5t-15.5 -10.5t-12 21q-6 27 -34 28q-25 2 -51 -14t-54 -62q-11 -19 -21 -53t-16 -67t-5.5 -57.5t9.5 -24.5q5 0 18 17.5t29.5 43.5t34 55.5t31.5 54.5q7 21 15.5 33.5t19.5 11.5q9 -1 27.5 -12.5t36 -26.5t29 -29t7.5 -20q-1 -1 -3.5 -13.5t-4.5 -30t-3 -37.5
t0.5 -37t6 -28.5t14.5 -11.5q19 0 37 27.5t34 66.5t30.5 82t28.5 73q4 9 13 8.5t18 -6.5t14.5 -15t1.5 -18zM222 594q-6 23 5 39.5t34 16.5t42.5 -16.5t25.5 -39.5q7 -23 -4.5 -39t-34.5 -16t-42 16t-26 39zM57 593q-6 23 4 39.5t33 16.5t43.5 -16.5t26.5 -39.5t-5.5 -39
t-34.5 -16t-42 16t-25 39z" />
    <glyph glyph-name="atilde" unicode="&#xe3;" horiz-adv-x="497" 
d="M541 281q-15 -35 -32 -84.5t-39 -96t-51.5 -79t-70.5 -32.5q-32 0 -55.5 11t-40 30t-26.5 43t-14 51q-15 -26 -32.5 -50t-37 -41.5t-40 -27.5t-42.5 -9q-32 2 -53.5 24t-33.5 57t-14 79t5 89.5t24 87.5t43 74t61.5 49.5t80.5 13.5q66 -7 98.5 -32t44.5 -52q4 -11 0.5 -27
t-11 -26.5t-15.5 -10.5t-12 21q-6 27 -34 28q-25 2 -51 -14t-54 -62q-11 -19 -21 -53t-16 -67t-5.5 -57.5t9.5 -24.5q5 0 18 17.5t29.5 43.5t34 55.5t31.5 54.5q7 21 15.5 33.5t19.5 11.5q9 -1 27.5 -12.5t36 -26.5t29 -29t7.5 -20q-1 -1 -3.5 -13.5t-4.5 -30t-3 -37.5
t0.5 -37t6 -28.5t14.5 -11.5q19 0 37 27.5t34 66.5t30.5 82t28.5 73q4 9 13 8.5t18 -6.5t14.5 -15t1.5 -18zM111 577q-4 -7 -10.5 -8.5t-13.5 1t-12 9t-6 15.5q2 13 9 29t17.5 28.5t24.5 18.5t31 -1q17 -8 28.5 -27t22 -36t23 -26t31.5 4q10 8 18.5 19t12.5 25q3 9 10.5 11
t14 -1t11.5 -10t4 -17q-4 -17 -13 -36.5t-22.5 -34.5t-32 -21t-41.5 3q-12 5 -25 21.5t-25.5 33t-23.5 27t-18 3.5q-14 -12 -15 -30z" />
    <glyph glyph-name="aring" unicode="&#xe5;" horiz-adv-x="497" 
d="M541 281q-15 -35 -32 -84.5t-39 -96t-51.5 -79t-70.5 -32.5q-32 0 -55.5 11t-40 30t-26.5 43t-14 51q-15 -26 -32.5 -50t-37 -41.5t-40 -27.5t-42.5 -9q-32 2 -53.5 24t-33.5 57t-14 79t5 89.5t24 87.5t43 74t61.5 49.5t80.5 13.5q66 -7 98.5 -32t44.5 -52q4 -11 0.5 -27
t-11 -26.5t-15.5 -10.5t-12 21q-6 27 -34 28q-25 2 -51 -14t-54 -62q-11 -19 -21 -53t-16 -67t-5.5 -57.5t9.5 -24.5q5 0 18 17.5t29.5 43.5t34 55.5t31.5 54.5q7 21 15.5 33.5t19.5 11.5q9 -1 27.5 -12.5t36 -26.5t29 -29t7.5 -20q-1 -1 -3.5 -13.5t-4.5 -30t-3 -37.5
t0.5 -37t6 -28.5t14.5 -11.5q19 0 37 27.5t34 66.5t30.5 82t28.5 73q4 9 13 8.5t18 -6.5t14.5 -15t1.5 -18zM108 622q5 32 23 58t52 33q22 4 41 -4t33 -23t22 -35t7 -40q-3 -30 -19 -54.5t-44 -35.5q-25 -9 -46.5 -3.5t-36.5 20.5t-23.5 37.5t-8.5 46.5zM151 611
q-2 -37 17.5 -50.5t48.5 7.5q12 9 18 23.5t8 30.5q2 11 -1.5 22t-10 18.5t-16.5 10.5t-22 -2q-19 -8 -29.5 -24t-12.5 -36z" />
    <glyph glyph-name="ccedilla" unicode="&#xe7;" horiz-adv-x="419" 
d="M222 75q34 5 63 29.5t53 59t43 74t34 74.5q4 9 13 8.5t18 -6.5t14.5 -15t1.5 -18q-20 -45 -42 -96t-53.5 -94t-77.5 -71.5t-113 -28.5q-5 0 -10.5 0.5t-10.5 0.5l-7.5 -15l-4.5 -9q20 -2 39.5 -9.5t37.5 -21.5q19 -15 25.5 -33.5t4 -35.5t-13 -31.5t-26.5 -20.5
q-30 -11 -64.5 -8t-69.5 16q-9 5 -12 12.5t-1.5 13.5t6.5 10t13 1q18 -6 36 -9.5t33 -2.5t25.5 6t13.5 16t-3.5 21.5t-18.5 18t-27 11.5t-30 3q-13 1 -21 8.5t-4 21.5q5 12 12 24t13 23q-50 18 -84 59t-49 93t-9 109t36 105q36 57 80.5 80t83.5 22q31 0 55.5 -8.5t42 -20.5
t29 -27t16.5 -28q3 -9 6.5 -23.5t2 -33.5t-12 -40t-35.5 -43q-7 -6 -16 -4.5t-16 7.5t-10 14t3 15q16 18 21.5 35t3 30t-12 21t-22.5 8q-14 0 -38 -15.5t-51 -61.5q-17 -29 -21.5 -67t5 -72.5t34.5 -58t69 -22.5z" />
    <glyph glyph-name="eacute" unicode="&#xe9;" horiz-adv-x="430" 
d="M211 73q42 0 76 26t60.5 63.5t46.5 78.5t33 71q4 9 13 8.5t18 -6.5t14.5 -15t1.5 -18q-21 -47 -42.5 -97.5t-53.5 -93.5t-78.5 -70.5t-116.5 -27.5q-84 0 -134 35t-71 88t-15.5 114.5t31 115t69 89.5t99.5 38q28 1 52 -5.5t42.5 -18t31.5 -26.5t21 -31q13 -29 11 -58.5
t-15 -56.5t-34.5 -50.5t-47.5 -42t-54.5 -30t-54.5 -14.5q11 -29 35 -48t62 -18zM109 195q25 6 53 23.5t50.5 41t35 48t5.5 44.5q-2 7 -10 13t-20 6q-30 0 -52.5 -16t-37.5 -41t-21 -56.5t-3 -62.5zM164 542q-3 6 5 22t21 36.5t28 41t26 35.5q10 9 25 5t27 -14.5t17.5 -24
t-1.5 -22.5q-19 -18 -51 -45.5t-72 -50.5q-11 -2 -16.5 5t-8.5 12z" />
    <glyph glyph-name="egrave" unicode="&#xe8;" horiz-adv-x="430" 
d="M211 73q42 0 76 26t60.5 63.5t46.5 78.5t33 71q4 9 13 8.5t18 -6.5t14.5 -15t1.5 -18q-21 -47 -42.5 -97.5t-53.5 -93.5t-78.5 -70.5t-116.5 -27.5q-84 0 -134 35t-71 88t-15.5 114.5t31 115t69 89.5t99.5 38q28 1 52 -5.5t42.5 -18t31.5 -26.5t21 -31q13 -29 11 -58.5
t-15 -56.5t-34.5 -50.5t-47.5 -42t-54.5 -30t-54.5 -14.5q11 -29 35 -48t62 -18zM109 195q25 6 53 23.5t50.5 41t35 48t5.5 44.5q-2 7 -10 13t-20 6q-30 0 -52.5 -16t-37.5 -41t-21 -56.5t-3 -62.5zM206 545q0 -5 -2 -12t-14 -5q-53 23 -99 50.5t-75 45.5q-12 9 -13.5 22.5
t5.5 24t19 14.5t27 -5q19 -15 45 -35.5t50 -41t40.5 -36.5t16.5 -22z" />
    <glyph glyph-name="ecircumflex" unicode="&#xea;" horiz-adv-x="430" 
d="M211 73q42 0 76 26t60.5 63.5t46.5 78.5t33 71q4 9 13 8.5t18 -6.5t14.5 -15t1.5 -18q-21 -47 -42.5 -97.5t-53.5 -93.5t-78.5 -70.5t-116.5 -27.5q-84 0 -134 35t-71 88t-15.5 114.5t31 115t69 89.5t99.5 38q28 1 52 -5.5t42.5 -18t31.5 -26.5t21 -31q13 -29 11 -58.5
t-15 -56.5t-34.5 -50.5t-47.5 -42t-54.5 -30t-54.5 -14.5q11 -29 35 -48t62 -18zM109 195q25 6 53 23.5t50.5 41t35 48t5.5 44.5q-2 7 -10 13t-20 6q-30 0 -52.5 -16t-37.5 -41t-21 -56.5t-3 -62.5zM44 569q1 0 13.5 7.5t31 19t40.5 23.5t42 22.5t35.5 16t20.5 2.5
q7 -3 19 -22t24 -40.5t21 -39.5t9 -19q-1 -17 -13.5 -19.5t-23.5 11.5q-7 8 -11.5 14t-9 11.5t-10 11.5t-14.5 14q-16 -5 -35 -11t-39 -12.5l-40 -13t-36 -12.5q-15 -2 -22 3t-9 12t0.5 13.5t6.5 7.5z" />
    <glyph glyph-name="edieresis" unicode="&#xeb;" horiz-adv-x="430" 
d="M211 73q42 0 76 26t60.5 63.5t46.5 78.5t33 71q4 9 13 8.5t18 -6.5t14.5 -15t1.5 -18q-21 -47 -42.5 -97.5t-53.5 -93.5t-78.5 -70.5t-116.5 -27.5q-84 0 -134 35t-71 88t-15.5 114.5t31 115t69 89.5t99.5 38q28 1 52 -5.5t42.5 -18t31.5 -26.5t21 -31q13 -29 11 -58.5
t-15 -56.5t-34.5 -50.5t-47.5 -42t-54.5 -30t-54.5 -14.5q11 -29 35 -48t62 -18zM109 195q25 6 53 23.5t50.5 41t35 48t5.5 44.5q-2 7 -10 13t-20 6q-30 0 -52.5 -16t-37.5 -41t-21 -56.5t-3 -62.5zM220 589q-6 23 5 39.5t34 16.5t42.5 -16.5t25.5 -39.5q7 -23 -4.5 -39
t-34.5 -16t-42 16t-26 39zM55 588q-6 23 4 39.5t33 16.5t43.5 -16.5t26.5 -39.5t-5.5 -39t-34.5 -16t-42 16t-25 39z" />
    <glyph glyph-name="icircumflex" unicode="&#xee;" horiz-adv-x="289" 
d="M110 -12q-34 -1 -58.5 13.5t-40.5 39t-24.5 56.5t-11 67.5t0.5 71t9 66.5q4 18 8.5 42.5t7.5 50t4 47.5t-2 36q-2 9 10 5.5t27 -10.5q10 -4 25 -14.5t30.5 -23.5t27.5 -26t16 -21q4 -11 4 -30.5t-1.5 -42t-5 -44.5t-7.5 -38q-6 -27 -10 -57t-4.5 -55t2.5 -41.5t10 -16.5
q22 1 45 29t44 67t38.5 81t30.5 72q4 9 13 8.5t18 -6.5t14.5 -15t1.5 -18q-10 -22 -22.5 -52.5t-27.5 -63t-33 -64t-39.5 -56.5t-46 -40.5t-53.5 -16.5zM-53 566q1 0 13.5 7.5t31 19t40.5 23.5t42 22.5t35 16t21 2.5q7 -3 19 -22t24 -40.5t20.5 -39.5t8.5 -19
q0 -17 -13 -19.5t-24 11.5q-7 8 -11.5 14t-9 11.5t-9.5 11.5t-14 14q-16 -5 -35.5 -11t-39.5 -12.5t-39 -13t-35 -12.5q-15 -2 -22 3t-9 12t0 13.5t6 7.5z" />
    <glyph glyph-name="oacute" unicode="&#xf3;" horiz-adv-x="484" 
d="M285 398q-36 0 -68.5 -25.5t-59 -63.5t-45.5 -82t-27 -82t-3 -63t26 -25q20 0 49 17.5t61 59.5q-16 20 -23 40t-8.5 39.5t1.5 38.5t9 36q3 11 12 25.5t22 26.5t29.5 17.5t34.5 -1.5q32 -12 47.5 -32t18 -45.5t-6 -55t-24.5 -60.5q26 3 48 16t40.5 32.5t34 44.5t27.5 52
q4 9 13 9t18 -5t15 -13.5t2 -17.5q-21 -55 -43.5 -92.5t-50.5 -59.5t-63 -29.5t-81 -2.5l-16 -21q-25 -32 -67.5 -58.5t-95.5 -29.5q-31 -2 -57.5 10t-47 32.5t-34 47.5t-19.5 56q-11 54 -0.5 113t38 109t71 82.5t99.5 33.5q9 0 26 -2.5t36.5 -7.5t38.5 -14.5t33 -22.5
q14 -14 15 -20.5t-25 -6.5zM121 530q-4 6 4 22t21 36.5t28 41t26 35.5q10 9 25 5t27 -14.5t17.5 -24t-1.5 -22.5q-19 -18 -50.5 -45.5t-72.5 -50.5q-11 -2 -16.5 5t-7.5 12z" />
    <glyph glyph-name="ograve" unicode="&#xf2;" horiz-adv-x="484" 
d="M285 398q-36 0 -68.5 -25.5t-59 -63.5t-45.5 -82t-27 -82t-3 -63t26 -25q20 0 49 17.5t61 59.5q-16 20 -23 40t-8.5 39.5t1.5 38.5t9 36q3 11 12 25.5t22 26.5t29.5 17.5t34.5 -1.5q32 -12 47.5 -32t18 -45.5t-6 -55t-24.5 -60.5q26 3 48 16t40.5 32.5t34 44.5t27.5 52
q4 9 13 9t18 -5t15 -13.5t2 -17.5q-21 -55 -43.5 -92.5t-50.5 -59.5t-63 -29.5t-81 -2.5l-16 -21q-25 -32 -67.5 -58.5t-95.5 -29.5q-31 -2 -57.5 10t-47 32.5t-34 47.5t-19.5 56q-11 54 -0.5 113t38 109t71 82.5t99.5 33.5q9 0 26 -2.5t36.5 -7.5t38.5 -14.5t33 -22.5
q14 -14 15 -20.5t-25 -6.5zM254 542q0 -5 -2 -12t-13 -5q-54 23 -100 50.5t-75 45.5q-13 9 -14 22.5t5.5 24t19 14.5t27.5 -5q19 -15 45.5 -35.5t50 -41t40 -36.5t16.5 -22z" />
    <glyph glyph-name="ocircumflex" unicode="&#xf4;" horiz-adv-x="484" 
d="M285 398q-36 0 -68.5 -25.5t-59 -63.5t-45.5 -82t-27 -82t-3 -63t26 -25q20 0 49 17.5t61 59.5q-16 20 -23 40t-8.5 39.5t1.5 38.5t9 36q3 11 12 25.5t22 26.5t29.5 17.5t34.5 -1.5q32 -12 47.5 -32t18 -45.5t-6 -55t-24.5 -60.5q26 3 48 16t40.5 32.5t34 44.5t27.5 52
q4 9 13 9t18 -5t15 -13.5t2 -17.5q-21 -55 -43.5 -92.5t-50.5 -59.5t-63 -29.5t-81 -2.5l-16 -21q-25 -32 -67.5 -58.5t-95.5 -29.5q-31 -2 -57.5 10t-47 32.5t-34 47.5t-19.5 56q-11 54 -0.5 113t38 109t71 82.5t99.5 33.5q9 0 26 -2.5t36.5 -7.5t38.5 -14.5t33 -22.5
q14 -14 15 -20.5t-25 -6.5zM88 568q1 0 13.5 7.5t31 19t40.5 23.5t42.5 22.5t35.5 16t21 2.5q7 -3 19 -22t24 -40.5t20.5 -39.5t8.5 -19q0 -17 -12.5 -19.5t-23.5 11.5q-8 8 -12.5 14t-9 11.5t-9.5 11.5t-14 14q-16 -5 -35.5 -11t-39.5 -12.5t-39.5 -13t-35.5 -12.5
q-15 -2 -22 3t-9 12t0 13.5t6 7.5z" />
    <glyph glyph-name="odieresis" unicode="&#xf6;" horiz-adv-x="484" 
d="M285 398q-36 0 -68.5 -25.5t-59 -63.5t-45.5 -82t-27 -82t-3 -63t26 -25q20 0 49 17.5t61 59.5q-16 20 -23 40t-8.5 39.5t1.5 38.5t9 36q3 11 12 25.5t22 26.5t29.5 17.5t34.5 -1.5q32 -12 47.5 -32t18 -45.5t-6 -55t-24.5 -60.5q26 3 48 16t40.5 32.5t34 44.5t27.5 52
q4 9 13 9t18 -5t15 -13.5t2 -17.5q-21 -55 -43.5 -92.5t-50.5 -59.5t-63 -29.5t-81 -2.5l-16 -21q-25 -32 -67.5 -58.5t-95.5 -29.5q-31 -2 -57.5 10t-47 32.5t-34 47.5t-19.5 56q-11 54 -0.5 113t38 109t71 82.5t99.5 33.5q9 0 26 -2.5t36.5 -7.5t38.5 -14.5t33 -22.5
q14 -14 15 -20.5t-25 -6.5zM288 583q-6 23 4.5 39.5t33.5 16.5t43 -16.5t26 -39.5t-5.5 -39t-34.5 -16t-42 16t-25 39zM122 582q-6 23 4.5 39.5t33.5 16.5t43 -16.5t26 -39.5q7 -23 -4.5 -39t-34.5 -16t-42 16t-26 39z" />
    <glyph glyph-name="otilde" unicode="&#xf5;" horiz-adv-x="484" 
d="M285 398q-36 0 -68.5 -25.5t-59 -63.5t-45.5 -82t-27 -82t-3 -63t26 -25q20 0 49 17.5t61 59.5q-16 20 -23 40t-8.5 39.5t1.5 38.5t9 36q3 11 12 25.5t22 26.5t29.5 17.5t34.5 -1.5q32 -12 47.5 -32t18 -45.5t-6 -55t-24.5 -60.5q26 3 48 16t40.5 32.5t34 44.5t27.5 52
q4 9 13 9t18 -5t15 -13.5t2 -17.5q-21 -55 -43.5 -92.5t-50.5 -59.5t-63 -29.5t-81 -2.5l-16 -21q-25 -32 -67.5 -58.5t-95.5 -29.5q-31 -2 -57.5 10t-47 32.5t-34 47.5t-19.5 56q-11 54 -0.5 113t38 109t71 82.5t99.5 33.5q9 0 26 -2.5t36.5 -7.5t38.5 -14.5t33 -22.5
q14 -14 15 -20.5t-25 -6.5zM145 571q-4 -7 -10.5 -8.5t-13 1t-11.5 9t-6 15.5q2 13 9 29t17.5 28.5t24.5 18.5t30 -1q17 -8 29 -27t22.5 -36t23 -26t30.5 4q11 8 19.5 19t11.5 25q3 9 10.5 11t14.5 -1t12 -10t4 -17q-4 -17 -13 -36.5t-23 -34.5t-32.5 -21t-41.5 3
q-12 5 -24.5 21.5l-25 33t-23.5 27t-19 3.5q-12 -12 -15 -30z" />
    <glyph glyph-name="uacute" unicode="&#xfa;" horiz-adv-x="565" 
d="M404 63q15 1 30 14.5t29.5 34.5t28.5 48t26.5 54t23.5 53t19 45q4 9 13 8.5t17.5 -6t14 -15t2.5 -18.5q-9 -22 -21 -52.5t-27.5 -63.5t-34 -64.5t-40.5 -56.5t-48 -40.5t-55 -15.5q-29 1 -50.5 10.5t-37.5 25t-26 36.5t-16 45q-30 -51 -70 -83.5t-75 -32.5
q-48 0 -78 24.5t-45.5 62.5t-18.5 84.5t5 90.5q7 39 15.5 84t13.5 80q1 7 2 24.5t-2 26.5q-4 9 7.5 7.5t26.5 -6.5q10 -3 28.5 -12.5t38 -22t35.5 -25.5t19 -21q1 -2 -2 -18t-8.5 -38.5t-11.5 -49t-11.5 -51t-9.5 -43t-5 -25.5q-2 -17 -2 -34.5t1.5 -32t5.5 -23t12 -8.5
q12 0 29.5 12t35 32.5t32.5 47t23 55.5q2 24 5 47t7 45q4 18 10.5 40.5t12 45t8.5 42.5t0 34q-3 9 9.5 5.5t27.5 -10.5q10 -4 25 -14.5t30.5 -23.5t27.5 -26t16 -21q4 -11 2.5 -28t-6 -37t-9.5 -40l-9 -36q-7 -28 -11 -58t-4 -55.5t4.5 -41.5t14.5 -15zM108 539q-4 6 4 22
t21 36.5t28 41t26 35.5q10 9 25 5t27 -14.5t18 -24t-2 -22.5q-19 -18 -50.5 -45.5t-72.5 -50.5q-11 -2 -16.5 5t-7.5 12z" />
    <glyph glyph-name="ugrave" unicode="&#xf9;" horiz-adv-x="565" 
d="M404 63q15 1 30 14.5t29.5 34.5t28.5 48t26.5 54t23.5 53t19 45q4 9 13 8.5t17.5 -6t14 -15t2.5 -18.5q-9 -22 -21 -52.5t-27.5 -63.5t-34 -64.5t-40.5 -56.5t-48 -40.5t-55 -15.5q-29 1 -50.5 10.5t-37.5 25t-26 36.5t-16 45q-30 -51 -70 -83.5t-75 -32.5
q-48 0 -78 24.5t-45.5 62.5t-18.5 84.5t5 90.5q7 39 15.5 84t13.5 80q1 7 2 24.5t-2 26.5q-4 9 7.5 7.5t26.5 -6.5q10 -3 28.5 -12.5t38 -22t35.5 -25.5t19 -21q1 -2 -2 -18t-8.5 -38.5t-11.5 -49t-11.5 -51t-9.5 -43t-5 -25.5q-2 -17 -2 -34.5t1.5 -32t5.5 -23t12 -8.5
q12 0 29.5 12t35 32.5t32.5 47t23 55.5q2 24 5 47t7 45q4 18 10.5 40.5t12 45t8.5 42.5t0 34q-3 9 9.5 5.5t27.5 -10.5q10 -4 25 -14.5t30.5 -23.5t27.5 -26t16 -21q4 -11 2.5 -28t-6 -37t-9.5 -40l-9 -36q-7 -28 -11 -58t-4 -55.5t4.5 -41.5t14.5 -15zM257 536q0 -5 -2 -12
t-14 -5q-53 23 -99 50.5t-76 45.5q-12 9 -13.5 22.5t5.5 24t19.5 14.5t27.5 -5q19 -15 45 -35.5t50 -41t40.5 -36.5t16.5 -22z" />
    <glyph glyph-name="ucircumflex" unicode="&#xfb;" horiz-adv-x="565" 
d="M404 63q15 1 30 14.5t29.5 34.5t28.5 48t26.5 54t23.5 53t19 45q4 9 13 8.5t17.5 -6t14 -15t2.5 -18.5q-9 -22 -21 -52.5t-27.5 -63.5t-34 -64.5t-40.5 -56.5t-48 -40.5t-55 -15.5q-29 1 -50.5 10.5t-37.5 25t-26 36.5t-16 45q-30 -51 -70 -83.5t-75 -32.5
q-48 0 -78 24.5t-45.5 62.5t-18.5 84.5t5 90.5q7 39 15.5 84t13.5 80q1 7 2 24.5t-2 26.5q-4 9 7.5 7.5t26.5 -6.5q10 -3 28.5 -12.5t38 -22t35.5 -25.5t19 -21q1 -2 -2 -18t-8.5 -38.5t-11.5 -49t-11.5 -51t-9.5 -43t-5 -25.5q-2 -17 -2 -34.5t1.5 -32t5.5 -23t12 -8.5
q12 0 29.5 12t35 32.5t32.5 47t23 55.5q2 24 5 47t7 45q4 18 10.5 40.5t12 45t8.5 42.5t0 34q-3 9 9.5 5.5t27.5 -10.5q10 -4 25 -14.5t30.5 -23.5t27.5 -26t16 -21q4 -11 2.5 -28t-6 -37t-9.5 -40l-9 -36q-7 -28 -11 -58t-4 -55.5t4.5 -41.5t14.5 -15zM75 566q1 0 13.5 7.5
t31 19t40.5 23.5t42.5 22.5t35.5 16t21 2.5q7 -3 19 -22t24 -40.5t20.5 -39.5t8.5 -19q0 -17 -13 -19.5t-24 11.5q-7 8 -11.5 14t-9 11.5t-9.5 11.5t-14 14q-16 -5 -35.5 -11t-39.5 -12.5t-39.5 -13t-35.5 -12.5q-15 -2 -22 3t-9 12t0 13.5t6 7.5z" />
    <glyph glyph-name="udieresis" unicode="&#xfc;" horiz-adv-x="565" 
d="M404 63q15 1 30 14.5t29.5 34.5t28.5 48t26.5 54t23.5 53t19 45q4 9 13 8.5t17.5 -6t14 -15t2.5 -18.5q-9 -22 -21 -52.5t-27.5 -63.5t-34 -64.5t-40.5 -56.5t-48 -40.5t-55 -15.5q-29 1 -50.5 10.5t-37.5 25t-26 36.5t-16 45q-30 -51 -70 -83.5t-75 -32.5
q-48 0 -78 24.5t-45.5 62.5t-18.5 84.5t5 90.5q7 39 15.5 84t13.5 80q1 7 2 24.5t-2 26.5q-4 9 7.5 7.5t26.5 -6.5q10 -3 28.5 -12.5t38 -22t35.5 -25.5t19 -21q1 -2 -2 -18t-8.5 -38.5t-11.5 -49t-11.5 -51t-9.5 -43t-5 -25.5q-2 -17 -2 -34.5t1.5 -32t5.5 -23t12 -8.5
q12 0 29.5 12t35 32.5t32.5 47t23 55.5q2 24 5 47t7 45q4 18 10.5 40.5t12 45t8.5 42.5t0 34q-3 9 9.5 5.5t27.5 -10.5q10 -4 25 -14.5t30.5 -23.5t27.5 -26t16 -21q4 -11 2.5 -28t-6 -37t-9.5 -40l-9 -36q-7 -28 -11 -58t-4 -55.5t4.5 -41.5t14.5 -15zM229 589
q-6 23 5 39.5t34 16.5t42.5 -16.5t25.5 -39.5q7 -23 -4.5 -39t-34.5 -16t-42 16t-26 39zM64 588q-6 23 4 39.5t33 16.5t43.5 -16.5t26.5 -39.5t-5.5 -39t-34.5 -16t-42 16t-25 39z" />
    <glyph glyph-name="sterling" unicode="&#xa3;" horiz-adv-x="1047" 
d="M371 256q-16 3 -22.5 12t-5.5 19.5t10 18.5t24 9h93q11 53 22 109t26 108.5t36.5 99.5t54 81.5t78 54.5t108.5 20q36 0 69.5 -12t61.5 -30.5t49 -43t32 -50.5q16 -38 15 -65.5t-11.5 -47t-27.5 -33t-33 -22.5q-9 -5 -21.5 -2.5t-22 9.5t-11.5 17.5t10 20.5t17.5 32.5
t1.5 46t-20 41.5t-48 18q-48 -3 -79.5 -33t-52.5 -79t-35.5 -111t-30.5 -128l74 1q14 -6 19 -14t3.5 -17t-9 -16.5t-19.5 -11.5l-83 -1q-18 -72 -44.5 -138t-70.5 -116q24 -11 44.5 -19.5t41.5 -14.5t45 -8.5t54 -1.5q37 1 66.5 6.5t54 18t46.5 33.5t43 53q6 8 13.5 6t15 -9
t13 -18t7.5 -21q4 -38 -12 -75t-45.5 -66.5t-69 -48t-82.5 -18.5q-49 0 -91 8.5t-80 22.5t-74 32.5t-73 38.5q-46 -42 -101.5 -64t-124.5 -20q-75 2 -131.5 25t-91.5 57t-48 72.5t-2 71.5t47.5 55t100.5 22q81 0 144.5 -19.5t120.5 -46.5q37 26 59 73.5t38 107.5h-85z
M199 -61q29 -2 52.5 16t49.5 42q-32 12 -65 20t-69 10q-40 2 -64.5 -10.5t-24.5 -28.5t28 -31t93 -18z" />
    <glyph glyph-name="Acircumflex" unicode="&#xc2;" horiz-adv-x="1264" 
d="M326 -22q40 1 69 20t51 52t40.5 78t38.5 99.5t44 116t58 127.5q-60 20 -110 26t-80 4q-100 -6 -168.5 -47t-104.5 -101.5t-38.5 -133.5t28.5 -143q23 -51 67.5 -75t104.5 -23zM779 490q46 -30 83 -69t60 -87q9 63 26.5 129t39.5 129t47 120.5t49 105.5
q-81 -35 -155.5 -115t-149.5 -213zM667 544q51 88 105.5 159.5t115.5 123.5t130.5 83.5t151.5 39.5q13 1 25 -1t21 -8t12.5 -16.5t-0.5 -25.5q-13 -37 -32.5 -102.5t-39.5 -148t-37.5 -176.5t-26 -186.5t-5.5 -178.5t24 -153q3 -9 4 -17t-1.5 -12t-10 -3.5t-22.5 9.5
q-35 20 -63 44t-47.5 47.5t-30.5 43.5t-12 32t-4 35.5t-9.5 52.5t-18.5 62t-32.5 64.5t-50 59.5t-70.5 48q-30 -67 -50 -138t-38 -138t-38.5 -127t-51.5 -106t-77.5 -74.5t-116.5 -31.5q-64 -3 -121 16.5t-103.5 53.5t-81 77t-53.5 87q-24 57 -31 119.5t4 123.5t42.5 116.5
t85 97.5t130 67t179.5 25q57 0 119.5 -10.5t125.5 -33.5zM1021 1044q1 0 13.5 7.5t31 19t40.5 23.5t42.5 22.5t35.5 16t21 2.5q7 -3 19 -22t24 -40.5t20.5 -39.5t8.5 -19q0 -17 -13 -19.5t-24 11.5q-7 8 -11.5 14t-9 11.5t-9.5 11.5t-14 14q-16 -5 -35.5 -11t-39.5 -12.5
t-39.5 -13t-35.5 -12.5q-15 -2 -22 3t-9 12t0 13.5t6 7.5z" />
    <glyph glyph-name="Aacute" unicode="&#xc1;" horiz-adv-x="1264" 
d="M326 -22q40 1 69 20t51 52t40.5 78t38.5 99.5t44 116t58 127.5q-60 20 -110 26t-80 4q-100 -6 -168.5 -47t-104.5 -101.5t-38.5 -133.5t28.5 -143q23 -51 67.5 -75t104.5 -23zM779 490q46 -30 83 -69t60 -87q9 63 26.5 129t39.5 129t47 120.5t49 105.5
q-81 -35 -155.5 -115t-149.5 -213zM667 544q51 88 105.5 159.5t115.5 123.5t130.5 83.5t151.5 39.5q13 1 25 -1t21 -8t12.5 -16.5t-0.5 -25.5q-13 -37 -32.5 -102.5t-39.5 -148t-37.5 -176.5t-26 -186.5t-5.5 -178.5t24 -153q3 -9 4 -17t-1.5 -12t-10 -3.5t-22.5 9.5
q-35 20 -63 44t-47.5 47.5t-30.5 43.5t-12 32t-4 35.5t-9.5 52.5t-18.5 62t-32.5 64.5t-50 59.5t-70.5 48q-30 -67 -50 -138t-38 -138t-38.5 -127t-51.5 -106t-77.5 -74.5t-116.5 -31.5q-64 -3 -121 16.5t-103.5 53.5t-81 77t-53.5 87q-24 57 -31 119.5t4 123.5t42.5 116.5
t85 97.5t130 67t179.5 25q57 0 119.5 -10.5t125.5 -33.5zM1168 1026q-3 6 4.5 22t20.5 36.5t28.5 41t26.5 35.5q10 9 24.5 5t26.5 -14.5t18 -24t-2 -22.5q-18 -18 -50 -45.5t-73 -50.5q-11 -2 -16 5t-8 12z" />
    <glyph glyph-name="Egrave" unicode="&#xc8;" horiz-adv-x="836" 
d="M736 722q-20 -7 -35 -2.5t-22 14t-5 20.5t17 18q10 5 16.5 12t4.5 15.5t-14 19t-38 22.5q-25 11 -71 14t-99 -2t-107 -18t-95 -33.5t-61.5 -48.5t-6.5 -63q9 -25 35.5 -42.5t61.5 -31t75 -24.5t76 -21.5t64.5 -22.5t41.5 -28q17 -21 25.5 -35t12.5 -24.5t5.5 -19
t5.5 -18.5q-57 -2 -121.5 -15.5t-125.5 -37t-115 -56.5t-90.5 -74.5t-51 -90t2.5 -103.5q10 -32 32.5 -57.5t50 -43.5t57.5 -27t54 -8q79 3 157 33.5t147 84.5t126 129.5t95 169.5q3 8 12 8t17.5 -5t14 -13.5t2.5 -17.5q-26 -72 -58 -137.5t-77 -124.5t-106 -109.5
t-144 -92.5q-35 -18 -82.5 -27.5t-99.5 -8.5t-105 14.5t-100 43t-84 76t-56 113.5q-26 87 -18 154t39 117t79 85.5t102 59t108 37.5t97 21q-50 1 -99.5 13t-92.5 33.5t-75 50.5t-47 64q-24 58 -11 110.5t59.5 93.5t124 67t182.5 32q27 1 60 2t67.5 -1.5t69 -10.5t64.5 -24
t53.5 -42t37.5 -65q13 -37 5.5 -72.5t-44.5 -48.5zM482 1044q0 -5 -2 -12t-13 -5q-54 23 -100 50.5t-75 45.5q-13 9 -14 22.5t5.5 24t19 14.5t27.5 -5q19 -15 45.5 -35.5t50 -41t40 -36.5t16.5 -22z" />
    <glyph glyph-name="Iacute" unicode="&#xcd;" horiz-adv-x="927" 
d="M114 403q-32 71 -38 137t8.5 124t48 106.5t80.5 84.5t105 58.5t122 28.5q119 11 204 -23.5t120 -112.5q39 -87 52.5 -164t9 -146.5t-22 -133t-38.5 -124.5q-26 -78 -68.5 -152t-102.5 -131.5t-139.5 -91.5t-180.5 -31q-44 1 -83.5 14.5t-71.5 36t-55 52t-34 62.5
q-12 36 -8 72t25 65.5t60 48t98 18.5q25 0 55 -7.5t60 -19.5t56.5 -28t43.5 -33q7 -8 7 -15.5t-4 -12.5t-12 -6t-18 5q-44 26 -82.5 38.5t-79.5 11.5q-26 0 -52.5 -12t-45 -31.5t-26 -44.5t5.5 -52q12 -26 40 -39t63 -13q69 0 132 33t116.5 90t96 133t71.5 162.5t43 178.5
t10 180q-2 63 -32.5 91.5t-81.5 27.5q-79 0 -137.5 -23t-99.5 -60.5t-66 -84t-37 -93.5t-12.5 -89t7.5 -69q7 -25 20.5 -44t30 -30t34 -14t31.5 5q12 6 22 3.5t16 -9.5t6 -17t-8 -17q-27 -24 -64.5 -26.5t-75 12.5t-71 46t-53.5 75zM497 1032q-3 6 5 22t21 36.5t28 41
t26 35.5q10 9 25 5t27 -14.5t17.5 -24t-1.5 -22.5q-19 -18 -51 -45.5t-72 -50.5q-11 -2 -16.5 5t-8.5 12z" />
    <glyph glyph-name="Icircumflex" unicode="&#xce;" horiz-adv-x="927" 
d="M114 403q-32 71 -38 137t8.5 124t48 106.5t80.5 84.5t105 58.5t122 28.5q119 11 204 -23.5t120 -112.5q39 -87 52.5 -164t9 -146.5t-22 -133t-38.5 -124.5q-26 -78 -68.5 -152t-102.5 -131.5t-139.5 -91.5t-180.5 -31q-44 1 -83.5 14.5t-71.5 36t-55 52t-34 62.5
q-12 36 -8 72t25 65.5t60 48t98 18.5q25 0 55 -7.5t60 -19.5t56.5 -28t43.5 -33q7 -8 7 -15.5t-4 -12.5t-12 -6t-18 5q-44 26 -82.5 38.5t-79.5 11.5q-26 0 -52.5 -12t-45 -31.5t-26 -44.5t5.5 -52q12 -26 40 -39t63 -13q69 0 132 33t116.5 90t96 133t71.5 162.5t43 178.5
t10 180q-2 63 -32.5 91.5t-81.5 27.5q-79 0 -137.5 -23t-99.5 -60.5t-66 -84t-37 -93.5t-12.5 -89t7.5 -69q7 -25 20.5 -44t30 -30t34 -14t31.5 5q12 6 22 3.5t16 -9.5t6 -17t-8 -17q-27 -24 -64.5 -26.5t-75 12.5t-71 46t-53.5 75zM391 1041q1 0 13 7.5t30.5 19t40.5 23.5
t42.5 22.5t35.5 16t21 2.5q7 -3 19 -22t24 -40.5t20.5 -39.5t8.5 -19q0 -17 -12.5 -19.5t-23.5 11.5q-8 8 -12.5 14t-9 11.5t-9.5 11.5t-14 14q-16 -5 -35.5 -11t-39.5 -12.5t-39.5 -13t-35.5 -12.5q-15 -2 -22 3t-9 12t0.5 13.5t6.5 7.5z" />
    <glyph glyph-name="Idieresis" unicode="&#xcf;" horiz-adv-x="927" 
d="M114 403q-32 71 -38 137t8.5 124t48 106.5t80.5 84.5t105 58.5t122 28.5q119 11 204 -23.5t120 -112.5q39 -87 52.5 -164t9 -146.5t-22 -133t-38.5 -124.5q-26 -78 -68.5 -152t-102.5 -131.5t-139.5 -91.5t-180.5 -31q-44 1 -83.5 14.5t-71.5 36t-55 52t-34 62.5
q-12 36 -8 72t25 65.5t60 48t98 18.5q25 0 55 -7.5t60 -19.5t56.5 -28t43.5 -33q7 -8 7 -15.5t-4 -12.5t-12 -6t-18 5q-44 26 -82.5 38.5t-79.5 11.5q-26 0 -52.5 -12t-45 -31.5t-26 -44.5t5.5 -52q12 -26 40 -39t63 -13q69 0 132 33t116.5 90t96 133t71.5 162.5t43 178.5
t10 180q-2 63 -32.5 91.5t-81.5 27.5q-79 0 -137.5 -23t-99.5 -60.5t-66 -84t-37 -93.5t-12.5 -89t7.5 -69q7 -25 20.5 -44t30 -30t34 -14t31.5 5q12 6 22 3.5t16 -9.5t6 -17t-8 -17q-27 -24 -64.5 -26.5t-75 12.5t-71 46t-53.5 75zM534 1061q-6 23 4.5 39.5t33.5 16.5
t43 -16.5t26 -39.5t-5.5 -39t-34.5 -16t-42 16t-25 39zM369 1060q-7 23 3.5 39.5t33.5 16.5t43 -16.5t27 -39.5q6 -23 -5.5 -39t-34.5 -16t-42 16t-25 39z" />
    <glyph glyph-name="Igrave" unicode="&#xcc;" horiz-adv-x="927" 
d="M114 403q-32 71 -38 137t8.5 124t48 106.5t80.5 84.5t105 58.5t122 28.5q119 11 204 -23.5t120 -112.5q39 -87 52.5 -164t9 -146.5t-22 -133t-38.5 -124.5q-26 -78 -68.5 -152t-102.5 -131.5t-139.5 -91.5t-180.5 -31q-44 1 -83.5 14.5t-71.5 36t-55 52t-34 62.5
q-12 36 -8 72t25 65.5t60 48t98 18.5q25 0 55 -7.5t60 -19.5t56.5 -28t43.5 -33q7 -8 7 -15.5t-4 -12.5t-12 -6t-18 5q-44 26 -82.5 38.5t-79.5 11.5q-26 0 -52.5 -12t-45 -31.5t-26 -44.5t5.5 -52q12 -26 40 -39t63 -13q69 0 132 33t116.5 90t96 133t71.5 162.5t43 178.5
t10 180q-2 63 -32.5 91.5t-81.5 27.5q-79 0 -137.5 -23t-99.5 -60.5t-66 -84t-37 -93.5t-12.5 -89t7.5 -69q7 -25 20.5 -44t30 -30t34 -14t31.5 5q12 6 22 3.5t16 -9.5t6 -17t-8 -17q-27 -24 -64.5 -26.5t-75 12.5t-71 46t-53.5 75zM541 1009q0 -5 -2 -12t-14 -5
q-53 23 -99 50.5t-75 45.5q-13 9 -14 22.5t5.5 24t19 14.5t27.5 -5q19 -15 45 -35.5t50 -41t40.5 -36.5t16.5 -22z" />
    <glyph glyph-name="Oacute" unicode="&#xd3;" horiz-adv-x="1004" 
d="M344 973q11 5 28 -12.5t34 -45.5q49 26 95 32q52 7 103 -1.5t97 -32t84 -62t64 -90.5q44 -90 59 -173t9 -160t-28 -149t-52 -139q-33 -72 -83.5 -132t-109.5 -104t-122.5 -70.5t-121.5 -30.5q-65 -5 -126.5 5t-116 38t-99.5 75.5t-78 116.5q-43 91 -48.5 187t16 190
t64.5 181.5t97.5 161.5t115.5 129.5t119 85.5zM522 345q-11 -37 -36.5 -60t-59.5 -31.5t-72 -3.5t-73.5 23.5t-65.5 50.5t-46 76l-2 5q-26 -53 -45.5 -111t-28 -115.5t-3 -111.5t29.5 -99q16 -29 37 -45.5t42.5 -24t42.5 -8.5t36 0q58 4 115 32.5t109.5 75t98.5 108
t83 130.5t62.5 142.5t36.5 144.5t5.5 136t-30.5 117q-25 53 -61.5 72.5t-78 14t-85.5 -32t-84.5 -65t-74.5 -85.5t-55.5 -94t-27.5 -89.5t9 -72.5t39.5 -43.5t50 -15.5t47.5 4.5t33 15.5q9 7 19.5 6.5t19 -7t12.5 -17t1 -22.5zM504 1012q-3 6 4.5 22t20.5 36.5t28.5 41
t26.5 35.5q10 9 24.5 5t26.5 -14.5t18 -24t-2 -22.5q-18 -18 -50 -45.5t-73 -50.5q-11 -2 -16.5 5t-7.5 12z" />
    <glyph glyph-name="Ocircumflex" unicode="&#xd4;" horiz-adv-x="1004" 
d="M344 973q11 5 28 -12.5t34 -45.5q49 26 95 32q52 7 103 -1.5t97 -32t84 -62t64 -90.5q44 -90 59 -173t9 -160t-28 -149t-52 -139q-33 -72 -83.5 -132t-109.5 -104t-122.5 -70.5t-121.5 -30.5q-65 -5 -126.5 5t-116 38t-99.5 75.5t-78 116.5q-43 91 -48.5 187t16 190
t64.5 181.5t97.5 161.5t115.5 129.5t119 85.5zM522 345q-11 -37 -36.5 -60t-59.5 -31.5t-72 -3.5t-73.5 23.5t-65.5 50.5t-46 76l-2 5q-26 -53 -45.5 -111t-28 -115.5t-3 -111.5t29.5 -99q16 -29 37 -45.5t42.5 -24t42.5 -8.5t36 0q58 4 115 32.5t109.5 75t98.5 108
t83 130.5t62.5 142.5t36.5 144.5t5.5 136t-30.5 117q-25 53 -61.5 72.5t-78 14t-85.5 -32t-84.5 -65t-74.5 -85.5t-55.5 -94t-27.5 -89.5t9 -72.5t39.5 -43.5t50 -15.5t47.5 4.5t33 15.5q9 7 19.5 6.5t19 -7t12.5 -17t1 -22.5zM484 1049q1 0 13.5 7.5t31 19t40.5 23.5
t42.5 22.5t35.5 16t21 2.5q7 -3 19 -22t24 -40.5t20.5 -39.5t8.5 -19q0 -17 -13 -19.5t-24 11.5q-7 8 -11.5 14t-9 11.5t-9.5 11.5t-14 14q-16 -5 -35.5 -11t-39.5 -12.5t-39.5 -13t-35.5 -12.5q-15 -2 -22 3t-9 12t0 13.5t6 7.5z" />
    <glyph glyph-name="Ograve" unicode="&#xd2;" horiz-adv-x="1004" 
d="M344 973q11 5 28 -12.5t34 -45.5q49 26 95 32q52 7 103 -1.5t97 -32t84 -62t64 -90.5q44 -90 59 -173t9 -160t-28 -149t-52 -139q-33 -72 -83.5 -132t-109.5 -104t-122.5 -70.5t-121.5 -30.5q-65 -5 -126.5 5t-116 38t-99.5 75.5t-78 116.5q-43 91 -48.5 187t16 190
t64.5 181.5t97.5 161.5t115.5 129.5t119 85.5zM522 345q-11 -37 -36.5 -60t-59.5 -31.5t-72 -3.5t-73.5 23.5t-65.5 50.5t-46 76l-2 5q-26 -53 -45.5 -111t-28 -115.5t-3 -111.5t29.5 -99q16 -29 37 -45.5t42.5 -24t42.5 -8.5t36 0q58 4 115 32.5t109.5 75t98.5 108
t83 130.5t62.5 142.5t36.5 144.5t5.5 136t-30.5 117q-25 53 -61.5 72.5t-78 14t-85.5 -32t-84.5 -65t-74.5 -85.5t-55.5 -94t-27.5 -89.5t9 -72.5t39.5 -43.5t50 -15.5t47.5 4.5t33 15.5q9 7 19.5 6.5t19 -7t12.5 -17t1 -22.5zM562 1011q0 -5 -2 -12t-13 -5
q-54 23 -100 50.5t-75 45.5q-13 9 -14 22.5t5.5 24t19 14.5t27.5 -5q19 -15 45.5 -35.5t50 -41t40 -36.5t16.5 -22z" />
    <glyph glyph-name="Uacute" unicode="&#xda;" horiz-adv-x="1167" 
d="M984 896q11 16 33.5 22.5t45.5 2.5t40.5 -17t19.5 -36q-11 -22 -24.5 -67t-26.5 -105.5t-25 -133t-20.5 -150t-13 -156.5t-2 -152t12.5 -137t30 -111q3 -8 4 -15.5t-2 -11t-10.5 -3t-21.5 8.5q-34 19 -65.5 43t-56 47.5t-40.5 44.5t-20 33q-11 36 -15.5 83t-4 100.5
t6 112t14.5 117.5q-26 -64 -56 -129.5t-65 -127t-76 -115t-89.5 -93t-105 -62t-122.5 -21.5q-50 0 -88 19t-65 45.5t-43 54t-22 45.5q-12 36 -6.5 85.5t23.5 107t46 120t61 125.5t68 123.5t66.5 114t57 97t39.5 71.5q-44 4 -101 -10.5t-114.5 -41.5t-111 -63.5t-91 -77
t-54.5 -81t-2 -76.5q9 -22 24 -43t41 -29q13 -4 20.5 -13t9 -18t-4 -15t-19.5 -4q-20 1 -51 7t-65.5 21.5t-67.5 44.5t-55 77q-32 71 -14.5 129.5t68 104t127.5 78.5t163.5 53.5t175.5 28t164 3.5q61 -4 78 -25t5 -51q-4 -10 -23.5 -54t-47.5 -109.5t-61 -145.5t-64 -162
t-56.5 -159.5t-38 -138t-9 -97.5t29.5 -37q47 -1 95 24t94 67.5t90 99t84 118.5t75 126t63.5 121.5t50 105t34.5 76.5q19 62 38.5 110t38.5 76zM773 982q-4 6 4 22t21 36.5t28 41t26 35.5q10 9 25 5t27 -14.5t18 -24t-2 -22.5q-19 -18 -50.5 -45.5t-72.5 -50.5
q-11 -2 -16.5 5t-7.5 12z" />
    <glyph glyph-name="Ucircumflex" unicode="&#xdb;" horiz-adv-x="1167" 
d="M984 896q11 16 33.5 22.5t45.5 2.5t40.5 -17t19.5 -36q-11 -22 -24.5 -67t-26.5 -105.5t-25 -133t-20.5 -150t-13 -156.5t-2 -152t12.5 -137t30 -111q3 -8 4 -15.5t-2 -11t-10.5 -3t-21.5 8.5q-34 19 -65.5 43t-56 47.5t-40.5 44.5t-20 33q-11 36 -15.5 83t-4 100.5
t6 112t14.5 117.5q-26 -64 -56 -129.5t-65 -127t-76 -115t-89.5 -93t-105 -62t-122.5 -21.5q-50 0 -88 19t-65 45.5t-43 54t-22 45.5q-12 36 -6.5 85.5t23.5 107t46 120t61 125.5t68 123.5t66.5 114t57 97t39.5 71.5q-44 4 -101 -10.5t-114.5 -41.5t-111 -63.5t-91 -77
t-54.5 -81t-2 -76.5q9 -22 24 -43t41 -29q13 -4 20.5 -13t9 -18t-4 -15t-19.5 -4q-20 1 -51 7t-65.5 21.5t-67.5 44.5t-55 77q-32 71 -14.5 129.5t68 104t127.5 78.5t163.5 53.5t175.5 28t164 3.5q61 -4 78 -25t5 -51q-4 -10 -23.5 -54t-47.5 -109.5t-61 -145.5t-64 -162
t-56.5 -159.5t-38 -138t-9 -97.5t29.5 -37q47 -1 95 24t94 67.5t90 99t84 118.5t75 126t63.5 121.5t50 105t34.5 76.5q19 62 38.5 110t38.5 76zM676 1041q1 0 13 7.5t30.5 19t40.5 23.5t42.5 22.5t35.5 16t21 2.5q7 -3 19 -22t24 -40.5t20.5 -39.5t8.5 -19
q0 -17 -12.5 -19.5t-23.5 11.5q-8 8 -12.5 14t-9 11.5t-9.5 11.5t-14 14q-16 -5 -35.5 -11t-39.5 -12.5t-39.5 -13t-35.5 -12.5q-15 -2 -22 3t-9 12t0.5 13.5t6.5 7.5z" />
    <glyph glyph-name="Ugrave" unicode="&#xd9;" horiz-adv-x="1167" 
d="M984 896q11 16 33.5 22.5t45.5 2.5t40.5 -17t19.5 -36q-11 -22 -24.5 -67t-26.5 -105.5t-25 -133t-20.5 -150t-13 -156.5t-2 -152t12.5 -137t30 -111q3 -8 4 -15.5t-2 -11t-10.5 -3t-21.5 8.5q-34 19 -65.5 43t-56 47.5t-40.5 44.5t-20 33q-11 36 -15.5 83t-4 100.5
t6 112t14.5 117.5q-26 -64 -56 -129.5t-65 -127t-76 -115t-89.5 -93t-105 -62t-122.5 -21.5q-50 0 -88 19t-65 45.5t-43 54t-22 45.5q-12 36 -6.5 85.5t23.5 107t46 120t61 125.5t68 123.5t66.5 114t57 97t39.5 71.5q-44 4 -101 -10.5t-114.5 -41.5t-111 -63.5t-91 -77
t-54.5 -81t-2 -76.5q9 -22 24 -43t41 -29q13 -4 20.5 -13t9 -18t-4 -15t-19.5 -4q-20 1 -51 7t-65.5 21.5t-67.5 44.5t-55 77q-32 71 -14.5 129.5t68 104t127.5 78.5t163.5 53.5t175.5 28t164 3.5q61 -4 78 -25t5 -51q-4 -10 -23.5 -54t-47.5 -109.5t-61 -145.5t-64 -162
t-56.5 -159.5t-38 -138t-9 -97.5t29.5 -37q47 -1 95 24t94 67.5t90 99t84 118.5t75 126t63.5 121.5t50 105t34.5 76.5q19 62 38.5 110t38.5 76zM808 991q-1 -5 -2.5 -12t-13.5 -5q-53 23 -99.5 50.5t-75.5 45.5q-12 9 -13.5 22.5t5.5 24t19.5 14.5t27.5 -5q19 -15 45 -35.5
t50 -41t40.5 -36.5t16.5 -22z" />
    <glyph glyph-name="oslash" unicode="&#xf8;" horiz-adv-x="484" 
d="M168 522q2 5 9.5 7t15.5 1t14.5 -5t7.5 -10l-6 -49q22 -5 45.5 -15t40.5 -26q14 -14 15 -20.5t-25 -6.5q-25 0 -48.5 -12.5t-43.5 -32.5l-37 -280q14 9 29.5 24t32.5 37q-16 20 -23 40t-8.5 39.5t1.5 38.5t9 36q3 11 12 25.5t22 26.5t29.5 17.5t34.5 -1.5
q32 -12 47.5 -32t18 -45.5t-6 -55t-24.5 -60.5q26 3 48 16t40.5 32.5t34 44.5t27.5 52q4 9 13 9t18 -5t15 -13.5t2 -17.5q-21 -55 -43.5 -92.5t-50.5 -59.5t-63 -29.5t-81 -2.5l-16 -21q-20 -27 -54 -50t-76 -33q-1 -8 -1.5 -16t-1.5 -16q-1 -7 -8 -10t-15.5 -2t-15.5 5.5
t-8 11.5l3 22q-29 2 -53 14.5t-42.5 32.5t-31 45.5t-17.5 53.5q-11 54 -0.5 113t38 109t71 82.5t99.5 33.5h1zM136 275q-20 -36 -34 -74t-19 -69.5t0 -52.5t22 -22z" />
    <glyph glyph-name="eth" unicode="&#xf0;" horiz-adv-x="437" 
d="M-44 402q12 50 41.5 83t68 48t81 12.5t80.5 -21.5q34 -18 57 -49l42 13q30 -5 35 -19.5t-12 -28.5l-38 -11q23 -50 27.5 -111.5t-11.5 -120.5t-53.5 -108t-97.5 -74q-58 -24 -106 -17t-80.5 34t-48 68.5t-9.5 86.5t35 88.5t86 73.5q38 20 77 22t71 -9q-2 8 -3 16t-4 16
l-29 -8q-15 -1 -25.5 5t-14 14t0 16.5t16.5 12.5l23 7q-4 4 -9 7.5t-10 7.5q-11 7 -21.5 10.5t-19.5 -1t-16.5 -19.5t-12.5 -46q1 -15 -15.5 -22t-38.5 -6.5t-41.5 8.5t-24.5 22zM190 221q7 37 -8 55t-37.5 14.5t-45.5 -28.5t-32 -73q-8 -41 5 -70t34 -35t43.5 16t34.5 85
q2 8 3.5 16.5t3.5 17.5z" />
    <glyph glyph-name="brokenbar" unicode="&#xa6;" horiz-adv-x="161" 
d="M33 815q0 6 7.5 9.5t17 4t18 -2.5t11.5 -9q0 -91 -1 -181t-1 -181q0 -4 -8 -7t-18 -3.5t-19.5 2t-11.5 8.5zM84 322q-2 -86 -1.5 -173t0.5 -173q-5 -6 -14.5 -9.5t-19.5 -3.5t-18 3t-10 9l6 344q0 4 8 7t18.5 4t19.5 -1t11 -7z" />
    <glyph glyph-name="minus" unicode="&#x2212;" horiz-adv-x="677" 
d="M161 223q-16 3 -26.5 15.5t-13.5 27t2.5 26.5t20.5 13h298q15 -6 23.5 -18t11 -24.5t-2 -24t-15.5 -15.5h-298v0z" />
    <glyph glyph-name="multiply" unicode="&#xd7;" horiz-adv-x="621" 
d="M228 213l-54 -66q-11 -9 -27 -4.5t-29.5 16t-20 26t2.5 26.5l56 65l-89 78q-20 18 -24.5 34t2.5 25t23 8.5t39 -16.5l92 -80l72 84q12 5 26 1t25 -13.5t16 -22t1 -24.5l-70 -87l79 -68q15 -18 18 -32t-3 -22t-20 -8t-35 11z" />
    <glyph glyph-name="germandbls" unicode="&#xdf;" horiz-adv-x="552" 
d="M179 -49q46 -2 77 9t49 30t24 45t3 55q-4 57 -40.5 92t-108.5 41q-18 1 -27.5 10t-11.5 19.5t4.5 20t21.5 12.5q40 2 75.5 17.5t61 42.5t39.5 64t11 81q-1 9 -5 26t-14.5 34.5t-28.5 30.5t-46 13q-32 0 -53 -12.5t-34.5 -34t-22 -50.5t-14.5 -62q-8 -42 -13.5 -95.5
t-10.5 -111.5t-9 -117t-8.5 -111t-9.5 -94t-12 -67q-1 -14 -18 -23.5t-37.5 -11.5t-39 4t-23.5 23q1 1 1 22t0.5 56t1 81t1 97.5t1 104.5t1.5 103q1 43 4 89.5t11.5 91t25.5 84.5t45.5 70.5t71 48.5t102.5 19q56 -1 103 -17.5t82.5 -46.5t57 -72.5t27.5 -94.5q6 -45 -9 -83
t-41 -67t-58.5 -48t-62.5 -26q53 -12 87.5 -47.5t48.5 -76.5q19 -56 -1 -103t-64 -78t-103 -43t-117 0q-11 3 -19 12.5t-9.5 19.5t6 17.5t27.5 6.5z" />
    <glyph glyph-name="section" unicode="&#xa7;" horiz-adv-x="490" 
d="M397 186q-11 -22 -33 -45t-59 -33q31 -31 56 -61.5t34 -62.5q7 -24 3.5 -47.5t-16 -42t-32.5 -31t-45 -15.5q-35 -4 -73.5 2.5t-70.5 22.5t-51.5 41t-15.5 58q2 12 17.5 20.5t33.5 12t32.5 -0.5t14.5 -17q-15 -32 -10 -54.5t20 -35t35 -16t36 3t22.5 21.5t-4.5 40
q-7 23 -28 49.5t-46.5 55t-52.5 58t-47.5 57.5t-29.5 54.5t1 48.5q11 21 32.5 44t58.5 34q-32 31 -56.5 61.5t-33.5 62.5q-7 24 -3.5 47.5t16 42t32.5 31t46 15.5q34 4 73 -2.5t71.5 -22.5t51.5 -41t15 -58q-2 -12 -17.5 -20.5t-33 -12t-32.5 0t-15 17.5q15 32 10.5 54.5
t-19.5 35t-35.5 16t-36.5 -3t-23 -22t4 -39.5q7 -23 27.5 -49.5t46.5 -55t53.5 -58t47.5 -57.5t29.5 -54.5t-0.5 -48.5zM317 189q-11 24 -30.5 48t-42.5 47q-13 5 -29 8t-29 2t-19 -7.5t1 -20.5q10 -24 29 -48t42 -47q13 -5 29.5 -8.5t29 -2t19 8t0.5 20.5z" />
    <glyph glyph-name="bullet" unicode="&#x2022;" horiz-adv-x="421" 
d="M31 248q-14 34 -1 57.5t47 23.5q17 0 34.5 -6.5t33 -17.5t28 -25.5t19.5 -31.5q14 -34 0.5 -57t-47.5 -23q-17 0 -34 6t-32.5 17t-28 25.5t-19.5 31.5z" />
    <glyph glyph-name="infinity" unicode="&#x221e;" horiz-adv-x="1076" 
d="M776 67q-51 -14 -93.5 -6.5t-79.5 28t-70.5 50t-65.5 61.5q-9 -9 -16.5 -17t-13.5 -15q-23 -24 -61.5 -48t-81 -31t-83 11t-66.5 77q-18 42 -22 85t9.5 75t46 47.5t88.5 2.5q52 -13 98.5 -33t94.5 -58l11 -9l95 82q27 23 69.5 37.5t87 10t85 -34.5t63.5 -97
q12 -32 9.5 -67.5t-15.5 -66.5t-36 -54t-53 -30zM697 363q-22 -1 -45.5 -11.5t-47 -26t-46.5 -35.5t-44 -41q19 -16 38.5 -32t40 -28.5t41.5 -21t42 -10.5q54 -5 86 19t28 75q-1 14 -7.5 34.5t-18.5 38.5t-29 30t-38 9zM420 245q-33 30 -68 53t-76 32q-20 3 -31 -8
t-14.5 -29.5t0 -40t12 -39.5t21.5 -29.5t28 -9.5q29 4 51.5 18t42.5 28z" />
    <glyph glyph-name="plusminus" unicode="&#xb1;" horiz-adv-x="584" 
d="M244 342h96q15 -6 24 -18t11 -24.5t-2.5 -24t-15.5 -15.5h-107l7 -111q-2 -13 -16.5 -18t-31.5 -3t-31.5 11t-15.5 24l-6 97h-97q-16 3 -26.5 15.5t-13.5 27t2.5 26.5t20.5 13h109l-6 101q5 10 18.5 14.5t28.5 2.5t28.5 -9.5t18.5 -21.5zM96 20q-16 3 -26.5 15.5
t-13.5 27t2.5 26.5t20.5 13h298q15 -6 24 -18t11 -24.5t-2.5 -24t-15.5 -15.5h-298z" />
    <glyph glyph-name="lessequal" unicode="&#x2264;" horiz-adv-x="644" 
d="M222 748q15 7 31.5 1.5t27 -17.5t12.5 -26t-10 -24q-75 -49 -143.5 -105.5t-142.5 -107.5q72 -24 144.5 -52t144.5 -49q18 -9 27 -21.5t9.5 -23.5t-8 -18t-25.5 -5q-95 28 -188.5 65t-187.5 64q-28 11 -38.5 31t0.5 36q46 29 89.5 61t85.5 65t84.5 65t87.5 61zM-24 203
q-12 1 -17.5 12t-5.5 23t6 22.5t18 10.5l485 -5q11 -3 15.5 -13t3.5 -21.5t-6.5 -21.5t-14.5 -12z" />
    <glyph glyph-name="greaterequal" unicode="&#x2265;" horiz-adv-x="689" 
d="M18 315q-15 -7 -31 -1.5t-26.5 17.5t-12.5 26t10 24q75 49 143 105.5t142 107.5q-72 24 -144.5 52t-144.5 49q-17 9 -26 21.5t-9.5 23.5t8 17.5t25.5 5.5q94 -28 187.5 -65t187.5 -64q29 -11 39.5 -31t-0.5 -36q-47 -29 -90 -61t-85 -65t-85 -65t-88 -61zM0 203
q-12 1 -17.5 12t-5.5 23t6 22.5t17 10.5l486 -5q11 -3 15.5 -13t3.5 -21.5t-6.5 -21.5t-14.5 -12z" />
    <glyph glyph-name="approxequal" unicode="&#x2248;" horiz-adv-x="793" 
d="M157 342q-7 -9 -18.5 -11.5t-23.5 1.5t-21.5 13t-11.5 21q2 17 13 38.5t29 39t42.5 25.5t54.5 -2q21 -7 38 -21t32 -31t29 -33t28.5 -26.5t31.5 -13t38 9.5q19 11 33.5 25.5t19.5 34.5q5 12 17.5 15t25.5 -1t22.5 -14t8.5 -23q-5 -23 -19.5 -49.5t-38 -46.5t-56 -29
t-74.5 4q-22 7 -47 29t-49 44.5t-44.5 36.5t-33.5 5q-23 -17 -26 -41zM215 173q-7 -9 -18.5 -11.5t-23.5 1.5t-21.5 13t-11.5 21q2 17 13 38.5t29 39t42.5 25.5t54.5 -2q21 -7 38 -21t31.5 -31t28.5 -33t29 -26.5t32 -13t38 9.5q19 11 33 25.5t19 34.5q5 12 18 15t26 -1
t22.5 -14t8.5 -23q-5 -23 -19.5 -49.5t-38 -46.5t-56.5 -29t-75 4q-22 7 -47 29t-48.5 44.5t-44 36.5t-33.5 5q-23 -16 -26 -41z" />
    <glyph glyph-name="guillemotleft" unicode="&#xab;" horiz-adv-x="1098" 
d="M700 563q15 7 31 1.5t26.5 -17.5t13 -26t-9.5 -24q-76 -49 -144.5 -105.5t-142.5 -107.5q73 -24 145.5 -52t144.5 -49q17 -9 26 -21.5t9.5 -23.5t-7.5 -18t-25 -5q-95 28 -189 65t-188 64q-28 11 -39 31t0 36q47 29 90 61t85.5 65t85 65t88.5 61zM446 548q15 7 31.5 1.5
t27 -17.5t12.5 -26t-10 -24q-76 -49 -144.5 -105.5t-142.5 -107.5q73 -24 145.5 -52t144.5 -49q18 -9 27 -21.5t9.5 -23.5t-8 -18t-25.5 -5q-95 28 -188.5 65t-188.5 64q-28 11 -38.5 31t0.5 36q46 29 89.5 61t85.5 65t85 65t88 61z" />
    <glyph glyph-name="guillemotright" unicode="&#xbb;" horiz-adv-x="1104" 
d="M476 134q-15 -7 -31.5 -1.5t-27 17.5t-12.5 26t10 24q75 49 143.5 105.5t142.5 107.5q-72 24 -145 52t-145 49q-17 9 -26 21.5t-9.5 23.5t7.5 17.5t25 5.5q95 -28 189 -65t188 -64q29 -11 39.5 -31t-0.5 -36q-47 -29 -90 -61t-85.5 -65t-85 -65t-87.5 -61zM186 115
q-15 -7 -31.5 -1.5t-27 17.5t-12.5 26t10 24q75 49 143.5 105.5t142.5 107.5q-72 24 -145 52t-145 49q-17 9 -26 21.5t-9.5 23.5t8 17.5t25.5 5.5q94 -28 188 -65t188 -64q29 -11 39.5 -31t-0.5 -36q-47 -29 -90 -61t-85.5 -65t-85 -65t-87.5 -61z" />
    <glyph glyph-name="Lslash" unicode="&#x141;" horiz-adv-x="1047" 
d="M491 804q15 -6 21.5 -15t6.5 -16.5t-8 -11.5t-23 1q-26 9 -68 17.5t-89.5 13.5t-94 5t-81 -8t-51.5 -26.5t-3 -50.5q10 -23 35 -41t60 -31.5t78.5 -22.5t89 -14.5t90.5 -8t84 -1.5h16q9 0 17 1q30 74 62 141t68.5 119t78 84t91.5 36q31 3 63 -2t59.5 -17.5t49 -34
t34.5 -51.5q32 -78 17.5 -143.5t-65 -115.5t-131 -82.5t-179.5 -44.5q-19 -61 -38 -123l40 7q16 -2 26 -10.5t13.5 -18.5t0 -19.5t-14.5 -14.5l-86 -16q-10 -30 -22 -60q-22 -62 -48.5 -120t-61.5 -106q24 -11 44.5 -19t41.5 -14t44.5 -9t54.5 -2q36 1 66 6.5t54.5 18
t46 33.5t43.5 53q5 8 13 6.5t15.5 -9t13 -18.5t7.5 -21q4 -38 -12 -75t-45.5 -66.5t-69 -48t-82.5 -18.5q-49 0 -91 8.5t-80 22.5t-74.5 32.5t-72.5 38.5q-46 -42 -102 -64t-124 -20q-76 2 -132 25t-91 56.5t-48 72.5t-2 72t47.5 55t100.5 22q80 0 144 -19.5t121 -46.5
q23 38 44 85q19 43 38 90l-41 -7q-16 0 -27.5 8.5t-15.5 20t0 22t19 13.5l94 16q8 22 16 45q22 56 42 113q-95 3 -177.5 18t-147 42.5t-109.5 68t-65 94.5q-19 51 -7 84.5t44 51.5t81 23t106.5 -1t119 -21.5t118.5 -36.5zM927 880q-29 -5 -53.5 -26t-46 -54.5t-40.5 -77.5
t-37 -95q68 23 114.5 56t89.5 66q8 7 16.5 21t14.5 30t7.5 32.5t-4 28.5t-20 18t-41.5 1zM195 -48q29 -3 55 9t51 36q-31 12 -64.5 20t-69.5 10q-40 2 -64.5 -6.5t-25 -21.5t27 -26.5t90.5 -20.5z" />
    <glyph glyph-name="lslash" unicode="&#x142;" horiz-adv-x="343" 
d="M-24 475q-17 0 -28.5 8.5t-15.5 20t0.5 22t19.5 13.5l53 9q13 45 30 86.5t38.5 73.5t48.5 51.5t60 19.5q27 0 47.5 -10.5t35 -26.5t21.5 -34t7 -34q1 -17 -1 -36t-6 -40l10 2q16 -2 26 -10.5t13.5 -18.5t0 -19.5t-14.5 -14.5l-54 -10q-13 -38 -31 -76.5t-39.5 -71.5
t-45.5 -59t-50 -39q-7 -43 -1 -82.5t17 -69.5t25 -48t23 -18q33 0 59.5 27.5t47.5 67t37.5 82t29.5 72.5q4 9 13 8.5t18 -6.5t14.5 -15t1.5 -18q-15 -34 -34.5 -83.5t-46 -96t-61 -79.5t-78.5 -33q-68 0 -113 37t-68 96.5t-26 133t12 146.5q3 17 6.5 36t8.5 39zM224 722
q-5 0 -12 -11.5t-14.5 -31t-15.5 -46t-16 -56.5l63 11q7 27 11 51t4 42.5t-5 29.5t-15 11zM117 368q25 22 48 62t40 86l-58 -10q-8 -37 -16.5 -72.5t-13.5 -65.5z" />
    <glyph glyph-name="Scaron" unicode="&#x160;" horiz-adv-x="1084" 
d="M916 686q-11 -19 -21.5 -13.5t-21.5 22.5q-14 21 -45 38.5t-77 30t-104.5 19t-127.5 6.5q-60 0 -113.5 -6t-93 -16.5t-60.5 -25t-15 -30.5q7 -21 51 -33.5t109.5 -27.5t143.5 -37t154.5 -61.5t142.5 -101.5t106 -157q49 -115 34 -218t-84 -180.5t-187 -122.5t-276 -44
q-99 1 -186 20t-159 57.5t-126.5 97.5t-86.5 140q-24 62 -19 122t42 108t107.5 80.5t176.5 40.5q50 5 113 3t127.5 -21.5t123.5 -62t102 -117.5q6 -9 3.5 -15t-9 -6.5t-16.5 4.5t-20 17q-34 43 -85.5 64.5t-106 30t-105.5 6.5t-83 -7q-61 -9 -109 -32.5t-79.5 -54.5t-45 -66
t-5.5 -67q11 -44 37.5 -76t62.5 -54t77 -36t80.5 -21.5t73.5 -10t55 -2.5q68 0 138 14t133.5 40t116.5 63.5t85.5 85t41.5 103.5t-15 120q-17 44 -56 74.5t-92 52t-116.5 37.5t-129 30.5t-129 31.5t-117.5 40t-94 56t-58 80q-16 42 -1.5 83t61 74t126.5 54t197 23
q45 0 94.5 -3.5t97.5 -10.5t92 -16.5t78.5 -20.5t57 -23.5t28.5 -25.5q20 -45 21 -81t-15 -65zM742 1080q0 -2 -25.5 -17.5t-58 -33.5t-62 -31t-37.5 -9q-7 3 -19 22t-24 40.5t-21 39.5t-9 19q-3 19 9.5 22.5t27.5 -14.5q7 -8 11.5 -14t9 -11.5t10 -11.5t14.5 -14
q32 9 74 23.5t76 25.5q11 1 18.5 -3.5t11 -10.5t2 -12t-7.5 -10z" />
    <glyph glyph-name="scaron" unicode="&#x161;" horiz-adv-x="376" 
d="M77 -6q-29 1 -55.5 13.5t-48 33.5t-35.5 47.5t-17 56.5q-6 38 6 69t44 37q10 21 19.5 46.5t18 51t16 47.5t13.5 35q-7 48 -3 80.5t16 51.5t30 27t39 8t35.5 -10.5t22 -25t8 -29.5t-5.5 -25q-5 -8 -12.5 -21.5t-24.5 -33.5q-8 -12 -12.5 -17.5t-9.5 -12.5q10 -27 26 -59.5
t33.5 -67.5t32 -71t21.5 -70q6 -30 1 -56q21 13 41 38t38 55.5t33 62t26 57.5q4 9 13 8.5t18 -6.5t14.5 -15t1.5 -18q-10 -23 -20.5 -53t-26 -62.5t-38 -64t-57 -56t-83.5 -39t-117 -13.5zM296 764q0 -2 -25.5 -17.5t-58 -33.5t-62 -31t-37.5 -9q-7 3 -19 22t-24 40.5
t-21 39.5t-9 19q-3 19 9.5 22.5t27.5 -14.5q7 -8 11.5 -14t9 -11.5t10 -11.5t14.5 -14q16 4 35 10.5t39 13t39.5 13t36.5 12.5q11 1 18.5 -3.5t11 -10.5t2 -12t-7.5 -10zM69 350q-11 -21 -21 -51.5t-23 -60.5q31 -19 39 -44q6 -17 5 -27.5t-8 -21.5q-6 -6 -13.5 -7.5
t-9.5 6.5q-5 16 -13 22.5t-15.5 3.5t-11 -14t1.5 -30q4 -17 12.5 -28.5t18 -19.5t18.5 -12t15 -4q24 -2 34.5 12.5t12 38.5t-3.5 55t-12.5 63.5t-15 63.5t-10.5 55z" />
    <glyph glyph-name="Yacute" unicode="&#xdd;" horiz-adv-x="1098" 
d="M350 -321q48 0 90.5 20t80 55.5t70 84.5t61.5 108q-41 8 -75.5 11.5t-62.5 2.5q-43 -1 -86.5 -10t-82.5 -24.5t-71.5 -36.5t-53 -46.5t-28 -53.5t4.5 -58q7 -18 22.5 -28.5t36.5 -16t45.5 -7t48.5 -1.5zM962 905q6 16 28.5 22.5t46 5.5t41 -10t14.5 -24
q-11 -46 -21 -112.5t-22.5 -146t-28.5 -169t-37 -181t-48 -182.5t-63 -174q49 -30 102 -69q10 -7 13.5 -15t2 -13.5t-8 -8t-17.5 1.5q-28 17 -56.5 31.5t-57.5 26.5q-36 -74 -79.5 -137.5t-97.5 -110t-120 -71.5t-146 -22q-65 3 -114 18t-84 40t-57.5 57t-34.5 68
q-19 60 -8.5 116.5t53.5 100.5t121 72.5t194 32.5q115 -1 209 -31q44 104 78.5 220t63.5 228q-38 -70 -78.5 -135t-84 -115.5t-89.5 -80.5t-93 -30q-50 0 -88 19t-65 45t-43 54t-22 46q-17 48 -8.5 101.5t32 108t57.5 108.5t69 105t67 97t51 84q-45 4 -105.5 -16t-125 -55
t-125 -80.5t-105 -93.5t-66 -94t-6.5 -82q10 -22 25 -43t41 -29q13 -4 20.5 -13t9 -18t-4 -15t-19.5 -4q-20 1 -51 7t-65.5 21.5t-67.5 44.5t-55 77q-24 53 -17 102.5t37 93t79.5 82t111 70t131 55.5t139.5 39.5t137.5 22t123.5 3.5q61 -4 78 -25t5 -51q-4 -10 -20 -43.5
t-38 -81.5t-47.5 -106.5t-48 -117.5t-40 -115t-24 -99.5t1 -71t34.5 -28.5q22 -1 56.5 24.5t74.5 68t82.5 97t81.5 111t71 109.5t52 94q17 63 34 111.5t34 77.5zM810 1003q-4 6 4 22t21 36.5t28 41t26 35.5q10 9 25 5t27 -14.5t18 -24t-2 -22.5q-19 -18 -50.5 -45.5
t-72.5 -50.5q-11 -2 -16.5 5t-7.5 12z" />
    <glyph glyph-name="yacute" unicode="&#xfd;" horiz-adv-x="558" 
d="M604 280q-15 -30 -28 -65.5t-33 -73.5t-51.5 -77.5t-83.5 -76.5q-6 -5 -12.5 -8.5t-12.5 -8.5q-6 -83 -15 -170q-5 -45 -21.5 -71t-38 -39.5t-44.5 -17t-42 -2.5t-38 8.5t-35.5 19.5t-29.5 27.5t-20 33.5q-12 30 -5 55.5t26.5 47t49 41t62.5 39.5q0 35 2 69t5 66
q-29 -40 -63 -64t-64 -24q-48 0 -78 24.5t-45.5 62.5t-18.5 84.5t5 90.5q7 39 15.5 84t12.5 80q2 7 3 24.5t-3 26.5q-3 9 8.5 7.5t26.5 -6.5q10 -3 28.5 -12.5t38 -22t35.5 -25.5t19 -21q1 -2 -2 -18t-8.5 -38.5t-11.5 -49t-11.5 -51t-9.5 -43t-5 -25.5q-2 -17 -2 -34.5
t1.5 -32t5.5 -23t12 -8.5q13 0 30.5 12.5t35.5 33.5t33 48.5t23 57.5q2 29 7 63.5t9 69t5.5 66t-4.5 54.5q-2 9 10 5.5t27 -10.5q10 -4 25.5 -14.5t30.5 -23.5t27.5 -26t15.5 -21q7 -21 6.5 -62.5t-4 -89.5t-9 -96t-7.5 -83q32 30 55 59t41.5 61t35 67.5t35.5 78.5q4 9 13 8
t18 -7t15 -15.5t2 -18.5zM233 -144q-1 5 -1 9v9q-43 -29 -67 -53.5t-16 -49.5q5 -18 19 -27.5t28 -8.5t22 9.5t11.5 24.5t4 38t-0.5 49zM127 528q-3 6 5 22t21 36.5t28 41t26 35.5q10 9 25 5t27 -14.5t17.5 -24t-1.5 -22.5q-19 -18 -51 -45.5t-72 -50.5q-11 -2 -16.5 5
t-8.5 12z" />
    <glyph glyph-name="Thorn" unicode="&#xde;" 
 />
    <glyph glyph-name="thorn" unicode="&#xfe;" horiz-adv-x="161" 
d="M84 200q-5 -14 -8.5 -26.5t-8.5 -24.5q11 -44 22.5 -87t23.5 -86q-3 -6 -12 -9.5t-18.5 -3.5t-18.5 3t-12 9l-23 90q-21 -34 -49.5 -54t-66.5 -21q-77 -1 -128 34.5t-78.5 92t-32 127.5t12.5 141q12 48 27.5 102t35.5 105t46 93.5t58 66.5q-9 31 -15 63q-2 6 4.5 9.5
t16 4t19 -2.5t13.5 -9q2 -11 5 -21.5t6 -21.5q9 3 20 3q27 1 46 -9t32 -25.5t19.5 -34.5t7.5 -35q2 -35 -12 -84t-37 -102l15 -57q2 14 6.5 26.5t13.5 21.5t23.5 14t36.5 4q23 -1 35.5 -14t17.5 -33t3.5 -44.5t-5.5 -47.5t-9 -42t-8 -28q1 -8 7.5 -19.5t15.5 -22.5t20 -19.5
t22 -8.5q18 0 32 8t25.5 22.5t21 32.5t18.5 38q4 9 12.5 10t17 -3.5t13.5 -13.5t2 -20q-8 -29 -20 -56t-28 -47.5t-36 -32.5t-43 -11q-29 1 -52 12t-52 44zM-92 52q34 1 55.5 35.5t37.5 85.5l-61 240q-29 -51 -62 -89t-63 -48q-9 -43 -4.5 -83.5t18.5 -72t34.5 -50.5
t44.5 -18zM-168 366q24 20 46 54t42 73l-23 90q-18 -54 -35.5 -112t-29.5 -105zM-38 721q-6 0 -13.5 -14t-18.5 -37l25 -94q10 29 16.5 55.5t8 46t-2.5 31.5t-15 12z" />
    <glyph glyph-name="Zcaron" unicode="&#x17d;" horiz-adv-x="1372" 
d="M510 -284q87 -1 160 19.5t133.5 55.5t108 81t82.5 97q-51 49 -115 83t-133.5 54.5t-141 27t-136 0t-119 -25.5t-90.5 -50.5t-50 -75t2 -98.5q10 -33 35 -63.5t63 -53.5t88.5 -36.5t112.5 -14.5zM509 784q9 -26 28 -38t41 -14q32 -3 66.5 8.5t70 30.5t72.5 41.5t75.5 42.5
t77.5 34t80 15q39 2 74.5 -21t59.5 -71q23 -50 14 -95t-35 -88.5t-61.5 -85.5t-65.5 -86q11 1 22 1h22q24 0 50 -10t50.5 -27t46 -39.5t36.5 -49.5q21 -44 26 -95.5t-4.5 -105.5t-32.5 -109.5t-59 -107.5q29 -35 42 -74.5t13.5 -78t-10.5 -73.5t-31.5 -61t-49.5 -40t-63 -11
q-15 1 -25 7.5t-13.5 14t0.5 14.5t16 10q22 6 37.5 26t22 48.5t4 62.5t-14.5 67q-46 -47 -102.5 -87.5t-122 -70t-140.5 -46.5t-159 -18q-92 -1 -172 23.5t-142.5 65t-103.5 91t-56 100.5q-19 70 -3 126t58 96.5t105.5 66t140.5 35.5t162 5.5t169.5 -25t164.5 -56t147 -86.5
q20 40 31 82t13.5 81t-2 72t-14.5 55q-11 20 -28.5 29.5t-32.5 9.5q-31 0 -53 -16.5t-36 -30.5q-8 -6 -24.5 -2t-33.5 13.5t-29.5 21.5t-10.5 22q3 27 28 68t59 86.5t70.5 90.5t62 81t33.5 58t-14 21t-51.5 -16.5t-66 -38.5t-79.5 -49t-92 -47.5t-103.5 -35t-114.5 -10.5
q-23 1 -49 9t-51.5 24.5t-48 41t-37.5 58.5q-14 32 -14 60t12 49t35.5 33.5t55.5 12.5q15 0 32 -2.5t35 -10.5q20 -9 20.5 -20.5t-12.5 -13.5q-1 0 -5.5 -3.5t-8.5 -9.5t-6 -15t2 -20zM911 1036q0 -1 -12.5 -9t-31 -19t-40.5 -23t-42.5 -22t-36.5 -15.5t-21 -2.5
q-7 3 -19 22t-24 40.5t-20.5 39.5t-8.5 19q-4 19 8.5 22.5t28.5 -14.5q7 -8 11.5 -14t8.5 -11.5t9.5 -11.5t14.5 -14q16 4 35.5 10.5t39.5 13t39 13t36 12.5q12 1 19.5 -3.5t10.5 -10.5t2 -12t-7 -10z" />
    <glyph glyph-name="zcaron" unicode="&#x17e;" horiz-adv-x="439" 
d="M37 265q-4 -9 -13.5 -9t-18.5 6t-14.5 15t-1.5 18q7 14 14.5 43t9.5 68q-19 22 -26 45.5t-3 45.5q5 34 26.5 53.5t43.5 20.5q21 0 38 -10t27.5 -26t13.5 -34t-4 -33l-23 -47q6 2 11 4l10 4q16 6 39.5 8.5t48 -2t47.5 -16.5t38 -35q22 -32 24 -64.5t-8.5 -64t-31 -62
t-42.5 -58.5q23 -6 41 -18t32 -28q21 25 37.5 50.5t30 52.5t26 56.5t27.5 64.5q3 9 12.5 8t18.5 -7t14.5 -15.5t1.5 -18.5q-16 -34 -30 -66t-29 -62t-33 -59t-43 -57q19 -42 24.5 -88t1.5 -85q-4 -44 -17 -82.5t-35.5 -67t-54.5 -44.5t-74 -16q-28 0 -49 9t-35 21.5
t-23 26.5t-13 24q-15 34 -6.5 66.5t32 65t58 65.5t72.5 69q-4 22 -8.5 34.5t-9 18.5t-9 7.5t-8.5 1.5q-5 0 -10.5 -7t-11 -17.5t-10 -23t-7.5 -24.5q-5 -7 -19 -8t-29 2.5t-27 10.5t-12 16q-4 30 3 62t20 63t29 59.5t30.5 52.5t23.5 42t8 27q-2 15 -11 20.5t-22.5 7.5
t-31 4.5t-38.5 10.5q-10 -20 -20.5 -43.5t-21.5 -51.5zM171 -288q26 1 40.5 19.5t20.5 48.5t6 68t-2 77q-27 -29 -49 -56.5t-36.5 -51.5t-20.5 -43.5t0 -32.5q6 -14 16.5 -22t24.5 -7zM354 715q0 -2 -25.5 -17.5t-58 -33.5t-62 -31t-37.5 -9q-7 3 -19 22t-24 40.5t-21 39.5
t-9 19q-3 19 9.5 22.5t27.5 -14.5q7 -8 11.5 -14t9 -11.5t10 -11.5t14.5 -14q32 9 74 23.5t76 25.5q11 1 18.5 -3.5t11 -10.5t2 -12t-7.5 -10z" />
    <glyph glyph-name="onehalf" unicode="&#xbd;" horiz-adv-x="1146" 
d="M19 326q-17 -11 -33.5 -3.5t-23.5 23.5q-4 8 -2.5 18t7.5 18q42 45 90 84.5t96 85.5q8 4 22.5 5.5t30.5 1.5q15 0 29.5 -1.5t26.5 -5.5t19.5 -9.5t7.5 -12.5q-19 -132 -38.5 -261t-39.5 -260h1q-7 -11 -28.5 -16.5t-47.5 -5.5q-15 0 -29 2t-25.5 6.5t-19 10.5t-7.5 14
q4 32 9.5 66t13 79t18.5 105t27 144l-3 2l-12 -10q-22 -20 -45 -39.5t-44 -40.5zM379 787q3 8 12.5 11t20 1.5t19.5 -7t11 -14.5q-20 -198 -42.5 -393.5t-42.5 -393.5q-1 -10 -11 -14t-21 -2.5t-21 7.5t-11 16q20 198 44 394.5t42 394.5zM807 330q-2 -14 -18 -21t-36 -7
q-15 0 -29 3t-26 8.5t-19.5 13.5t-8.5 18q5 34 15 72t30 71.5t51.5 57.5t79.5 29q34 2 68 -5.5t63 -22.5t51 -37t34 -49q17 -40 15 -77.5t-16 -72.5t-38 -66.5t-52 -59.5t-56.5 -51.5t-52.5 -42.5l3 -5q43 3 87 8t100 8q10 -8 11 -25t-3.5 -33.5t-12.5 -29.5t-17 -14
q-33 0 -67 -0.5t-72.5 -1t-82.5 -1t-97 -0.5q-17 2 -34 19t-25 35q-5 11 -2.5 20.5t9.5 14.5q26 10 57 30.5t61.5 47.5t57.5 58.5t46 65.5q23 40 39 77t22.5 66.5t1.5 47.5t-23 20q-25 2 -44 -12t-32.5 -37t-22 -50t-11.5 -50z" />
    <glyph glyph-name="onequarter" unicode="&#xbc;" horiz-adv-x="1221" 
d="M19 326q-17 -11 -33.5 -3.5t-23.5 23.5q-4 8 -2.5 18t7.5 18q42 45 90 84.5t96 85.5q8 4 22.5 5.5t30.5 1.5q15 0 29.5 -1.5t26.5 -5.5t19.5 -9.5t7.5 -12.5q-19 -132 -38.5 -261t-39.5 -260h1q-7 -11 -28.5 -16.5t-47.5 -5.5q-15 0 -29 2t-25.5 6.5t-19 10.5t-7.5 14
q4 32 9.5 66t13 79t18.5 105t27 144l-3 2l-12 -10q-22 -20 -45 -39.5t-44 -40.5zM379 787q3 8 12.5 11t20 1.5t19.5 -7t11 -14.5q-20 -198 -42.5 -393.5t-42.5 -393.5q-1 -10 -11 -14t-21 -2.5t-21 7.5t-11 16q20 198 44 394.5t42 394.5zM887 10q8 26 12.5 49.5t8.5 43.5
l-207 -3q-15 2 -29 11.5t-25 22t-16.5 26.5t-3.5 26q17 17 44.5 51t59.5 75t66.5 84.5t65.5 81.5t57 65.5t41 36.5q10 4 35.5 3.5t53.5 -7t51 -19t27 -31.5q-8 -35 -14.5 -68.5t-13 -71t-13 -80.5t-14.5 -96l97 4q15 -6 18.5 -21t-2 -32.5t-17 -32.5t-25.5 -21l-87 -1
q-4 -26 -10 -52t-11 -52h1q-8 -12 -29.5 -18.5t-46.5 -6.5q-26 0 -49 8t-25 25zM926 206q3 21 10 51.5t15 66.5t17 74.5t16 73.5q-37 -53 -64.5 -89t-50 -65t-42 -55.5t-41.5 -59.5z" />
    <glyph glyph-name="onesuperior" unicode="&#xb9;" horiz-adv-x="332" 
d="M19 326q-17 -11 -33.5 -3.5t-23.5 23.5q-4 8 -2.5 18t7.5 18q42 45 90 84.5t96 85.5q8 4 22.5 5.5t30.5 1.5q15 0 29.5 -1.5t26.5 -5.5t19.5 -9.5t7.5 -12.5q-19 -132 -38.5 -261t-39.5 -260h1q-7 -11 -28.5 -16.5t-47.5 -5.5q-15 0 -29 2t-25.5 6.5t-19 10.5t-7.5 14
q4 32 9.5 66t13 79t18.5 105t27 144l-3 2l-12 -10q-22 -20 -45 -39.5t-44 -40.5z" />
    <glyph glyph-name="threequarters" unicode="&#xbe;" horiz-adv-x="1414" 
d="M191 399q-7 -11 -27 -11q-17 0 -37.5 9.5t-38 24t-28.5 31t-8 30.5q9 20 32 36.5t54 28.5t68 19t75 7q54 0 103.5 -16.5t74.5 -49.5q22 -38 19.5 -74t-21.5 -65.5t-50 -50t-64 -26.5q19 -6 38 -14t35.5 -18.5t30 -23.5t20.5 -29q22 -53 2 -94.5t-62.5 -70t-96 -43.5
t-98.5 -15q-36 0 -70.5 8.5t-63 25t-49 41.5t-29.5 58q-5 27 1.5 48.5t20 36.5t31 23t33.5 8q25 0 34.5 -16t9.5 -38q-4 -9 -8.5 -30t-3.5 -42.5t10.5 -38t33.5 -16.5q18 0 46 16.5t52.5 40t39 50.5t5.5 48q-6 14 -24 22.5t-50 8.5q-8 0 -19.5 -0.5t-22.5 -2.5q-8 3 -15 9.5
t-10 13.5q-8 20 -2.5 41t25.5 25q6 1 23.5 7t38.5 15.5t43 22t38 26.5q11 11 22.5 30t14 36.5t-9 30t-45.5 9.5q-13 -2 -30.5 -13t-34.5 -26t-32.5 -32t-23.5 -31zM572 787q3 8 12.5 11t20 1.5t19.5 -7t11 -14.5q-20 -198 -42.5 -393.5t-42.5 -393.5q-1 -10 -11 -14
t-21 -2.5t-21 7.5t-11 16q20 198 44 394.5t42 394.5zM1080 10q8 26 12.5 49.5t8.5 43.5l-207 -3q-15 2 -29 11.5t-25 22t-16.5 26.5t-3.5 26q17 17 44.5 51t59.5 75t66.5 84.5t65.5 81.5t57 65.5t41 36.5q10 4 35.5 3.5t53.5 -7t51 -19t27 -31.5q-8 -35 -14.5 -68.5t-13 -71
t-13 -80.5t-14.5 -96l97 4q15 -6 18.5 -21t-2 -32.5t-17 -32.5t-25.5 -21l-87 -1q-4 -26 -10 -52t-11 -52h1q-8 -12 -29.5 -18.5t-46.5 -6.5q-26 0 -49 8t-25 25zM1119 206q3 21 10 51.5t15 66.5t17 74.5t16 73.5q-37 -53 -64.5 -89t-50 -65t-42 -55.5t-41.5 -59.5z" />
    <glyph glyph-name="threesuperior" unicode="&#xb3;" horiz-adv-x="525" 
d="M191 399q-7 -11 -27 -11q-17 0 -37.5 9.5t-38 24t-28.5 31t-8 30.5q9 20 32 36.5t54 28.5t68 19t75 7q54 0 103.5 -16.5t74.5 -49.5q22 -38 19.5 -74t-21.5 -65.5t-50 -50t-64 -26.5q19 -6 38 -14t35.5 -18.5t30 -23.5t20.5 -29q22 -53 2 -94.5t-62.5 -70t-96 -43.5
t-98.5 -15q-36 0 -70.5 8.5t-63 25t-49 41.5t-29.5 58q-5 27 1.5 48.5t20 36.5t31 23t33.5 8q25 0 34.5 -16t9.5 -38q-4 -9 -8.5 -30t-3.5 -42.5t10.5 -38t33.5 -16.5q18 0 46 16.5t52.5 40t39 50.5t5.5 48q-6 14 -24 22.5t-50 8.5q-8 0 -19.5 -0.5t-22.5 -2.5q-8 3 -15 9.5
t-10 13.5q-8 20 -2.5 41t25.5 25q6 1 23.5 7t38.5 15.5t43 22t38 26.5q11 11 22.5 30t14 36.5t-9 30t-45.5 9.5q-13 -2 -30.5 -13t-34.5 -26t-32.5 -32t-23.5 -31z" />
    <glyph glyph-name="twosuperior" unicode="&#xb2;" horiz-adv-x="532" 
d="M193 330q-2 -14 -18 -21t-36 -7q-15 0 -29 3t-26 8.5t-19.5 13.5t-8.5 18q5 34 15 72t30 71.5t51.5 57.5t79.5 29q34 2 68 -5.5t63 -22.5t51 -37t34 -49q17 -40 15 -77.5t-16 -72.5t-38 -66.5t-52 -59.5t-56.5 -51.5t-52.5 -42.5l3 -5q43 3 87 8t100 8q10 -8 11 -25
t-3.5 -33.5t-12.5 -29.5t-17 -14q-33 0 -67 -0.5t-72.5 -1t-82.5 -1t-97 -0.5q-17 2 -34 19t-25 35q-5 11 -2.5 20.5t9.5 14.5q26 10 57 30.5t61.5 47.5t57.5 58.5t46 65.5q23 40 39 77t22.5 66.5t1.5 47.5t-23 20q-25 2 -44 -12t-32.5 -37t-22 -50t-11.5 -50l-4 -20v0z" />
    <glyph glyph-name="ydieresis" unicode="&#xff;" horiz-adv-x="558" 
d="M604 280q-15 -30 -28 -65.5t-33 -73.5t-51.5 -77.5t-83.5 -76.5q-6 -5 -12.5 -8.5t-12.5 -8.5q-6 -83 -15 -170q-5 -45 -21.5 -71t-38 -39.5t-44.5 -17t-42 -2.5t-38 8.5t-35.5 19.5t-29.5 27.5t-20 33.5q-12 30 -5 55.5t26.5 47t49 41t62.5 39.5q0 35 2 69t5 66
q-29 -40 -63 -64t-64 -24q-48 0 -78 24.5t-45.5 62.5t-18.5 84.5t5 90.5q7 39 15.5 84t12.5 80q2 7 3 24.5t-3 26.5q-3 9 8.5 7.5t26.5 -6.5q10 -3 28.5 -12.5t38 -22t35.5 -25.5t19 -21q1 -2 -2 -18t-8.5 -38.5t-11.5 -49t-11.5 -51t-9.5 -43t-5 -25.5q-2 -17 -2 -34.5
t1.5 -32t5.5 -23t12 -8.5q13 0 30.5 12.5t35.5 33.5t33 48.5t23 57.5q2 29 7 63.5t9 69t5.5 66t-4.5 54.5q-2 9 10 5.5t27 -10.5q10 -4 25.5 -14.5t30.5 -23.5t27.5 -26t15.5 -21q7 -21 6.5 -62.5t-4 -89.5t-9 -96t-7.5 -83q32 30 55 59t41.5 61t35 67.5t35.5 78.5q4 9 13 8
t18 -7t15 -15.5t2 -18.5zM233 -144q-1 5 -1 9v9q-43 -29 -67 -53.5t-16 -49.5q5 -18 19 -27.5t28 -8.5t22 9.5t11.5 24.5t4 38t-0.5 49zM234 586q-6 23 4.5 39.5t33.5 16.5t43 -16.5t26 -39.5t-5.5 -39t-34.5 -16t-42 16t-25 39zM68 585q-6 23 4 39.5t33 16.5t43.5 -16.5
t26.5 -39.5t-5 -39t-34 -16t-42.5 16t-25.5 39z" />
    <glyph glyph-name="Ydieresis" unicode="&#x178;" horiz-adv-x="1098" 
d="M350 -321q48 0 90.5 20t80 55.5t70 84.5t61.5 108q-41 8 -75.5 11.5t-62.5 2.5q-43 -1 -86.5 -10t-82.5 -24.5t-71.5 -36.5t-53 -46.5t-28 -53.5t4.5 -58q7 -18 22.5 -28.5t36.5 -16t45.5 -7t48.5 -1.5zM962 905q6 16 28.5 22.5t46 5.5t41 -10t14.5 -24
q-11 -46 -21 -112.5t-22.5 -146t-28.5 -169t-37 -181t-48 -182.5t-63 -174q49 -30 102 -69q10 -7 13.5 -15t2 -13.5t-8 -8t-17.5 1.5q-28 17 -56.5 31.5t-57.5 26.5q-36 -74 -79.5 -137.5t-97.5 -110t-120 -71.5t-146 -22q-65 3 -114 18t-84 40t-57.5 57t-34.5 68
q-19 60 -8.5 116.5t53.5 100.5t121 72.5t194 32.5q115 -1 209 -31q44 104 78.5 220t63.5 228q-38 -70 -78.5 -135t-84 -115.5t-89.5 -80.5t-93 -30q-50 0 -88 19t-65 45t-43 54t-22 46q-17 48 -8.5 101.5t32 108t57.5 108.5t69 105t67 97t51 84q-45 4 -105.5 -16t-125 -55
t-125 -80.5t-105 -93.5t-66 -94t-6.5 -82q10 -22 25 -43t41 -29q13 -4 20.5 -13t9 -18t-4 -15t-19.5 -4q-20 1 -51 7t-65.5 21.5t-67.5 44.5t-55 77q-24 53 -17 102.5t37 93t79.5 82t111 70t131 55.5t139.5 39.5t137.5 22t123.5 3.5q61 -4 78 -25t5 -51q-4 -10 -20 -43.5
t-38 -81.5t-47.5 -106.5t-48 -117.5t-40 -115t-24 -99.5t1 -71t34.5 -28.5q22 -1 56.5 24.5t74.5 68t82.5 97t81.5 111t71 109.5t52 94q17 63 34 111.5t34 77.5zM855 1035q-6 23 4.5 39.5t33.5 16.5t43 -16.5t26 -39.5t-5 -39t-34 -16t-42.5 16t-25.5 39zM690 1034
q-7 23 3.5 39.5t33.5 16.5t43 -16.5t27 -39.5q6 -23 -5.5 -39t-34.5 -16t-42 16t-25 39z" />
    <glyph glyph-name="AE" unicode="&#xc6;" horiz-adv-x="1865" 
d="M1765 751q-20 -7 -35 -2.5t-22.5 14t-5 20.5t16.5 18q11 5 17.5 12t4.5 15.5t-14.5 19t-38.5 22.5q-24 11 -70 14t-99.5 -2t-107.5 -18t-94.5 -33.5t-61.5 -48.5t-7 -63q9 -25 35.5 -42.5t62 -31t75 -24.5t76 -21.5t64.5 -22.5t41 -28q18 -21 26.5 -35t12.5 -24.5
t5.5 -19t5.5 -18.5q-58 -2 -122 -15.5t-125.5 -37t-115.5 -56.5t-90.5 -74.5t-51 -90t3.5 -103.5q10 -32 32 -57.5t50 -43.5t57.5 -27t53.5 -8q80 3 157.5 33.5t146.5 84.5t126 129.5t95 169.5q4 8 13 8t17.5 -5t13.5 -13.5t2 -17.5q-26 -72 -58 -137.5t-77 -124.5
t-105.5 -109.5t-144.5 -92.5q-19 -10 -47 -20.5t-62.5 -18t-74.5 -9t-83 6.5q-58 11 -116 36.5t-105 62t-78.5 81.5t-35.5 95q-1 12 -4 35.5t-9.5 52.5t-18.5 62t-32.5 64.5t-50 59.5t-70.5 48q-30 -67 -50 -138t-38 -138t-38.5 -127t-51.5 -106t-77.5 -74.5t-116.5 -31.5
q-64 -3 -121 16.5t-103.5 53.5t-81 77t-53.5 87q-24 57 -31 119.5t4 123.5t42.5 116.5t85 97.5t130 67t179.5 25q57 0 119.5 -10.5t125.5 -33.5q76 124 153 209.5t168 140.5t203.5 82.5t260.5 36.5q41 2 93.5 2t103 -12.5t92.5 -42.5t62 -88q7 -18 9 -37t-2.5 -35.5
t-15 -29.5t-29.5 -19zM326 -22q40 1 69 20t51 52t40.5 78t38.5 99.5t44 116t58 127.5q-60 20 -110 26t-80 4q-100 -6 -168.5 -47t-104.5 -101.5t-38.5 -133.5t28.5 -143q23 -51 67.5 -75t104.5 -23zM779 490q46 -30 83 -69t60 -87q9 63 26.5 129t39.5 129t47 120.5t49 105.5
q-81 -35 -155.5 -115t-149.5 -213zM1153 637q-6 -23 -12.5 -55t-12.5 -65.5t-12 -66.5t-10 -59q29 34 68.5 61t81.5 46.5t82.5 32.5t71.5 18q-71 1 -140 24.5t-117 63.5z" />
    <glyph glyph-name="OE" unicode="&#x152;" horiz-adv-x="1562" 
d="M1465 722q-20 -7 -35 -2.5t-22 14t-5 20.5t17 18q10 5 16.5 12t4.5 15.5t-14 19t-38 22.5q-25 11 -71 14t-99 -2t-107 -18t-95 -33.5t-61.5 -48.5t-6.5 -63q9 -25 35.5 -42.5t61.5 -31t75 -24.5t76 -21.5t64.5 -22.5t41.5 -28q17 -21 25.5 -35t12.5 -24.5t5.5 -19
t5.5 -18.5q-57 -2 -121.5 -15.5t-125.5 -37t-115 -56.5t-90.5 -74.5t-51 -90t2.5 -103.5q10 -32 32.5 -57.5t50 -43.5t57.5 -27t54 -8q79 3 157 33.5t147 84.5t126 129.5t95 169.5q3 8 12 8t17.5 -5t14 -13.5t2.5 -17.5q-26 -72 -58 -137.5t-77 -124.5t-106 -109.5
t-144 -92.5q-32 -16 -74.5 -25.5t-89.5 -10.5t-95.5 8.5t-93.5 31t-83.5 56.5t-64.5 86q-36 -39 -77 -70.5t-84 -54.5t-86 -36.5t-83 -16.5q-65 -5 -126.5 5t-116 38t-99.5 75.5t-78 116.5q-43 91 -48.5 187t16 190t64.5 181.5t97.5 161.5t115.5 129.5t119 85.5
q11 5 28 -12.5t34 -45.5q49 26 95 32q85 11 164.5 -18t136.5 -96q35 62 124 102.5t226 48.5q27 1 60 2t67.5 -1.5t69 -10.5t64.5 -24t53.5 -42t37.5 -65q13 -37 5.5 -72.5t-44.5 -48.5zM522 345q-11 -37 -36.5 -60t-59.5 -31.5t-72 -3.5t-73.5 23.5t-65.5 50.5t-46 76l-2 5
q-26 -53 -45.5 -111t-28 -115.5t-3 -111.5t29.5 -99q16 -29 37 -45.5t42.5 -24t42.5 -8.5t36 0q61 4 121.5 36t115.5 84t103 119.5t84 142.5q2 8 6 15.5t8 15.5q28 63 46.5 127.5t25 126t-0.5 117.5t-29 102q-25 53 -61.5 72.5t-78 14t-85.5 -32t-84.5 -65t-74.5 -85.5
t-55.5 -94t-27.5 -89.5t9 -72.5t39.5 -43.5t50 -15.5t47.5 4.5t33 15.5q9 7 19.5 6.5t19 -7t12.5 -17t1 -22.5zM912 570q3 -26 5 -52t1 -51q51 21 101.5 33.5t91.5 19.5q-53 1 -104 14t-95 36z" />
    <glyph glyph-name="Otilde" unicode="&#xd5;" horiz-adv-x="1004" 
d="M344 973q11 5 28 -12.5t34 -45.5q49 26 95 32q52 7 103 -1.5t97 -32t84 -62t64 -90.5q44 -90 59 -173t9 -160t-28 -149t-52 -139q-33 -72 -83.5 -132t-109.5 -104t-122.5 -70.5t-121.5 -30.5q-65 -5 -126.5 5t-116 38t-99.5 75.5t-78 116.5q-43 91 -48.5 187t16 190
t64.5 181.5t97.5 161.5t115.5 129.5t119 85.5zM522 345q-11 -37 -36.5 -60t-59.5 -31.5t-72 -3.5t-73.5 23.5t-65.5 50.5t-46 76l-2 5q-26 -53 -45.5 -111t-28 -115.5t-3 -111.5t29.5 -99q16 -29 37 -45.5t42.5 -24t42.5 -8.5t36 0q58 4 115 32.5t109.5 75t98.5 108
t83 130.5t62.5 142.5t36.5 144.5t5.5 136t-30.5 117q-25 53 -61.5 72.5t-78 14t-85.5 -32t-84.5 -65t-74.5 -85.5t-55.5 -94t-27.5 -89.5t9 -72.5t39.5 -43.5t50 -15.5t47.5 4.5t33 15.5q9 7 19.5 6.5t19 -7t12.5 -17t1 -22.5zM519 1041q-4 -7 -10.5 -8.5t-13.5 1t-12 9
t-6 15.5q2 13 9 29t18 28.5t25 18.5t30 -1q17 -8 28.5 -27t22 -36t23 -26t31.5 4q10 8 18.5 19t12.5 25q3 9 10.5 11t14 -1t11.5 -10t4 -17q-4 -17 -13 -36.5t-22.5 -34.5t-32 -21t-41.5 3q-12 5 -25 21.5t-25.5 33t-23.5 27t-18 3.5q-12 -10 -15 -30z" />
    <glyph glyph-name="Agrave" unicode="&#xc0;" horiz-adv-x="1264" 
d="M326 -22q40 1 69 20t51 52t40.5 78t38.5 99.5t44 116t58 127.5q-60 20 -110 26t-80 4q-100 -6 -168.5 -47t-104.5 -101.5t-38.5 -133.5t28.5 -143q23 -51 67.5 -75t104.5 -23zM779 490q46 -30 83 -69t60 -87q9 63 26.5 129t39.5 129t47 120.5t49 105.5
q-81 -35 -155.5 -115t-149.5 -213zM667 544q51 88 105.5 159.5t115.5 123.5t130.5 83.5t151.5 39.5q13 1 25 -1t21 -8t12.5 -16.5t-0.5 -25.5q-13 -37 -32.5 -102.5t-39.5 -148t-37.5 -176.5t-26 -186.5t-5.5 -178.5t24 -153q3 -9 4 -17t-1.5 -12t-10 -3.5t-22.5 9.5
q-35 20 -63 44t-47.5 47.5t-30.5 43.5t-12 32t-4 35.5t-9.5 52.5t-18.5 62t-32.5 64.5t-50 59.5t-70.5 48q-30 -67 -50 -138t-38 -138t-38.5 -127t-51.5 -106t-77.5 -74.5t-116.5 -31.5q-64 -3 -121 16.5t-103.5 53.5t-81 77t-53.5 87q-24 57 -31 119.5t4 123.5t42.5 116.5
t85 97.5t130 67t179.5 25q57 0 119.5 -10.5t125.5 -33.5zM1164 1017q-1 -5 -2.5 -12t-13.5 -5q-53 23 -99.5 50.5t-75.5 45.5q-12 9 -13.5 22.5t5.5 24t19.5 14.5t27.5 -5q19 -15 45 -35.5t50 -41t40.5 -36.5t16.5 -22z" />
    <glyph glyph-name="florin" unicode="&#x192;" horiz-adv-x="383" 
d="M431 287q-14 -30 -31.5 -74t-42 -86t-57.5 -74.5t-77 -40.5q0 -57 -10.5 -118t-30 -111.5t-47.5 -82.5t-61 -32q-58 0 -89.5 37t-44.5 96.5t-10.5 134.5t12.5 149.5t24 142.5t25 114q8 38 21.5 85.5t31 96.5t39.5 96t47 83.5t53 59.5t58 24q29 2 53.5 -12.5t38.5 -53.5
q14 -40 13.5 -88.5t-12 -99t-32.5 -100t-48 -92t-58.5 -75t-63.5 -47.5q-2 -5 -2.5 -9.5t-2.5 -9.5q37 -1 59 -32.5t31 -81.5q23 10 46 33.5t44.5 54.5t40.5 67t34 73q3 8 12 8t18 -5t15 -13t4 -17zM158 14q-43 8 -68 34q-13 -54 -24 -108.5t-15.5 -98t-1 -71t19.5 -27.5
q19 0 34.5 27t27 67.5t18.5 87.5t9 89zM279 715q-7 1 -16.5 -20t-21 -55.5t-23.5 -79t-24 -90t-23 -89t-19 -75.5q12 13 26 32t28.5 43.5t28.5 53t26 60.5q15 38 22.5 77t9 70.5t-2.5 51.5t-11 21z" />
    <glyph glyph-name="ordfeminine" unicode="&#xaa;" horiz-adv-x="497" 
d="M541 281q-15 -35 -32 -84.5t-39 -96t-51.5 -79t-70.5 -32.5q-32 0 -55.5 11t-40 30t-26.5 43t-14 51q-15 -26 -32.5 -50t-37 -41.5t-40 -27.5t-42.5 -9q-32 2 -53.5 24t-33.5 57t-14 79t5 89.5t24 87.5t43 74t61.5 49.5t80.5 13.5q66 -7 98.5 -32t44.5 -52q4 -11 0.5 -27
t-11 -26.5t-15.5 -10.5t-12 21q-6 27 -34 28q-25 2 -51 -14t-54 -62q-11 -19 -21 -53t-16 -67t-5.5 -57.5t9.5 -24.5q5 0 18 17.5t29.5 43.5t34 55.5t31.5 54.5q7 21 15.5 33.5t19.5 11.5q9 -1 27.5 -12.5t36 -26.5t29 -29t7.5 -20q-1 -1 -3.5 -13.5t-4.5 -30t-3 -37.5
t0.5 -37t6 -28.5t14.5 -11.5q19 0 37 27.5t34 66.5t30.5 82t28.5 73q4 9 13 8.5t18 -6.5t14.5 -15t1.5 -18z" />
    <glyph glyph-name="ordmasculine" unicode="&#xba;" horiz-adv-x="484" 
d="M285 398q-36 0 -68.5 -25.5t-59 -63.5t-45.5 -82t-27 -82t-3 -63t26 -25q20 0 49 17.5t61 59.5q-16 20 -23 40t-8.5 39.5t1.5 38.5t9 36q3 11 12 25.5t22 26.5t29.5 17.5t34.5 -1.5q32 -12 47.5 -32t18 -45.5t-6 -55t-24.5 -60.5q26 3 48 16t40.5 32.5t34 44.5t27.5 52
q4 9 13 9t18 -5t15 -13.5t2 -17.5q-21 -55 -43.5 -92.5t-50.5 -59.5t-63 -29.5t-81 -2.5l-16 -21q-25 -32 -67.5 -58.5t-95.5 -29.5q-31 -2 -57.5 10t-47 32.5t-34 47.5t-19.5 56q-11 54 -0.5 113t38 109t71 82.5t99.5 33.5q9 0 26 -2.5t36.5 -7.5t38.5 -14.5t33 -22.5
q14 -14 15 -20.5t-25 -6.5z" />
    <glyph glyph-name="ae" unicode="&#xe6;" horiz-adv-x="927" 
d="M708 73q42 0 76 26t60.5 63.5t46.5 78.5t33 71q4 9 13 8.5t18 -6.5t14.5 -15t1.5 -18q-21 -47 -42.5 -97.5t-53.5 -93.5t-78.5 -70.5t-116.5 -27.5q-84 0 -133.5 34t-70.5 86q-12 -25 -25 -47.5t-29 -39t-34 -26.5t-40 -10q-32 0 -55.5 11t-40 30t-26.5 43t-14 51
q-15 -26 -32.5 -50t-37 -41.5t-40 -27.5t-42.5 -9q-32 2 -53.5 24t-33.5 57t-14 79t5 89.5t24 87.5t43 74t61.5 49.5t80.5 13.5q66 -7 98.5 -32t44.5 -52q4 -11 0.5 -27t-11 -26.5t-15.5 -10.5t-12 21q-6 27 -34 28q-25 2 -51 -14t-54 -62q-11 -19 -21 -53t-16 -67
t-5.5 -57.5t9.5 -24.5q5 0 18 17.5t29.5 43.5t34 55.5t31.5 54.5q7 21 15.5 33.5t19.5 11.5q9 -1 27.5 -12.5t36 -26.5t29 -29t7.5 -20q-1 -1 -3.5 -13.5t-4.5 -30t-3 -37.5t0.5 -37t6 -28.5t14.5 -11.5q13 0 25.5 13.5t24.5 35t23 49t21 56.5q1 46 16.5 91t42 81t62.5 58.5
t80 24.5q28 1 52 -5.5t42.5 -18t31.5 -26.5t21 -31q13 -29 11 -58.5t-15 -56.5t-34.5 -50.5t-47.5 -42t-54.5 -30t-54.5 -14.5q11 -29 35 -48t62 -18zM606 195q25 6 53 23.5t50.5 41t35 48t5.5 44.5q-2 7 -10 13t-20 6q-30 0 -52.5 -16t-37.5 -41t-21 -56.5t-3 -62.5z" />
    <glyph glyph-name="Amacron" unicode="&#x100;" horiz-adv-x="1264" 
d="M326 -22q40 1 69 20t51 52t40.5 78t38.5 99.5t44 116t58 127.5q-60 20 -110 26t-80 4q-100 -6 -168.5 -47t-104.5 -101.5t-38.5 -133.5t28.5 -143q23 -51 67.5 -75t104.5 -23zM779 490q46 -30 83 -69t60 -87q9 63 26.5 129t39.5 129t47 120.5t49 105.5
q-81 -35 -155.5 -115t-149.5 -213zM667 544q51 88 105.5 159.5t115.5 123.5t130.5 83.5t151.5 39.5q13 1 25 -1t21 -8t12.5 -16.5t-0.5 -25.5q-13 -37 -32.5 -102.5t-39.5 -148t-37.5 -176.5t-26 -186.5t-5.5 -178.5t24 -153q3 -9 4 -17t-1.5 -12t-10 -3.5t-22.5 9.5
q-35 20 -63 44t-47.5 47.5t-30.5 43.5t-12 32t-4 35.5t-9.5 52.5t-18.5 62t-32.5 64.5t-50 59.5t-70.5 48q-30 -67 -50 -138t-38 -138t-38.5 -127t-51.5 -106t-77.5 -74.5t-116.5 -31.5q-64 -3 -121 16.5t-103.5 53.5t-81 77t-53.5 87q-24 57 -31 119.5t4 123.5t42.5 116.5
t85 97.5t130 67t179.5 25q57 0 119.5 -10.5t125.5 -33.5zM1068 1008q-11 1 -15 8.5t-1.5 16t9.5 15.5t17 7h206q10 -3 13 -10t0.5 -14.5t-8.5 -14t-15 -8.5h-206z" />
    <glyph glyph-name="amacron" unicode="&#x101;" horiz-adv-x="497" 
d="M541 281q-15 -35 -32 -84.5t-39 -96t-51.5 -79t-70.5 -32.5q-32 0 -55.5 11t-40 30t-26.5 43t-14 51q-15 -26 -32.5 -50t-37 -41.5t-40 -27.5t-42.5 -9q-32 2 -53.5 24t-33.5 57t-14 79t5 89.5t24 87.5t43 74t61.5 49.5t80.5 13.5q66 -7 98.5 -32t44.5 -52q4 -11 0.5 -27
t-11 -26.5t-15.5 -10.5t-12 21q-6 27 -34 28q-25 2 -51 -14t-54 -62q-11 -19 -21 -53t-16 -67t-5.5 -57.5t9.5 -24.5q5 0 18 17.5t29.5 43.5t34 55.5t31.5 54.5q7 21 15.5 33.5t19.5 11.5q9 -1 27.5 -12.5t36 -26.5t29 -29t7.5 -20q-1 -1 -3.5 -13.5t-4.5 -30t-3 -37.5
t0.5 -37t6 -28.5t14.5 -11.5q19 0 37 27.5t34 66.5t30.5 82t28.5 73q4 9 13 8.5t18 -6.5t14.5 -15t1.5 -18zM130 538q-11 1 -14.5 8.5t-1 16t9 15.5t16.5 7h206q10 -3 13 -10t0.5 -14.5t-8.5 -14t-15 -8.5h-206z" />
    <glyph glyph-name="Abreve" unicode="&#x102;" horiz-adv-x="1264" 
d="M326 -22q40 1 69 20t51 52t40.5 78t38.5 99.5t44 116t58 127.5q-60 20 -110 26t-80 4q-100 -6 -168.5 -47t-104.5 -101.5t-38.5 -133.5t28.5 -143q23 -51 67.5 -75t104.5 -23zM779 490q46 -30 83 -69t60 -87q9 63 26.5 129t39.5 129t47 120.5t49 105.5
q-81 -35 -155.5 -115t-149.5 -213zM667 544q51 88 105.5 159.5t115.5 123.5t130.5 83.5t151.5 39.5q13 1 25 -1t21 -8t12.5 -16.5t-0.5 -25.5q-13 -37 -32.5 -102.5t-39.5 -148t-37.5 -176.5t-26 -186.5t-5.5 -178.5t24 -153q3 -9 4 -17t-1.5 -12t-10 -3.5t-22.5 9.5
q-35 20 -63 44t-47.5 47.5t-30.5 43.5t-12 32t-4 35.5t-9.5 52.5t-18.5 62t-32.5 64.5t-50 59.5t-70.5 48q-30 -67 -50 -138t-38 -138t-38.5 -127t-51.5 -106t-77.5 -74.5t-116.5 -31.5q-64 -3 -121 16.5t-103.5 53.5t-81 77t-53.5 87q-24 57 -31 119.5t4 123.5t42.5 116.5
t85 97.5t130 67t179.5 25q57 0 119.5 -10.5t125.5 -33.5zM1119 1135q-1 9 3.5 13t11 3.5t12.5 -6t8 -15.5q5 -28 22.5 -47.5t41.5 -16.5q12 1 25.5 9t25.5 19t21.5 24t12.5 25q4 6 10.5 6t11.5 -3.5t8.5 -10t2.5 -13.5q-4 -15 -15 -34t-28.5 -36t-39 -28t-46.5 -9
q-41 4 -61 39t-27 81z" />
    <glyph glyph-name="abreve" unicode="&#x103;" horiz-adv-x="497" 
d="M541 281q-15 -35 -32 -84.5t-39 -96t-51.5 -79t-70.5 -32.5q-32 0 -55.5 11t-40 30t-26.5 43t-14 51q-15 -26 -32.5 -50t-37 -41.5t-40 -27.5t-42.5 -9q-32 2 -53.5 24t-33.5 57t-14 79t5 89.5t24 87.5t43 74t61.5 49.5t80.5 13.5q66 -7 98.5 -32t44.5 -52q4 -11 0.5 -27
t-11 -26.5t-15.5 -10.5t-12 21q-6 27 -34 28q-25 2 -51 -14t-54 -62q-11 -19 -21 -53t-16 -67t-5.5 -57.5t9.5 -24.5q5 0 18 17.5t29.5 43.5t34 55.5t31.5 54.5q7 21 15.5 33.5t19.5 11.5q9 -1 27.5 -12.5t36 -26.5t29 -29t7.5 -20q-1 -1 -3.5 -13.5t-4.5 -30t-3 -37.5
t0.5 -37t6 -28.5t14.5 -11.5q19 0 37 27.5t34 66.5t30.5 82t28.5 73q4 9 13 8.5t18 -6.5t14.5 -15t1.5 -18zM144 651q0 9 4.5 13t10.5 3.5t12 -6t8 -15.5q5 -28 22.5 -47.5t41.5 -16.5q13 1 26.5 9t25.5 19t21 24t13 25q4 6 10 6t11.5 -3.5t9 -10t2.5 -13.5
q-4 -15 -15.5 -34t-28.5 -36t-39 -28t-47 -9q-41 4 -61 39t-27 81z" />
    <glyph glyph-name="Aogonek" unicode="&#x104;" horiz-adv-x="1264" 
d="M667 544q51 88 105.5 159.5t115.5 123.5t130.5 83.5t151.5 39.5q13 1 25 -1t21 -8t12.5 -16.5t-0.5 -25.5q-13 -37 -32.5 -102.5t-39.5 -148t-37.5 -176.5t-26 -186.5t-5.5 -178.5t24 -153q3 -9 4 -16.5t-1.5 -12t-10 -4t-21.5 8.5q-8 -14 -14 -28.5t-8 -22.5
q-4 -17 5.5 -32.5t41.5 -24.5q12 -3 16.5 -9.5t3 -13.5t-8.5 -12t-17 -5q-19 7 -36 15t-29.5 19.5t-18.5 26.5t-3 36q4 20 12.5 37.5t18.5 37.5q-27 19 -48.5 40t-36.5 40.5t-23 36t-9 27.5q-1 12 -4 35.5t-9.5 52.5t-18.5 62t-32.5 64.5t-50 59.5t-70.5 48
q-30 -67 -50 -138t-38 -138t-38.5 -127t-51.5 -106t-77.5 -74.5t-116.5 -31.5q-64 -3 -121 16.5t-103.5 53.5t-81 77t-53.5 87q-24 57 -31 119.5t4 123.5t42.5 116.5t85 97.5t130 67t179.5 25q57 0 119.5 -10.5t125.5 -33.5zM326 -22q40 1 69 20t51 52t40.5 78t38.5 99.5
t44 116t58 127.5q-60 20 -110 26t-80 4q-100 -6 -168.5 -47t-104.5 -101.5t-38.5 -133.5t28.5 -143q23 -51 67.5 -75t104.5 -23zM779 490q46 -30 83 -69t60 -87q9 63 26.5 129t39.5 129t47 120.5t49 105.5q-81 -35 -155.5 -115t-149.5 -213z" />
    <glyph glyph-name="aogonek" unicode="&#x105;" horiz-adv-x="497" 
d="M541 281q-15 -34 -31 -82t-37 -93.5t-49 -78.5t-67 -37q-9 -17 -17 -35t-10 -26q-5 -17 5 -32.5t42 -24.5q12 -3 16.5 -9.5t3 -13.5t-8.5 -12t-17 -5q-19 7 -36 15t-29.5 19.5t-18.5 26.5t-3 36q3 17 10 32.5t16 32.5q-45 12 -67.5 48.5t-30.5 81.5q-15 -26 -32.5 -50
t-37 -41.5t-40 -27.5t-42.5 -9q-32 2 -53.5 24t-33.5 57t-14 79t5 89.5t24 87.5t43 74t61.5 49.5t80.5 13.5q66 -7 98.5 -32t44.5 -52q4 -11 0.5 -27t-11 -26.5t-15.5 -10.5t-12 21q-6 27 -34 28q-25 2 -51 -14t-54 -62q-11 -19 -21 -53t-16 -67t-5.5 -57.5t9.5 -24.5
q5 0 18 17.5t29.5 43.5t34 55.5t31.5 54.5q7 21 15.5 33.5t19.5 11.5q9 -1 27.5 -12.5t36 -26.5t29 -29t7.5 -20q-1 -1 -3.5 -13.5t-4.5 -30t-3 -37.5t0.5 -37t6 -28.5t14.5 -11.5q19 0 37 27.5t34 66.5t30.5 82t28.5 73q4 9 13 8.5t18 -6.5t14.5 -15t1.5 -18z" />
    <glyph glyph-name="Cacute" unicode="&#x106;" horiz-adv-x="771" 
d="M775 326q3 8 12 7.5t17.5 -5.5t14 -13t2.5 -16q-30 -69 -58 -128.5t-64.5 -112t-85.5 -98.5t-119 -88q-26 -15 -64.5 -26.5t-81 -14.5t-85.5 5t-79 31q-25 16 -50.5 32.5t-49.5 37t-45.5 47.5t-38.5 65q-24 53 -34 112t-4.5 123t28 132.5t64.5 140.5q-64 21 -114 56.5
t-70 87.5q-14 37 -3.5 69.5t43 56.5t84.5 38.5t121 15.5q57 1 111 -7.5t101 -25.5q62 42 127.5 68.5t125.5 30.5q70 4 115 -20.5t66 -61.5t18.5 -79.5t-26.5 -75.5q-31 -41 -76 -74.5t-99 -57.5t-114.5 -38.5t-121.5 -17.5q-18 -2 -38 -2t-41 1q-39 -54 -68.5 -112.5
t-44.5 -120.5t-13.5 -126t25.5 -127q13 -35 37.5 -54.5t49.5 -28.5t45.5 -11t26.5 -2q66 0 131.5 29t125.5 81t110.5 123t86.5 154zM428 701q-29 -25 -57.5 -53.5t-56.5 -60.5q2 0 3 0.5t3 0.5q53 3 110.5 15.5t109.5 33.5t93.5 50.5t62.5 66.5q10 18 15.5 34t4 28t-11.5 18
t-31 5q-35 -2 -88.5 -29.5t-113.5 -73.5q8 -15 12 -31.5t6 -34.5q1 -12 -6.5 -16.5t-17.5 -3t-19.5 9t-12.5 18.5q-1 10 -5 23zM-43 701q11 -30 48 -50.5t87 -34.5q11 16 23.5 32t25.5 33q27 32 58.5 63t67.5 60q-31 6 -64 8.5t-66 1.5q-37 -1 -72.5 -11.5t-61.5 -27
t-39.5 -36t-6.5 -38.5zM569 1021q-3 6 4.5 22t20.5 36.5t28.5 41t26.5 35.5q10 9 25 5t27 -14.5t17.5 -24t-1.5 -22.5q-19 -18 -51 -45.5t-73 -50.5q-11 -2 -16 5t-8 12z" />
    <glyph glyph-name="cacute" unicode="&#x107;" horiz-adv-x="419" 
d="M222 75q34 5 63 29.5t53 59t43 74t34 74.5q4 9 13 8.5t18 -6.5t14.5 -15t1.5 -18q-20 -45 -42 -96t-53.5 -94t-77.5 -71.5t-113 -28.5q-68 0 -116.5 38t-72 95t-20.5 122.5t38 121.5q36 57 80.5 80t83.5 22q31 0 55.5 -8.5t42 -20.5t29 -27t16.5 -28q3 -9 6.5 -23.5
t2 -33.5t-12 -40t-35.5 -43q-7 -6 -16 -4.5t-16 7.5t-10 14t3 15q16 18 21.5 35t3 30t-12 21t-22.5 8q-14 0 -38 -15.5t-51 -61.5q-17 -29 -21.5 -67t5 -72.5t34.5 -58t69 -22.5zM142 545q-3 6 4.5 22t20.5 36.5t28.5 41t26.5 35.5q10 9 25 5t27 -14.5t17.5 -24t-1.5 -22.5
q-19 -18 -51 -45.5t-73 -50.5q-11 -2 -16 5t-8 12z" />
    <glyph glyph-name="Ccircumflex" unicode="&#x108;" horiz-adv-x="771" 
d="M775 326q3 8 12 7.5t17.5 -5.5t14 -13t2.5 -16q-30 -69 -58 -128.5t-64.5 -112t-85.5 -98.5t-119 -88q-26 -15 -64.5 -26.5t-81 -14.5t-85.5 5t-79 31q-25 16 -50.5 32.5t-49.5 37t-45.5 47.5t-38.5 65q-24 53 -34 112t-4.5 123t28 132.5t64.5 140.5q-64 21 -114 56.5
t-70 87.5q-14 37 -3.5 69.5t43 56.5t84.5 38.5t121 15.5q57 1 111 -7.5t101 -25.5q62 42 127.5 68.5t125.5 30.5q70 4 115 -20.5t66 -61.5t18.5 -79.5t-26.5 -75.5q-31 -41 -76 -74.5t-99 -57.5t-114.5 -38.5t-121.5 -17.5q-18 -2 -38 -2t-41 1q-39 -54 -68.5 -112.5
t-44.5 -120.5t-13.5 -126t25.5 -127q13 -35 37.5 -54.5t49.5 -28.5t45.5 -11t26.5 -2q66 0 131.5 29t125.5 81t110.5 123t86.5 154zM428 701q-29 -25 -57.5 -53.5t-56.5 -60.5q2 0 3 0.5t3 0.5q53 3 110.5 15.5t109.5 33.5t93.5 50.5t62.5 66.5q10 18 15.5 34t4 28t-11.5 18
t-31 5q-35 -2 -88.5 -29.5t-113.5 -73.5q8 -15 12 -31.5t6 -34.5q1 -12 -6.5 -16.5t-17.5 -3t-19.5 9t-12.5 18.5q-1 10 -5 23zM-43 701q11 -30 48 -50.5t87 -34.5q11 16 23.5 32t25.5 33q27 32 58.5 63t67.5 60q-31 6 -64 8.5t-66 1.5q-37 -1 -72.5 -11.5t-61.5 -27
t-39.5 -36t-6.5 -38.5zM564 1023q1 0 13.5 7.5t31 19t40.5 23.5t42.5 22.5t35.5 16t21 2.5q7 -3 19 -22t24 -40.5t20.5 -39.5t8.5 -19q0 -17 -13 -19.5t-24 11.5q-7 8 -11.5 14t-9 11.5t-9.5 11.5t-14 14q-16 -5 -35.5 -11t-39.5 -12.5t-39.5 -13t-35.5 -12.5q-15 -2 -22 3
t-9 12t0 13.5t6 7.5z" />
    <glyph glyph-name="ccircumflex" unicode="&#x109;" horiz-adv-x="419" 
d="M222 75q34 5 63 29.5t53 59t43 74t34 74.5q4 9 13 8.5t18 -6.5t14.5 -15t1.5 -18q-20 -45 -42 -96t-53.5 -94t-77.5 -71.5t-113 -28.5q-68 0 -116.5 38t-72 95t-20.5 122.5t38 121.5q36 57 80.5 80t83.5 22q31 0 55.5 -8.5t42 -20.5t29 -27t16.5 -28q3 -9 6.5 -23.5
t2 -33.5t-12 -40t-35.5 -43q-7 -6 -16 -4.5t-16 7.5t-10 14t3 15q16 18 21.5 35t3 30t-12 21t-22.5 8q-14 0 -38 -15.5t-51 -61.5q-17 -29 -21.5 -67t5 -72.5t34.5 -58t69 -22.5zM97 560q1 0 13 7.5t30.5 19t40.5 23.5t42.5 22.5t35.5 16t21 2.5q7 -3 19 -22t24 -40.5
t21 -39.5t9 -19q-1 -17 -13.5 -19.5t-23.5 11.5q-7 8 -11.5 14t-9 11.5t-10 11.5t-14.5 14q-16 -5 -35.5 -11t-39.5 -12.5t-39.5 -13t-35.5 -12.5q-15 -2 -22 3t-9 12t0.5 13.5t6.5 7.5z" />
    <glyph glyph-name="Cdotaccent" unicode="&#x10a;" horiz-adv-x="771" 
d="M775 326q3 8 12 7.5t17.5 -5.5t14 -13t2.5 -16q-30 -69 -58 -128.5t-64.5 -112t-85.5 -98.5t-119 -88q-26 -15 -64.5 -26.5t-81 -14.5t-85.5 5t-79 31q-25 16 -50.5 32.5t-49.5 37t-45.5 47.5t-38.5 65q-24 53 -34 112t-4.5 123t28 132.5t64.5 140.5q-64 21 -114 56.5
t-70 87.5q-14 37 -3.5 69.5t43 56.5t84.5 38.5t121 15.5q57 1 111 -7.5t101 -25.5q62 42 127.5 68.5t125.5 30.5q70 4 115 -20.5t66 -61.5t18.5 -79.5t-26.5 -75.5q-31 -41 -76 -74.5t-99 -57.5t-114.5 -38.5t-121.5 -17.5q-18 -2 -38 -2t-41 1q-39 -54 -68.5 -112.5
t-44.5 -120.5t-13.5 -126t25.5 -127q13 -35 37.5 -54.5t49.5 -28.5t45.5 -11t26.5 -2q66 0 131.5 29t125.5 81t110.5 123t86.5 154zM428 701q-29 -25 -57.5 -53.5t-56.5 -60.5q2 0 3 0.5t3 0.5q53 3 110.5 15.5t109.5 33.5t93.5 50.5t62.5 66.5q10 18 15.5 34t4 28t-11.5 18
t-31 5q-35 -2 -88.5 -29.5t-113.5 -73.5q8 -15 12 -31.5t6 -34.5q1 -12 -6.5 -16.5t-17.5 -3t-19.5 9t-12.5 18.5q-1 10 -5 23zM-43 701q11 -30 48 -50.5t87 -34.5q11 16 23.5 32t25.5 33q27 32 58.5 63t67.5 60q-31 6 -64 8.5t-66 1.5q-37 -1 -72.5 -11.5t-61.5 -27
t-39.5 -36t-6.5 -38.5zM619 1044q-5 23 6 39t34 16t43 -16t25 -39q6 -23 -5 -39t-34 -16t-43 16t-26 39z" />
    <glyph glyph-name="cdotaccent" unicode="&#x10b;" horiz-adv-x="419" 
d="M222 75q34 5 63 29.5t53 59t43 74t34 74.5q4 9 13 8.5t18 -6.5t14.5 -15t1.5 -18q-20 -45 -42 -96t-53.5 -94t-77.5 -71.5t-113 -28.5q-68 0 -116.5 38t-72 95t-20.5 122.5t38 121.5q36 57 80.5 80t83.5 22q31 0 55.5 -8.5t42 -20.5t29 -27t16.5 -28q3 -9 6.5 -23.5
t2 -33.5t-12 -40t-35.5 -43q-7 -6 -16 -4.5t-16 7.5t-10 14t3 15q16 18 21.5 35t3 30t-12 21t-22.5 8q-14 0 -38 -15.5t-51 -61.5q-17 -29 -21.5 -67t5 -72.5t34.5 -58t69 -22.5zM171 571q-6 23 5.5 39t34.5 16t42.5 -16t25.5 -39t-5.5 -39t-34.5 -16t-42.5 16t-25.5 39z
" />
    <glyph glyph-name="Ccaron" unicode="&#x10c;" horiz-adv-x="771" 
d="M775 326q3 8 12 7.5t17.5 -5.5t14 -13t2.5 -16q-30 -69 -58 -128.5t-64.5 -112t-85.5 -98.5t-119 -88q-26 -15 -64.5 -26.5t-81 -14.5t-85.5 5t-79 31q-25 16 -50.5 32.5t-49.5 37t-45.5 47.5t-38.5 65q-24 53 -34 112t-4.5 123t28 132.5t64.5 140.5q-64 21 -114 56.5
t-70 87.5q-14 37 -3.5 69.5t43 56.5t84.5 38.5t121 15.5q57 1 111 -7.5t101 -25.5q62 42 127.5 68.5t125.5 30.5q70 4 115 -20.5t66 -61.5t18.5 -79.5t-26.5 -75.5q-31 -41 -76 -74.5t-99 -57.5t-114.5 -38.5t-121.5 -17.5q-18 -2 -38 -2t-41 1q-39 -54 -68.5 -112.5
t-44.5 -120.5t-13.5 -126t25.5 -127q13 -35 37.5 -54.5t49.5 -28.5t45.5 -11t26.5 -2q66 0 131.5 29t125.5 81t110.5 123t86.5 154zM428 701q-29 -25 -57.5 -53.5t-56.5 -60.5q2 0 3 0.5t3 0.5q53 3 110.5 15.5t109.5 33.5t93.5 50.5t62.5 66.5q10 18 15.5 34t4 28t-11.5 18
t-31 5q-35 -2 -88.5 -29.5t-113.5 -73.5q8 -15 12 -31.5t6 -34.5q1 -12 -6.5 -16.5t-17.5 -3t-19.5 9t-12.5 18.5q-1 10 -5 23zM-43 701q11 -30 48 -50.5t87 -34.5q11 16 23.5 32t25.5 33q27 32 58.5 63t67.5 60q-31 6 -64 8.5t-66 1.5q-37 -1 -72.5 -11.5t-61.5 -27
t-39.5 -36t-6.5 -38.5zM787 1098q0 -1 -12 -9t-30.5 -19t-40.5 -23t-42.5 -22t-36.5 -15.5t-21 -2.5q-7 3 -19 22t-24 40.5t-20.5 39.5t-8.5 19q-4 19 8.5 22.5t27.5 -14.5q7 -8 12 -14t9 -11.5t9.5 -11.5t14.5 -14q16 4 35.5 10.5t39.5 13t39 13t36 12.5q11 1 18.5 -3.5
t11 -10.5t2 -12t-7.5 -10z" />
    <glyph glyph-name="ccaron" unicode="&#x10d;" horiz-adv-x="419" 
d="M222 75q34 5 63 29.5t53 59t43 74t34 74.5q4 9 13 8.5t18 -6.5t14.5 -15t1.5 -18q-20 -45 -42 -96t-53.5 -94t-77.5 -71.5t-113 -28.5q-68 0 -116.5 38t-72 95t-20.5 122.5t38 121.5q36 57 80.5 80t83.5 22q31 0 55.5 -8.5t42 -20.5t29 -27t16.5 -28q3 -9 6.5 -23.5
t2 -33.5t-12 -40t-35.5 -43q-7 -6 -16 -4.5t-16 7.5t-10 14t3 15q16 18 21.5 35t3 30t-12 21t-22.5 8q-14 0 -38 -15.5t-51 -61.5q-17 -29 -21.5 -67t5 -72.5t34.5 -58t69 -22.5zM388 625q0 -2 -25.5 -17.5t-58 -33.5t-62 -31t-37.5 -9q-7 3 -19 22t-24 40.5t-21 39.5t-9 19
q-3 19 9.5 22.5t27.5 -14.5q7 -8 11.5 -14t9 -11.5t10 -11.5t14.5 -14q16 4 35 10.5t39 13t39.5 13t36.5 12.5q11 1 18.5 -3.5t11 -10.5t2 -12t-7.5 -10z" />
    <glyph glyph-name="Dcaron" unicode="&#x10e;" horiz-adv-x="1327" 
d="M408 194q-5 38 1 87q-84 -6 -142 -28.5t-91.5 -53t-43.5 -64.5t1 -63q15 -37 45 -65.5t70.5 -47.5t90 -28t102.5 -7q104 3 196.5 42t169.5 101.5t134.5 141.5t91.5 162.5t41.5 165.5t-16.5 150q-18 51 -60.5 85.5t-95.5 54.5t-110 27.5t-105 6.5q-105 -3 -182 -26.5
t-125 -56.5t-67.5 -69.5t-10.5 -65.5q4 -14 8.5 -26.5t16.5 -24.5t33.5 -23.5t59.5 -22.5q15 -5 22.5 -14t7.5 -17.5t-7.5 -14.5t-22.5 -4q-36 5 -77 16.5t-78.5 32t-68.5 51t-47 74.5q-11 29 -9 65t21.5 72.5t58 71t99 61t145 42.5t196.5 15q89 -1 170 -22t148.5 -60.5
t117.5 -96.5t76 -131q37 -104 40 -210t-26 -204t-89 -184.5t-150 -151.5t-208.5 -104.5t-263.5 -44.5q-72 -2 -148.5 11t-143.5 44.5t-119 83t-75 125.5q-9 28 -3 62t27 67.5t57 65t87 55t117.5 36.5t148.5 10q13 55 27 103.5t33 94t45 91t63 95.5q9 13 30 10t41 -14
t32.5 -27t5.5 -29q-27 -43 -46 -82t-33.5 -79t-26 -85t-23.5 -100q51 -14 92.5 -31t70.5 -33q18 -10 22 -21.5t-1 -20t-18.5 -11t-29.5 4.5q-40 17 -76.5 29.5t-69.5 20.5q-2 -26 -2 -50t5 -47q1 -13 6.5 -27.5t12 -28.5t14.5 -27t14 -22q11 -17 1.5 -23.5t-28 -6t-42 7
t-40.5 15.5q-41 22 -63.5 57.5t-30.5 81.5zM971 1140q0 -1 -12.5 -9t-31 -19t-40.5 -23t-42.5 -22t-36.5 -15.5t-21 -2.5q-7 3 -19 22t-24 40.5t-20.5 39.5t-8.5 19q-4 19 8.5 22.5t27.5 -14.5q7 -8 12 -14t9 -11.5t9.5 -11.5t14.5 -14q16 4 35.5 10.5t39.5 13t39 13
t36 12.5q11 1 18.5 -3.5t11 -10.5t2.5 -12t-7 -10z" />
    <glyph glyph-name="dcaron" unicode="&#x10f;" horiz-adv-x="535" 
d="M474 542q-2 -13 -12.5 -53.5t-23 -94t-25 -111.5t-19.5 -107t-6.5 -81t13.5 -32q24 1 47.5 29t44 67t38 81t30.5 72q4 9 13 8.5t18 -6.5t14.5 -15t1.5 -18q-9 -21 -21.5 -51t-27.5 -62.5t-33.5 -64.5t-40 -57.5t-46.5 -41t-54 -15.5q-35 0 -59 11t-40 31.5t-24.5 49
t-10.5 63.5q-16 -29 -34.5 -56t-39.5 -48t-43 -33t-46 -11q-32 2 -53.5 24t-33.5 57t-14 79t5 89.5t24 87.5t43 74t61.5 49.5t80.5 13.5q31 -3 53.5 -10.5t39.5 -18.5q11 37 21.5 72.5t21.5 69.5q11 35 6 72.5t-17 65.5q-4 9 8 7.5t28 -6.5q10 -3 26 -11.5t32.5 -20t30 -23
t18.5 -19.5q11 -21 11.5 -47.5t-6.5 -58.5zM134 93q6 0 22 22.5t35.5 54t39 65t31.5 56.5q3 20 6.5 39.5t8.5 39.5q-2 0 -2.5 0.5t-2.5 0.5q-25 2 -51 -14t-54 -62q-11 -19 -21 -53t-16 -67t-5.5 -57.5t9.5 -24.5zM429 747q-16 20 -17 36.5t9.5 24t30.5 3t44 -27.5
q15 -17 25 -37t15.5 -41t6 -41.5t-2.5 -38.5q-3 -8 -11.5 -9t-17 3t-14.5 11.5t-4 16.5q2 12 -4 25t-16.5 26.5t-22.5 26t-21 22.5z" />
    <glyph glyph-name="Dcroat" unicode="&#x110;" horiz-adv-x="1327" 
d="M382 382q-14 1 -18 10t-1.5 19.5t11.5 19t21 9.5h51q11 38 24 74t30 71t39.5 71.5t51.5 75.5q9 13 30 10t41 -14t32.5 -27t5.5 -29q-19 -31 -34 -59t-27.5 -56t-22 -57t-18.5 -60h51q12 -3 15.5 -12t1 -18.5t-10.5 -17.5t-19 -10h-53l-12 -56q51 -14 92.5 -31t70.5 -33
q18 -10 22 -21.5t-1 -20t-18.5 -11t-29.5 4.5q-40 17 -76.5 29.5t-69.5 20.5q-2 -26 -2 -50t5 -47q1 -13 6.5 -27.5t12 -28.5t14.5 -27t14 -22q11 -17 1.5 -23.5t-28 -6t-42 7t-40.5 15.5q-41 22 -63.5 57.5t-30.5 81.5q-5 38 1 87q-84 -6 -142 -28.5t-91.5 -53t-43.5 -64.5
t1 -63q15 -37 45 -65.5t70.5 -47.5t90 -28t102.5 -7q104 3 196.5 42t169.5 101.5t134.5 141.5t91.5 162.5t41.5 165.5t-16.5 150q-18 51 -60.5 85.5t-95.5 54.5t-110 27.5t-105 6.5q-105 -3 -182 -26.5t-125 -56.5t-67.5 -69.5t-10.5 -65.5q4 -14 8.5 -26.5t16.5 -24.5
t33.5 -23.5t59.5 -22.5q15 -5 22.5 -14t7.5 -17.5t-7.5 -14.5t-22.5 -4q-36 5 -77 16.5t-78.5 32t-68.5 51t-47 74.5q-11 29 -9 65t21.5 72.5t58 71t99 61t145 42.5t196.5 15q89 -1 170 -22t148.5 -60.5t117.5 -96.5t76 -131q37 -104 40 -210t-26 -204t-89 -184.5
t-150 -151.5t-208.5 -104.5t-263.5 -44.5q-72 -2 -148.5 11t-143.5 44.5t-119 83t-75 125.5q-9 28 -3 62t27 67.5t57 65t87 55t117.5 36.5t148.5 10l7 34h-48v0z" />
    <glyph glyph-name="dcroat" unicode="&#x111;" horiz-adv-x="536" 
d="M256 495q-12 2 -18.5 12.5t-7 22.5t4.5 22t17 10h51l7 21q11 35 6 72.5t-17 65.5q-4 9 8 7.5t28 -6.5q10 -3 26 -11.5t32.5 -20t30 -23t18.5 -19.5q17 -34 9 -86h24q10 -5 15.5 -14.5t6.5 -20t-3.5 -20t-13.5 -12.5h-44q-8 -31 -18.5 -75t-21 -92t-20 -95.5t-13.5 -85
t-2 -61t13 -23.5q24 1 47.5 29t44 67t38 81t30.5 72q4 9 13 8.5t18 -6.5t14.5 -15t1.5 -18q-9 -21 -21.5 -51t-27.5 -62.5t-33.5 -64.5t-40 -57.5t-46.5 -41t-54 -15.5q-35 0 -59 11t-40 31.5t-24.5 49t-10.5 63.5q-16 -29 -34.5 -56t-39.5 -48t-43 -33t-46 -11
q-32 2 -53.5 24t-33.5 57t-14 79t5 89.5t24 87.5t43 74t61.5 49.5t80.5 13.5q31 -3 53.5 -10.5t39.5 -18.5l15 54h-26zM107 93q6 0 22 22.5t35.5 54t39 65t31.5 56.5q3 20 6.5 39.5t8.5 39.5q-2 0 -2.5 0.5t-2.5 0.5q-25 2 -51 -14t-54 -62q-11 -19 -21 -53t-16 -67
t-5.5 -57.5t9.5 -24.5z" />
    <glyph glyph-name="Emacron" unicode="&#x112;" horiz-adv-x="836" 
d="M736 722q-20 -7 -35 -2.5t-22 14t-5 20.5t17 18q10 5 16.5 12t4.5 15.5t-14 19t-38 22.5q-25 11 -71 14t-99 -2t-107 -18t-95 -33.5t-61.5 -48.5t-6.5 -63q9 -25 35.5 -42.5t61.5 -31t75 -24.5t76 -21.5t64.5 -22.5t41.5 -28q17 -21 25.5 -35t12.5 -24.5t5.5 -19
t5.5 -18.5q-57 -2 -121.5 -15.5t-125.5 -37t-115 -56.5t-90.5 -74.5t-51 -90t2.5 -103.5q10 -32 32.5 -57.5t50 -43.5t57.5 -27t54 -8q79 3 157 33.5t147 84.5t126 129.5t95 169.5q3 8 12 8t17.5 -5t14 -13.5t2.5 -17.5q-26 -72 -58 -137.5t-77 -124.5t-106 -109.5
t-144 -92.5q-35 -18 -82.5 -27.5t-99.5 -8.5t-105 14.5t-100 43t-84 76t-56 113.5q-26 87 -18 154t39 117t79 85.5t102 59t108 37.5t97 21q-50 1 -99.5 13t-92.5 33.5t-75 50.5t-47 64q-24 58 -11 110.5t59.5 93.5t124 67t182.5 32q27 1 60 2t67.5 -1.5t69 -10.5t64.5 -24
t53.5 -42t37.5 -65q13 -37 5.5 -72.5t-44.5 -48.5zM451 1036q-11 1 -15 8.5t-1.5 16t9.5 15.5t17 7h206q10 -3 13 -10t0.5 -14.5t-8.5 -14t-15 -8.5h-206z" />
    <glyph glyph-name="emacron" unicode="&#x113;" horiz-adv-x="430" 
d="M211 73q42 0 76 26t60.5 63.5t46.5 78.5t33 71q4 9 13 8.5t18 -6.5t14.5 -15t1.5 -18q-21 -47 -42.5 -97.5t-53.5 -93.5t-78.5 -70.5t-116.5 -27.5q-84 0 -134 35t-71 88t-15.5 114.5t31 115t69 89.5t99.5 38q28 1 52 -5.5t42.5 -18t31.5 -26.5t21 -31q13 -29 11 -58.5
t-15 -56.5t-34.5 -50.5t-47.5 -42t-54.5 -30t-54.5 -14.5q11 -29 35 -48t62 -18zM109 195q25 6 53 23.5t50.5 41t35 48t5.5 44.5q-2 7 -10 13t-20 6q-30 0 -52.5 -16t-37.5 -41t-21 -56.5t-3 -62.5zM83 523q-11 1 -14.5 8.5t-1 16t9.5 15.5t17 7h206q10 -3 12.5 -10
t0.5 -14.5t-8.5 -14t-15.5 -8.5h-206z" />
    <glyph glyph-name="Ebreve" unicode="&#x114;" horiz-adv-x="836" 
d="M736 722q-20 -7 -35 -2.5t-22 14t-5 20.5t17 18q10 5 16.5 12t4.5 15.5t-14 19t-38 22.5q-25 11 -71 14t-99 -2t-107 -18t-95 -33.5t-61.5 -48.5t-6.5 -63q9 -25 35.5 -42.5t61.5 -31t75 -24.5t76 -21.5t64.5 -22.5t41.5 -28q17 -21 25.5 -35t12.5 -24.5t5.5 -19
t5.5 -18.5q-57 -2 -121.5 -15.5t-125.5 -37t-115 -56.5t-90.5 -74.5t-51 -90t2.5 -103.5q10 -32 32.5 -57.5t50 -43.5t57.5 -27t54 -8q79 3 157 33.5t147 84.5t126 129.5t95 169.5q3 8 12 8t17.5 -5t14 -13.5t2.5 -17.5q-26 -72 -58 -137.5t-77 -124.5t-106 -109.5
t-144 -92.5q-35 -18 -82.5 -27.5t-99.5 -8.5t-105 14.5t-100 43t-84 76t-56 113.5q-26 87 -18 154t39 117t79 85.5t102 59t108 37.5t97 21q-50 1 -99.5 13t-92.5 33.5t-75 50.5t-47 64q-24 58 -11 110.5t59.5 93.5t124 67t182.5 32q27 1 60 2t67.5 -1.5t69 -10.5t64.5 -24
t53.5 -42t37.5 -65q13 -37 5.5 -72.5t-44.5 -48.5zM475 1158q-1 9 3.5 13t11 3.5t12.5 -6t8 -15.5q5 -28 22.5 -47.5t41.5 -16.5q13 1 26.5 9t25.5 19t21 24t13 25q4 6 10 6t11 -3.5t8.5 -10t2.5 -13.5q-4 -15 -15 -34t-28.5 -36t-39 -28t-46.5 -9q-41 4 -61 39t-27 81z" />
    <glyph glyph-name="ebreve" unicode="&#x115;" horiz-adv-x="430" 
d="M211 73q42 0 76 26t60.5 63.5t46.5 78.5t33 71q4 9 13 8.5t18 -6.5t14.5 -15t1.5 -18q-21 -47 -42.5 -97.5t-53.5 -93.5t-78.5 -70.5t-116.5 -27.5q-84 0 -134 35t-71 88t-15.5 114.5t31 115t69 89.5t99.5 38q28 1 52 -5.5t42.5 -18t31.5 -26.5t21 -31q13 -29 11 -58.5
t-15 -56.5t-34.5 -50.5t-47.5 -42t-54.5 -30t-54.5 -14.5q11 -29 35 -48t62 -18zM109 195q25 6 53 23.5t50.5 41t35 48t5.5 44.5q-2 7 -10 13t-20 6q-30 0 -52.5 -16t-37.5 -41t-21 -56.5t-3 -62.5zM109 648q0 9 4.5 13t11 3.5t12.5 -6t8 -15.5q4 -28 21.5 -47.5t42.5 -16.5
q12 1 25.5 9t25.5 19t21.5 24t12.5 25q9 11 21.5 2.5t11.5 -23.5q-4 -15 -15 -34t-28.5 -36t-39.5 -28t-47 -9q-41 4 -61 39t-27 81z" />
    <glyph glyph-name="Edotaccent" unicode="&#x116;" horiz-adv-x="836" 
d="M736 722q-20 -7 -35 -2.5t-22 14t-5 20.5t17 18q10 5 16.5 12t4.5 15.5t-14 19t-38 22.5q-25 11 -71 14t-99 -2t-107 -18t-95 -33.5t-61.5 -48.5t-6.5 -63q9 -25 35.5 -42.5t61.5 -31t75 -24.5t76 -21.5t64.5 -22.5t41.5 -28q17 -21 25.5 -35t12.5 -24.5t5.5 -19
t5.5 -18.5q-57 -2 -121.5 -15.5t-125.5 -37t-115 -56.5t-90.5 -74.5t-51 -90t2.5 -103.5q10 -32 32.5 -57.5t50 -43.5t57.5 -27t54 -8q79 3 157 33.5t147 84.5t126 129.5t95 169.5q3 8 12 8t17.5 -5t14 -13.5t2.5 -17.5q-26 -72 -58 -137.5t-77 -124.5t-106 -109.5
t-144 -92.5q-35 -18 -82.5 -27.5t-99.5 -8.5t-105 14.5t-100 43t-84 76t-56 113.5q-26 87 -18 154t39 117t79 85.5t102 59t108 37.5t97 21q-50 1 -99.5 13t-92.5 33.5t-75 50.5t-47 64q-24 58 -11 110.5t59.5 93.5t124 67t182.5 32q27 1 60 2t67.5 -1.5t69 -10.5t64.5 -24
t53.5 -42t37.5 -65q13 -37 5.5 -72.5t-44.5 -48.5zM515 1093q-6 23 5 39t34 16t43 -16t26 -39q5 -23 -6 -39t-34 -16t-43 16t-25 39z" />
    <glyph glyph-name="edotaccent" unicode="&#x117;" horiz-adv-x="430" 
d="M211 73q42 0 76 26t60.5 63.5t46.5 78.5t33 71q4 9 13 8.5t18 -6.5t14.5 -15t1.5 -18q-21 -47 -42.5 -97.5t-53.5 -93.5t-78.5 -70.5t-116.5 -27.5q-84 0 -134 35t-71 88t-15.5 114.5t31 115t69 89.5t99.5 38q28 1 52 -5.5t42.5 -18t31.5 -26.5t21 -31q13 -29 11 -58.5
t-15 -56.5t-34.5 -50.5t-47.5 -42t-54.5 -30t-54.5 -14.5q11 -29 35 -48t62 -18zM109 195q25 6 53 23.5t50.5 41t35 48t5.5 44.5q-2 7 -10 13t-20 6q-30 0 -52.5 -16t-37.5 -41t-21 -56.5t-3 -62.5zM148 583q-6 23 5.5 39t34.5 16t42.5 -16t25.5 -39t-5.5 -39t-34.5 -16
t-42.5 16t-25.5 39z" />
    <glyph glyph-name="Eogonek" unicode="&#x118;" horiz-adv-x="836" 
d="M736 722q-20 -7 -35 -2.5t-22 14t-5 20.5t17 18q10 5 16.5 12t4.5 15.5t-14 19t-38 22.5q-25 11 -71 14t-99 -2t-107 -18t-95 -33.5t-61.5 -48.5t-6.5 -63q9 -25 35.5 -42.5t61.5 -31t75 -24.5t76 -21.5t64.5 -22.5t41.5 -28q17 -21 25.5 -35t12.5 -24.5t5.5 -19
t5.5 -18.5q-57 -2 -121.5 -15.5t-125.5 -37t-115 -56.5t-90.5 -74.5t-51 -90t2.5 -103.5q10 -32 32.5 -57.5t50 -43.5t57.5 -27t54 -8q79 3 157 33.5t147 84.5t126 129.5t95 169.5q3 8 12 8t17.5 -5t14 -13.5t2.5 -17.5q-26 -72 -58 -137.5t-77 -124.5t-106 -109.5
t-144 -92.5q-35 -17 -79 -26.5t-94 -9.5q-8 -15 -14.5 -29t-8.5 -22q-4 -17 6 -32.5t42 -24.5q12 -3 16.5 -9.5t3 -13.5t-8.5 -12t-17 -5q-19 7 -36 15t-29.5 19.5t-19 26.5t-3.5 36q6 27 21 53q-48 5 -95 21.5t-88 46t-73 73.5t-50 104q-26 87 -18 154t39 117t79 85.5
t102 59t108 37.5t97 21q-50 1 -99.5 13t-92.5 33.5t-75 50.5t-47 64q-24 58 -11 110.5t59.5 93.5t124 67t182.5 32q27 1 60 2t67.5 -1.5t69 -10.5t64.5 -24t53.5 -42t37.5 -65q13 -37 5.5 -72.5t-44.5 -48.5z" />
    <glyph glyph-name="eogonek" unicode="&#x119;" horiz-adv-x="430" 
d="M211 73q42 0 76 26t60.5 63.5t46.5 78.5t33 71q4 9 13 8.5t18 -6.5t14.5 -15t1.5 -18q-21 -47 -42.5 -97.5t-53.5 -93t-78 -70.5t-115 -28q-9 -16 -16.5 -33t-9.5 -25q-5 -17 5 -32.5t42 -24.5q12 -3 16.5 -9.5t3 -13.5t-8.5 -12t-17 -5q-19 7 -36 15t-29.5 19.5
t-18.5 26.5t-3 36q3 17 9 31.5t14 30.5q-70 10 -110 49t-55 91t-7 110.5t34.5 108t68.5 82.5t95 35q28 1 52 -5.5t42.5 -18t31.5 -26.5t21 -31q13 -29 11 -58.5t-15 -56.5t-34.5 -50.5t-47.5 -42t-54.5 -30t-54.5 -14.5q11 -29 35 -48t62 -18zM109 195q25 6 53 23.5t50.5 41
t35 48t5.5 44.5q-2 7 -10 13t-20 6q-30 0 -52.5 -16t-37.5 -41t-21 -56.5t-3 -62.5z" />
    <glyph glyph-name="Ecaron" unicode="&#x11a;" horiz-adv-x="836" 
d="M736 722q-20 -7 -35 -2.5t-22 14t-5 20.5t17 18q10 5 16.5 12t4.5 15.5t-14 19t-38 22.5q-25 11 -71 14t-99 -2t-107 -18t-95 -33.5t-61.5 -48.5t-6.5 -63q9 -25 35.5 -42.5t61.5 -31t75 -24.5t76 -21.5t64.5 -22.5t41.5 -28q17 -21 25.5 -35t12.5 -24.5t5.5 -19
t5.5 -18.5q-57 -2 -121.5 -15.5t-125.5 -37t-115 -56.5t-90.5 -74.5t-51 -90t2.5 -103.5q10 -32 32.5 -57.5t50 -43.5t57.5 -27t54 -8q79 3 157 33.5t147 84.5t126 129.5t95 169.5q3 8 12 8t17.5 -5t14 -13.5t2.5 -17.5q-26 -72 -58 -137.5t-77 -124.5t-106 -109.5
t-144 -92.5q-35 -18 -82.5 -27.5t-99.5 -8.5t-105 14.5t-100 43t-84 76t-56 113.5q-26 87 -18 154t39 117t79 85.5t102 59t108 37.5t97 21q-50 1 -99.5 13t-92.5 33.5t-75 50.5t-47 64q-24 58 -11 110.5t59.5 93.5t124 67t182.5 32q27 1 60 2t67.5 -1.5t69 -10.5t64.5 -24
t53.5 -42t37.5 -65q13 -37 5.5 -72.5t-44.5 -48.5zM734 1121q0 -1 -12.5 -9t-31 -19t-40.5 -23t-42.5 -22t-36.5 -15.5t-21 -2.5q-7 3 -19 22t-24 40.5t-20.5 39.5t-8.5 19q-4 19 8.5 22.5t28.5 -14.5q7 -8 11.5 -14t8.5 -11.5t9.5 -11.5t14.5 -14q16 4 35.5 10.5t39.5 13
t39 13t36 12.5q12 1 19.5 -3.5t10.5 -10.5t2 -12t-7 -10z" />
    <glyph glyph-name="ecaron" unicode="&#x11b;" horiz-adv-x="430" 
d="M211 73q42 0 76 26t60.5 63.5t46.5 78.5t33 71q4 9 13 8.5t18 -6.5t14.5 -15t1.5 -18q-21 -47 -42.5 -97.5t-53.5 -93.5t-78.5 -70.5t-116.5 -27.5q-84 0 -134 35t-71 88t-15.5 114.5t31 115t69 89.5t99.5 38q28 1 52 -5.5t42.5 -18t31.5 -26.5t21 -31q13 -29 11 -58.5
t-15 -56.5t-34.5 -50.5t-47.5 -42t-54.5 -30t-54.5 -14.5q11 -29 35 -48t62 -18zM109 195q25 6 53 23.5t50.5 41t35 48t5.5 44.5q-2 7 -10 13t-20 6q-30 0 -52.5 -16t-37.5 -41t-21 -56.5t-3 -62.5zM377 624q0 -1 -12.5 -9t-31 -19t-40.5 -23t-42.5 -22t-36.5 -15.5
t-21 -2.5q-7 3 -19 22t-24 40.5t-20.5 39.5t-8.5 19q-4 19 8.5 22.5t27.5 -14.5q7 -8 12 -14t9 -11.5t9.5 -11.5t14.5 -14q16 4 35.5 10.5t39.5 13t39 13t36 12.5q11 1 18.5 -3.5t11 -10.5t2.5 -12t-7 -10z" />
    </font>
</defs>
</svg>
