<?xml version="1.0" encoding="utf-8"?>
<!-- Generator: Adobe Illustrator 26.0.3, SVG Export Plug-In . SVG Version: 6.00 Build 0)  -->
<svg version="1.1" id="Слой_1" xmlns="http://www.w3.org/2000/svg" xmlns:xlink="http://www.w3.org/1999/xlink" x="0px" y="0px"
	 viewBox="0 0 82 82" style="enable-background:new 0 0 82 82;" xml:space="preserve">
<style type="text/css">
	.st0{fill:#12100B;}
</style>
<path class="st0" d="M35.7,50.9c-1.2-0.2-2.3-0.4-3.4-0.6c-2.6-0.4-5.1-1.4-7.3-2.8c-3.9-2.5-5.8-6.3-6.5-10.8
	c-0.4-2.3-0.5-4.7-0.2-7.1c0.4-2.7,1.5-5.3,3.4-7.4c0.3-0.3,0.4-0.7,0.2-1.1c-0.9-3-0.8-6.2,0.4-9.1c0.2-0.3,0.4-0.4,0.7-0.4
	c1.3,0.1,2.6,0.4,3.9,0.8c2,0.8,3.8,1.9,5.7,2.8c0.3,0.2,0.7,0.2,1,0.2c6-1.5,12.2-1.5,18.2,0c0.4,0.1,0.9,0,1.2-0.2
	c2.2-1.6,4.7-2.7,7.3-3.4c3.1-0.6,2.6-0.5,3.3,2c0.7,2.4,0.7,5-0.1,7.5c-0.1,0.3,0,0.5,0.1,0.8c2.8,3.2,4.1,7.5,3.7,11.7
	c-0.1,2.8-0.8,5.5-1.9,8.1c-2.1,4.2-5.6,6.6-9.9,7.8c-1.8,0.5-3.7,0.8-5.6,1.2c0,0,0,0,0,0.1c1.9,2,2.4,4.5,2.4,7.2
	c0,3.2,0,6.5-0.1,9.7c0,1.3,0.2,1.6,1.6,2.2H31.8c0.2-0.1,0.5-0.1,0.6-0.3c0.3-0.4,0.8-0.8,0.8-1.2c0.1-2.2,0-4.5,0-6.7
	c-0.9,0.1-1.8,0.3-2.7,0.3c-2.8,0.4-5.7-0.4-8-2.2c-1.1-0.9-1.9-2-2.4-3.2c-0.8-2.4-2.4-4.5-4.6-5.8c-0.3-0.2-0.6-0.4-0.8-0.7
	c-0.6-0.7-0.5-1.2,0.4-1.3c0.8-0.1,1.7,0,2.5,0.2c1.9,0.6,3.5,2,4.5,3.7c1,1.9,2.8,3.2,4.8,3.8c2,0.4,4.1,0.2,6-0.6
	c0.2-0.1,0.3-0.3,0.4-0.5C33.6,53.9,34.5,52.2,35.7,50.9z"/>
</svg>
