<?xml version="1.0" encoding="utf-8"?>
<!-- Generator: Adobe Illustrator 26.0.3, SVG Export Plug-In . SVG Version: 6.00 Build 0)  -->
<svg version="1.1" id="Layer_1" xmlns="http://www.w3.org/2000/svg" xmlns:xlink="http://www.w3.org/1999/xlink" x="0px" y="0px"
	 viewBox="0 0 152.3 66.1" style="enable-background:new 0 0 152.3 66.1;" xml:space="preserve">
<style type="text/css">
	.st0{fill:#FFFFFF;}
	.st1{fill:#009EDB;}
</style>
<rect x="-4" y="-6.7" class="st0" width="164.1" height="76.4"/>
<g>
	<path class="st1" d="M123.4,17.4c-6.8,0-12.4,5.5-12.4,12.4c0,6.8,5.5,12.4,12.4,12.4c6.8,0,12.4-5.5,12.4-12.4
		S130.2,17.4,123.4,17.4 M133,22.9c-0.6,0.4-1.3,0.8-2,1.2c-0.4-0.8-0.9-1.6-1.5-2.3c0.5-0.3,1-0.7,1.4-1
		C131.8,21.3,132.5,22.1,133,22.9 M127.8,18.8c1,0.4,1.9,0.9,2.8,1.6c-0.4,0.4-0.9,0.7-1.4,1c-0.6-0.7-1.3-1.3-2-1.9
		C127.4,19.2,127.6,19,127.8,18.8 M128.8,21.6c-0.7,0.4-1.4,0.6-2.1,0.9c-0.3-0.7-0.6-1.4-1-2c0.4-0.2,0.8-0.4,1.1-0.7
		C127.5,20.3,128.2,20.9,128.8,21.6 M127.3,18.6c-0.2,0.2-0.4,0.4-0.5,0.6c-0.7-0.4-1.3-0.8-2.1-1.1
		C125.6,18.1,126.5,18.3,127.3,18.6 M126.4,19.5c-0.3,0.2-0.6,0.4-0.9,0.5c-0.4-0.6-0.8-1.1-1.2-1.7C125,18.6,125.7,19,126.4,19.5
		 M123.6,18.4c0.5,0.5,0.9,1.1,1.3,1.8c-0.4,0.1-0.8,0.2-1.3,0.2V18.4z M123.6,20.9c0.5,0,1.1-0.1,1.6-0.3c0.4,0.6,0.7,1.3,1,2
		c-0.8,0.2-1.7,0.3-2.6,0.4V20.9z M123.1,18.4v2c-0.4,0-0.8-0.1-1.3-0.2C122.3,19.6,122.7,19,123.1,18.4 M121.4,20
		c-0.3-0.1-0.7-0.3-0.9-0.5c0.7-0.4,1.4-0.8,2.1-1.1C122.1,18.9,121.7,19.4,121.4,20 M122.1,18c-0.7,0.3-1.4,0.7-2.1,1.1
		c-0.2-0.2-0.4-0.4-0.5-0.6C120.3,18.3,121.2,18.1,122.1,18 M130.6,39.2c-1.6-0.9-1.7-2.2-1.6-2.6c0.1-0.5,0.4-0.3,0.6-0.3
		c1.1,0,2.2-0.3,3.6-1.8c1.6-1.6,2.1-5.2-0.4-7.5c-2.6-2.5-5.4-2.1-7.2,0.2c-0.4,0.5-1.3,0.8-2,0.8c-1.2,0-0.4,0.9-0.4,1.1
		c0,0.2-0.2,0.3-0.3,0.3c-0.4-0.1-0.2,0.5-0.2,0.6s-0.2,0.3-0.2,0.3c-0.5,0-0.4,0.4-0.3,0.6c0,0.1,0,0.3-0.2,0.4s-0.3,0.5-0.3,0.8
		c0,0.5,0.5,0.9,1.3,1.5s0.9,1.2,0.9,1.6c0,0.4,0.1,1.1,0.2,1.5c0.2,0.5,0.2,1.5-0.9,1.5c-1.4,0.1-3.8,1.1-4,1.2
		c-0.8,0.3-1.8,0.4-2.6,0.2c-0.4-0.3-0.8-0.6-1.2-1c-0.2-0.5,0.1-1.1,0.4-1.5c0.5,0.5,1.1,0.4,1.5,0.4s2.2-0.3,2.5-0.4
		c0.3-0.1,0.4-0.1,0.5,0c0.7,0.3,1.7,0.3,2.1-1c0.4-1.4-0.5-1-0.7-0.9c-0.1,0.1-0.3,0-0.2-0.1c0.2-0.3-0.1-0.3-0.2-0.3
		c-0.4,0-0.9,0.4-1,0.5c-0.2,0.1-0.3,0.1-0.4,0.1c-0.5-0.3-2,0.1-2.5-0.7c0-0.2-0.4-3.5-0.6-4.1c0-0.1-0.1-0.3,0.1-0.5
		c0.4-0.6,1.4,0,2,0c0.7,0,0.8-0.3,1-0.5c0.2-0.2,0.3-0.1,0.4-0.2s0-0.2,0-0.3s0.1,0,0.2-0.1s0-0.3,0-0.4c0.2-0.3,0.6-0.1,0.4-0.7
		c-0.1-0.4,0.1-0.8,0.3-1c0.3-0.4,1.6-2.2-0.6-4.1c-2.1-1.8-4.3-1.6-5.7-0.1c-1.4,1.5-0.7,3.7-0.6,4.3s-0.3,1.1-0.8,1.3
		c-0.4,0.2-1.3,0.8-1.9,1.3c0.1-4.8,3-9,7.4-10.7c0.2,0.2,0.4,0.5,0.6,0.7c-0.5,0.4-1.6,1.3-1.6,1.3s0.1,0,0.3,0.1
		c0.1,0,0.3,0.1,0.3,0.1s0.9-0.8,1.4-1.1c0.3,0.3,0.7,0.5,1.1,0.7c-0.2,0.4-0.8,1.4-0.8,1.4s0.1,0.1,0.2,0.1
		c0.1,0.1,0.2,0.1,0.2,0.1s0.6-1.1,0.8-1.5c0.5,0.2,1,0.3,1.5,0.3v2c-0.3,0-1,0-1.3-0.1h-0.2l0.1,0.2c0.1,0.1,0.1,0.2,0.2,0.3l0,0
		l0,0c0.2,0,0.9,0,1.2,0v3.7h0.5v-0.9c0.8,0,1.4-0.1,2.1-0.2l0,0l0.7-0.6h-0.4c-0.8,0.1-1.5,0.2-2.1,0.2c0,0-0.2,0-0.3,0v-2.3
		c0.9,0,1.9-0.1,2.8-0.4c0.2,0.6,0.7,2.1,0.7,2.1l0.5-0.2c0,0-0.5-1.5-0.7-2.1c0.8-0.2,1.5-0.6,2.2-0.9c0.6,0.7,1.1,1.5,1.5,2.3
		c-0.4,0.2-1,0.4-1,0.4c0.5,0.1,0.9,0.2,0.9,0.2s0.2-0.1,0.3-0.1c0,0.1,0.1,0.3,0.1,0.3l0.7,0.3l-0.1-0.2c0,0-0.2-0.5-0.3-0.6
		c0.7-0.3,1.4-0.7,2.1-1.2c1.3,1.9,1.9,4.2,1.9,6.5C135.3,33.6,133.4,37,130.6,39.2"/>
	<path class="st1" d="M109.9,20.7l-0.2,0.2c-0.7,0.6-2.4,2.3-2.1,4.2v0.1l0.1,0.4l0.2-0.2c1-0.9,1.8-2.5,2.1-4.3l0.1-0.5L109.9,20.7
		z"/>
	<path class="st1" d="M106.5,23.9l-0.1,0.2c-0.1,0.3-0.3,1-0.4,1.8c-0.2,1.2-0.1,3,0.9,4.3l0.1,0.2l0.1,0.2l0.2-0.8
		c0.2-1.4-0.1-4.3-0.6-5.6l-0.2-0.4V23.9z"/>
	<path class="st1" d="M105.3,28.9v0.2c-0.1,1.2,0,4.3,2.5,6l0.3,0.2v-0.4c0-1.2-1.4-4.7-2.4-5.9l-0.3-0.4L105.3,28.9z"/>
	<path class="st1" d="M105.7,34.4v0.2c0.4,1.8,2,4.6,4.6,5.5l0.4,0.1l-0.1-0.4c-0.5-1.3-3-4.4-4.6-5.4l-0.3-0.2V34.4z"/>
	<path class="st1" d="M111,23.4l-0.3,0.1c-1.9,1.2-2.8,2.6-2.8,4.4v0.4l0.3-0.2c1-0.9,2.4-3.1,2.7-4.3l0.1-0.5L111,23.4z"/>
	<path class="st1" d="M109.8,27.2l-0.1,0.2c-0.5,0.5-2.1,2.2-2,4.3c0,0.3,0.1,0.7,0.2,1L108,33l0.2-0.3c0.8-1.1,1.8-3.9,1.7-5.2
		L109.8,27.2L109.8,27.2z"/>
	<path class="st1" d="M109.9,30.9l-0.1,0.2c-0.8,1.2-1.2,2.4-1.2,3.6c0,0.8,0.3,1.6,0.8,2.4l0.2,0.3l0.1-0.3
		c0.3-0.7,0.6-2.8,0.6-4.5c0-0.6-0.1-1.1-0.2-1.4l-0.1-0.4L109.9,30.9z"/>
	<path class="st1" d="M110.8,34.8l-0.1,0.2c-0.2,0.8-0.4,1.5-0.3,2.3c0,1.6,0.8,2.9,2.2,3.8l0.2,0.1l0.1-0.3v-0.3
		c0-1.3-1-4.7-1.8-5.7l-0.2-0.3L110.8,34.8z"/>
	<path class="st1" d="M108.1,40l0.1,0.2c1,1.7,2.8,4,6.1,3.4h0.3l-0.2-0.2c-0.6-0.9-4.6-3.2-6-3.4H108.1L108.1,40z"/>
	<path class="st1" d="M113,44.4L113,44.4l-0.5,0.1l0.5,0.2c2.1,0.9,4.7,1.1,6.3,0.6c0.6-0.2,0.9-0.5,1.3-0.9
		c2.7,0.3,5.2,2.5,6.7,4.3l0.1,0.1h0.1c0.2-0.1,0.4-0.3,0.5-0.4l0.1-0.1l-0.1-0.1c-1.5-2-3.9-3.2-4-3.3
		C121.8,43.9,118,43.1,113,44.4"/>
	<path class="st1" d="M113.1,38.8V39c0.3,2,1.1,4.6,4.5,4.3h0.2l-0.1-0.2c-0.2-0.9-3.3-3.5-4.4-4.2l-0.3-0.2L113.1,38.8z"/>
	<path class="st1" d="M136.7,20.5l0.1,0.5c0.3,1.8,1.1,3.4,2.1,4.3l0.2,0.2l0.1-0.4V25c0.3-1.9-1.4-3.6-2.1-4.2l-0.2-0.2L136.7,20.5
		z"/>
	<path class="st1" d="M140.2,23.7l-0.2,0.4c-0.5,1.3-0.7,4.2-0.6,5.6l0.2,0.8l0.1-0.1l0.1-0.2c1.1-1.3,1.1-3,0.9-4.3
		c-0.1-0.9-0.3-1.5-0.4-1.8l-0.1-0.2V23.7z"/>
	<path class="st1" d="M141.5,28.7l-0.3,0.4c-1,1.3-2.4,4.7-2.4,5.9v0.4l0.3-0.2c2.5-1.6,2.6-4.7,2.5-6V29L141.5,28.7z"/>
	<path class="st1" d="M141.1,34.2l-0.4,0.2c-1.6,1-4.1,4.1-4.6,5.4l-0.1,0.4l0.4-0.1c2.6-0.8,4.3-3.7,4.6-5.5v-0.2L141.1,34.2z"/>
	<path class="st1" d="M135.8,23.2l0.1,0.5c0.4,1.3,1.6,3.5,2.7,4.4l0.3,0.2v-0.4c0.1-1.8-0.8-3.2-2.7-4.4l-0.2-0.1L135.8,23.2z"/>
	<path class="st1" d="M136.9,27.1v0.4c-0.1,1.3,1,4.2,1.7,5.2l0.2,0.3l0.1-0.3c0.1-0.4,0.2-0.7,0.2-1c0.1-2.1-1.5-3.8-2-4.3
		l-0.1-0.1L136.9,27.1z"/>
	<path class="st1" d="M136.8,30.7l-0.1,0.4c-0.1,0.3-0.2,0.8-0.2,1.4c0,1.7,0.2,3.8,0.6,4.5l0.1,0.3l0.2-0.3
		c0.5-0.7,0.8-1.5,0.8-2.4c0-1.1-0.4-2.4-1.2-3.6l-0.1-0.2L136.8,30.7z"/>
	<path class="st1" d="M135.9,34.6l-0.2,0.3c-0.8,1-1.8,4.4-1.8,5.7c0,0,0,0.2,0,0.3l0.1,0.3l0.2-0.1c1.4-0.9,2.1-2.2,2.2-3.8
		c0-0.7-0.1-1.5-0.3-2.3l-0.1-0.2L135.9,34.6z"/>
	<path class="st1" d="M138.8,39.8l-0.4,0.1c-1.4,0.2-5.4,2.5-6,3.4l-0.2,0.2h0.3c3.3,0.6,5.1-1.7,6.1-3.4l0.1-0.2L138.8,39.8z"/>
	<path class="st1" d="M122.9,44.9c-0.1,0-2.5,1.3-4,3.3l-0.1,0.1l0.1,0.1c0.1,0.1,0.4,0.3,0.5,0.4h0.1l0.1-0.1
		c1.5-1.8,4-4.1,6.7-4.3c0.4,0.4,0.8,0.7,1.3,0.9c1.5,0.5,4.2,0.3,6.3-0.6l0.5-0.2l-0.5-0.1C128.8,43.1,125,43.9,122.9,44.9"/>
	<path class="st1" d="M133.7,38.6l-0.3,0.2c-1.1,0.7-4.1,3.3-4.4,4.2l-0.1,0.2h0.2c3.3,0.3,4.1-2.3,4.5-4.3v-0.2L133.7,38.6z"/>
	<path class="st1" d="M49.3,18.6h4.2v3.8h-4.2V18.6z M49.7,26.8h3.5v18.6h-3.5V26.8z"/>
	<path class="st1" d="M23.2,26.8h3.5v18.6h-3.4v-2.7h-0.1C21.8,45,19.4,46,16.8,46c-3.9,0-6.1-3-6.1-6.7V26.8h3.5v11
		c0,3.2,0.7,5.6,4.1,5.6c1.4,0,3.4-0.7,4.1-2.7c0.7-1.7,0.7-3.9,0.7-4.4v-9.5H23.2z"/>
	<path class="st1" d="M33.7,29.5L33.7,29.5c1.3-2.3,3.8-3.3,5.7-3.3c1.3,0,7,0.3,7,6.3v12.8h-3.5V33.6c0-3.1-1.3-4.7-4.3-4.7
		c0,0-1.9-0.1-3.4,1.4c-0.5,0.5-1.5,1.3-1.5,5v10.1h-3.5V26.8h3.5V29.5z"/>
	<path class="st1" d="M67.9,32.7c-0.2-2.3-1.3-3.9-3.8-3.9c-3.3,0-4.6,2.9-4.6,7.2s1.3,7.2,4.6,7.2c2.3,0,3.7-1.5,3.9-4.2h3.5
		c-0.3,4.2-3.4,6.7-7.5,6.7c-5.9,0-8.3-4.2-8.3-9.6s2.7-9.9,8.6-9.9c3.9,0,6.8,2.5,7,6.5C71.3,32.7,67.9,32.7,67.9,32.7z"/>
	<path class="st1" d="M76.7,36.7c-0.3,3.2,1.1,6.6,4.6,6.6c2.7,0,4.1-1.1,4.5-3.8h3.7c-0.6,4.2-3.8,6.3-8.2,6.3
		c-5.9,0-8.3-4.2-8.3-9.6s2.7-9.9,8.6-9.9c5.5,0.1,8.1,3.6,8.1,8.7v1.7C89.7,36.7,76.7,36.7,76.7,36.7z M86.1,34.3
		c0.1-3.1-1.3-5.5-4.7-5.5c-2.9,0-4.6,2.5-4.6,5.5H86.1z"/>
	<path class="st1" d="M93.7,45.2v-16h-3.2v-2.4h3.2v-4c0.1-4,3.2-5.1,5.8-5.1c0.8,0,1.7,0.2,2.5,0.4V21c-0.6,0-1.2-0.1-1.8-0.1
		c-2,0-3.1,0.5-3,2.5v3.4h4.3v2.4h-4.3v16H93.7z"/>
</g>
</svg>
